<mxfile host="65bd71144e">
    <diagram id="fo9rT2gcLWQx_NgXg4yT" name="第 1 页">
        <mxGraphModel dx="1651" dy="1695" grid="1" gridSize="10" guides="1" tooltips="1" connect="1" arrows="1" fold="1" page="1" pageScale="1" pageWidth="827" pageHeight="1169" math="0" shadow="0">
            <root>
                <mxCell id="0"/>
                <mxCell id="1" parent="0"/>
                <mxCell id="2" value="js在执行代码前会创建一个全局对象Global Object对象(Go对象)" style="text;html=1;align=center;verticalAlign=middle;resizable=0;points=[];autosize=1;strokeColor=none;fillColor=none;" vertex="1" parent="1">
                    <mxGeometry x="120" y="105" width="360" height="30" as="geometry"/>
                </mxCell>
                <mxCell id="3" value="" style="whiteSpace=wrap;html=1;" vertex="1" parent="1">
                    <mxGeometry x="130" y="150" width="300" height="320" as="geometry"/>
                </mxCell>
                <mxCell id="4" value="Date&lt;br&gt;Array&lt;br&gt;Srting&lt;br&gt;setTimeout&lt;br&gt;windiw" style="whiteSpace=wrap;html=1;" vertex="1" parent="1">
                    <mxGeometry x="160" y="170" width="120" height="90" as="geometry"/>
                </mxCell>
                <mxCell id="5" value="这个对象是全局的作用域&lt;br&gt;里面包含了Array、String、setTimeout、window对象&lt;br&gt;window对象指向了自己" style="text;html=1;align=center;verticalAlign=middle;resizable=0;points=[];autosize=1;strokeColor=none;fillColor=none;" vertex="1" parent="1">
                    <mxGeometry x="-188.3" y="270" width="300" height="60" as="geometry"/>
                </mxCell>
                <mxCell id="6" value="" style="shape=image;verticalLabelPosition=bottom;labelBackgroundColor=default;verticalAlign=top;aspect=fixed;imageAspect=0;image=data:image/png,iVBORw0KGgoAAAANSUhEUgAAAZAAAAGaCAIAAACuRoL9AAAAAXNSR0IArs4c6QAAAERlWElmTU0AKgAAAAgAAYdpAAQAAAABAAAAGgAAAAAAA6ABAAMAAAABAAEAAKACAAQAAAABAAABkKADAAQAAAABAAABmgAAAABRgXdtAABAAElEQVR4Aey9B7gd13XfO72cc+69uBe9k2gESIAFIljEKharU6aoYrmo2IoTO5btZzv5lPfiRP6Sz/5eLDvOs2zHJZIiRbasSqqQpiiJIin2BoAUAIIkegcubjll+sz7rb3PObgESQmA833vOTmDizkze3Zds9d/1lp77b3NteuvLM3SMIzKyit+zMqoTH6t0uFsl5Y8kgCO0pCY/Fl24XI2zMIw8m5ywyslWl5ZRaUytAq/n6oiW5W3VZlmZVmVY0lsnXlZWEVB6SYJKdemKlYlj/RB/N4lNZGq6hJ1IFn1n57ZheRwNsep0s8glcrcLG39qxJUtMk0aL+cFSUVMQxbKF0SseK5orMuSbfXEoJJEg512b+2JUiyKHU+QsbKPFVLyU7dmRmZmPKoKq2kMnOSyCMoVtm2oqpl5NyWVSilWJEhcXRO1IuYLqGmmZFQCiWk9FUfKORcSU3kzZq5adATjIr4VI3/HBXtIyuHttkVyUvV9m5TdJTBeUCBs6WAcDvoIBAgXZOzZhHptZpnXi9HOqqKq/u3cBBXilVgJC5NlVye0lvNbn/l2rJgYEJNxXR0bK6Jz5+E6A79emW+ZjiZdevwmo//PwnUQNMHHYUu3YoIoVQrOQs1wKwSmqiDV/ATq0t6dahfIaQ0n5teMFAiOQP9EkIEwBOkFHApIbx6NVxTC16KBMpL12jCnXoR/BIoB2CkL9QdJ0E0QSh1P4Psutt0Y5GERwSVlZGragicqeOVufVCB78DCpwhBRzp6qpzS1eS3iyHFnA07qgA1fc1M6nISlYQdCs0LsEW5EJP5rZyCsVBdmmTQwFfqG+8LkigSxiMrzF5dmUEpC4EJRE2hIV+cp/W1RNO6x79i17A/8zfs8tcQZU0EEbNeuSkOpqjIQLhcobIAAmSCfgt6K0ORMtezWe0rg8f8oy0mkRIO724SEk9pOu+QXIlz764pGQlw0HA6iWRX2oh74IDGUpqILdSdZ5IOJElvhTIrVCbGmvAUvmI3KQArtdtuuima9htkoYqnVYy6ibRl4PzgAJnSQGRsDSUvJ4W1u2xuu/SCwVx+CALM6BtyGdUKSCAU6/oLtOBVkSXDyy4pOKobk4s+e3KIJJG4hMDFULlyaNeRHn6T+mgUX1g6l+/ugE0+BS14HYF9UJnJZPo+H1q9pNrCOnh1CtJBMU0avRIJ29JDiVd8YsQLWdbafH9tCqMJGaqkAtVkaoobFK16gGQeqE6XCpJKv4I7NdRReiWKKWqQ5WiYEtEyW7kLoz14gx+BxQ4Owp0DUBKmDqVUnBIHX0zSf9ZoXCoqHgCbFkiYYkqhx1KokjHVNikoEe6rGAWnVX1bc1FYrhRfIX5A52B9CYmLb7tgmtiDpF8VASNodpupWuozzpkJsJKmv+/HEoHUq04hUq9uqlnit0VtEGg3KLVPIZ8ilwQSiXrpVXGrR7AibQqco2Or35f+6Tj8Ix3JHZGw8CeKG9IvyxJpF+BXHGNTaqoBPLE+CaEleJVJhLIn2oPwCO4Jwir8NFWr4AGdF+6rluv7+is9ZkcdJV6KufMh4PrAQXOmAKnWawV6/Q+nBqtNDp0pR7Vy+l6WulTMCQdkT4K9OiLXtcEdOjQmtVUL1ec0JeeQCudM5Bno6pIcmVOlmz+aR8QUcONhqdXNwZygSJaxjz9aReoxKjUvZwRQ4XA/Bz6rJ91IwuxdUAfHbhVsjAaePeJ/Cj4ECTqXpeMk6ib7knesrzW3tHLlYQY7MkQSU2S03n42PST9qqkLWin8E63lIGUXn6D3wEFzpUCzkz5RXcppBgd+Jp5Sq+EmWSkSZ7zUYWLJKDfqyVQaYKKJwv5JosZGD4RflN8ouIXqCFi7ifQArEsBVcqU8n49GNmPbWcpWP8mKqenoW+V5j72o9eM7TL2K/57PRAmqkZvUvJbsOFIJo+oicqsiA4icGoMtxCUwSpU9rebc6rKinJe4YqVQrvQYtmUgeUdO7RzVW5ogZy9GVSVTT1EgKbosDLO1RPqY0nJfJQSpRwyyiU8Us+IZVAEoGnXorVhSrdSpJLsSqC1I/kHKXYM0V25rBUofqBbu8rdVKJMzgGFDhzCsioM7Hpd30U0DwD//QudO9UnV0MxtJNrVIPYMu3nb6ueifYR06kg2FUEjUy1c2EIqTbSgyzEmO8fJjhHh2H8slVcSwR/kkf2qFBmqCJIO3VLRXdGSKAB/oQculHilqCFsLtciOkOu3QsCa5KWuUeg+8CHl9ZsmvlpEQV4X+DHUAN+LwgRIpIbwFq0Kq00VqQKMAee1kyHejIBMzZRCghz9EFlVeDpHR1CFfKVXNftMUIoPCGm3FCkkEXiXRLZVKWf/JngDRTaXEwTGgwLlTQGScLgvMyESAxBVmSIvUlF5a5kVqmQ4I4xqeV3pWZgdVzcwt3/KztHBMhzFBt3Lp26aJhsdAvVVmJeEaBxkTdF1PPu+FbWSmVzpe5ZupXaVG6NREZyhNDqIVReHZXoVPWMGgVmnbNiH9qsF4GgEJIT6l6FScCSE5B4E6vuM4pNWZEMgjrk3DzrOyyCvbcjnTKP64QFLkgkeEl4XRDyFnDp2W5J7n5XlObmSeJImuQL+GVAJrnFmBHoVOCA0zI89pjAA2YFSCH5i+cV8DZGh2QVM9MzEy0CA3kToLCQFdqJEksHJkHWotrC6CqO3IkGpR5FSG2hMzh4hWXkBWB0c23hcyW5JVUWUXQlcFHmWZOy6XKQVXZYpGZxAChFY5jaOqZZU4fpwbEyaFVAUkJH/X9gRtK3TA1AZ0qgwKSlWgB5koigqC8q6po3LFom40ubKpTJblLdspDCezvKwwO1lJlUAxBc/9Nzq4GFDgbChgjy1cgLWEJPJffbf58gMKURoBVa7vwo22abmODwDZpp2mqWO5glMwBR0VNjMYFAcP5ENelDkcVRg5bE9q+DyrMts1XceNWpENr5mW73tZmqKY2JYVOF4SJ6QFNmSMv8gBAlJxBEGg4QZ+4CCk3y4y4ZoQqRsIgU0NmPM86ua6rrCfQjoAhVvf9zudDjmAfZx5ShGcScJtlmVEJg6Z6FKIBiRROrf9CugMidZqtTgTgZAwDDVm6QzJgXDKgMlFexPWFV63HNN2nSzH/RIaQdzKdvAwqByYG4pbmLtzzshWnIkJ81O0AfgAi9gBBYuljQRStySOgBii2R5gUGZFPH/R8PIVS2bPHT0xfjwrkpWrls2ZN1RvBFPTbVEDaaXNJ4SmyBfAkXS8RKGM0C3HX7fMjdwPjQ/98h233Hz9Qw88bluh5/KOcqrseX5V5bZtxnFMoOsGhEIYzwfWQUAEKkvw38z8wAOyQGrweO6i0UVLRubNn3Xi+HiaRRdtXDl77pBRFXEnUZ1N9TWKHxwDCpwlBeyxBQJY8pXlrFGLLBi3C1Bu+NiKLQMEQlYCpPK0cOtBXmQ8KfgOB7gapQXu8HyQcyDDBp5Mz0irLCtyYAqYsV3QJCuyzPEswAXtgK890EEg32kNPK5NyWWSRUEYgIOBXytysIuhSD7mSsVQaKUxS4CNDi9/4gcA4gBVwAcMCRMKWyr8IjI4Aoe3220ghgtYTudAZC44awjoAxOB+hokAvs4uCUT8qzVamATF4QQjYJ4yplMiMC10AzZEs6WvMkIEBLBMRepCGUMkLIBKQQ+2uPbXhqlgJHQAd/KsvBcQBC1DExDVsF3rWdp6r4R3gAVlhvPFZdcyamCQMCEec1Nl9/6lusuvuSihx6+P8uTX/rlD91406bZs2dtfvZHAEnoNeI4C4K65bhIl9BUau55SmozEJhNLYiZ0e0/cwMC8CMP/sgow047CoIGzeWxNIhyvRBBkTci1BMxjXecA2fSc2i0U6Z5atAEBK7Q+tkPvfua6y5etHju5qefdXzjw7/yng0bV5t5teulXfQsjb9n2VEH0QcUEAoIYpx28MkVRQbMKQq40XNcMZ0iHySGawd0d3Qcwym8Or0/T1GiAAtkB7fia+8HLujkOcFwOJwlCaKZ6CgVkBLQ7ZmxklYpX+O0SlzfE64sjcDx0zhzLRcFJE8zzw2iKKJoSRMEVACMoDLAAReCVkq24qwBQqMGrE9MAsEm0mr5iFSE60fIPsCQvqUmRCY5kam8zlMXRKHcgnHE0TAn1S5LQojAQQ5EIGcqA4RRIk+5pkRdSakeoqLWe0SkE9MVpUM32/WJBs0BKYuCXDdJBcqM0s4yqI7s40MEHlQp2jSDpyI5IpFRIgcAnVfkBJYDymCrhMV5Jy86qF25GaVlxw4Ql6Kp1rgTAI8pEl2Sp4htcVrkGTDKl8H2Q3mJJqCZIxGnGYUZVQTpq9gAgUW0M9xaEOWxE5i8aJIiSKPUSW/BeBkI0IqIZ4tOjRxWVvzFqJy8K5ofxVPopLnV8WqgWJzlbdtPDKdj+2WOfgwkD44BBc6VAtiYBAJefQAEyEWYUkCTwAx9q5a2E7fmxpXph36SJWaV8akN3VB8svjqA19WKYIDQkDpFVlZtxt8iT0jBBKarSm35nTyxA2cOE1rQT2JcqQ2xCy7skNvJI9SG/6AJ9M88ARH0igxsM7zdbcqEXmwpnGI+aRr3pI7RDsbZkVkEz2OkDRJw1odyCPE8YMozbCGdRKRgMT0bNnaWpXkheN6zU4kgIKgJrYW5AOYU8xSXlijAomyVWFvQq0EyBDQFFrCroBdV7CiRG7B9hhIgAAmgxiiZIm0qow11A+VzKA2hILtiIyOF1VlpsxPbq1epKXvhjB6WSKeUmwOKkAZsQjhTKsN2GLhE7hAfAHXJC4wioUK+dMyk7RlWpjVbIxEtuFhI+cTI0hRFj4ip8hFjm2h2YkWjPRZFqkXhGliOm49LtuuAL0XeEOYxLIiTYvIs8Isj4MQkDpJKtcfEnXWMFzHSoppF8jGDpijZppu4PIyvJrdjjuY7zzLg5j8dJLp0hzpJG1K5HtVIohXJoo55Brg1at5bRBy5hSQqTnytRajS1fc0sIBrIN8lCVpzauXHazBxdJ5y9M8MVIjyWL0QQeAMcKiUzWcRn24dqJ1lJx8I6hZQ1ZHzPNLzl+EkGJl7mRr6vDUwTiLTI9psGhFCFrY2sPZjTnpVNGZbtfCENg8f8V5hZntObLv5ORx4JIDwKIaovugICr4AE3o9PqgkYDXnDlzEG1OnDgBpixcuPD8888/evTogQMHwCwiIEqMjIxo+YjbFStWzJ8/nwsi7N69myRkSOacSTsxMcGjSy+9dO/evQcPHqTy69evnxw/qXMjWqPRwIZFTYaGhpYuXUqSQ4cO7dq1i5gkJJMkSyEamISuizRRJgAEZEQbZMStyrMCKDI8u5nG3shwCzEHoHJsYAVBB0XPMyygPIpaAfa4JPUQLvGkrUpKJH+gT4QTpB2GMsRQhqAGkFnHjh1jSARd0/MwjZnj48eHh+bRFmAlK7NZs8MwaJw4FmFNzIsEHdRyyTs2rdlgq18zR+cNnTjOVyliCjpOFoYfp9nEeWuWLFk6/+Tkwd0vHaiywDERDO3R0Roti5PO1HjMRyUtqgRN3zaazYklqxfyFk7ujTCRJXky3Z6urEY76jiOj5QHoDu+c/jQCcv0pcYDGUte5+A4FwqIVYl0glZcABsCYHLAJIgFYBljdnGRBW7tjZveuHbNuru/d/dTO56wA59HduSEafDOa9+5cu2K7z5739NbnzEjc9SbfeumN1944YUdp42txOuI7Xzv5K4v3/vFZjQ5nU7NnTMnmoo3rd90/aYbv3Pnfaif73jr24dHZyG1xU50KNr36S99GqBpDNebnRaA5QUulQEUuOYApAAs0EFELcP6jd/4jcnJya9+9asf+chHqDYwRxyUtT//8z+Hk7E9gVyc3/Oe91xwwQVUB1uynLNsamrqT/7kT3iK+Abq/frHfmPbtm2rVq0iBwJ/8IMfXHvttbNmzUrj6IUXXvj85z+PPgjw1ev1t7zlLVdddRWpAIXh4WEEh/vvv/973/ueUhmZESlmP2Qsh3FI7PtQlzFCRJuy8oMQHbVZ5PbIyE+9793+6EiEaIQqhXyaF6FlhSBQq3nvN+46fvgwGrNY3cmsKDE+kbl6KQizYooShRhAlBeWTUxM+V54+MhxRDyM8OPjExesWTY9Oe0yOFcmd3zgratWnf/lL373mSefZzDxiqsuXX7+nOe37Nzx/ElGOt55+/XrN15097cfe+zph9Ki5bjF0hXDH/3IryLuOR567WrHCD/5+19unoxt29tw2eo3v33jzp3bPvNXd0Zp23VrqMeMc160fs3P/Yv3vfjiS1/59L1RJ6GqvBHTXHr02Dhvjxp3onLuyPDJk7Fj10XIGxwDCpwrBRRa9b944sPTldl918OOHnpifwUssJE//exTMN4V668Ii7pvhUyisXN/2B69aNGFjbL+/LPbRMhw7PNWrrjwoovg7c3Pb7nrW3fB+W5pr5iz8pYrbvUNb6g21JnoBAa8W5tlzlqxeOXPvOcDSC57Xt715JOPb9265dktmwGjsB4gy4CYYA3wNG/ePAQlMIJHCrW0ZbtrOAc1fvEXfxGU+f73v//cc88RH0i6/fbbqTbIBa5dc80169at4/qJJ5741re+dc8996DfkeEHP/hBigAcicmZOCdPniQHkt98880w3qOPPkqJa9euJRptJwTgu+KKK7i+8847v/3tbxOZR7fccsvGjRsBQeoGMEE3HRlBjFJoguc42siVxdj1gJocl6U05kMgR5TE2N2pUivqIOl2YtFnOXin5ENzaDjQSW7UEx1Uo3b3jRfWyeOtMnXTFtPHA7sK4um8TL3jh6fR49Bdd+/Z2YxOrly7uHBaRtC+5taNF1y87KobLilR0ZLJReeNlEZr974XEYv8msiJv/hLvwTlH/rBQz/a+hwCbpJ2PvCzd5Rm0olbjz356HRnfOmKBfVRhg1QtbO8iHOzefX1G9Os89RTz6jRWORA59iBk0YWTp0AoWpW6U0dy7OWM3myhQfMuXbUQboBBYQCSiWUC3EK0gcij7pHNEDqQoTH6ZCh7HL/xN7x1onRxpzFo0temn6hURvOM2f1hRc1gpGnNj9KDlHZckL3iX2PTyXTL7/4UuqjGVr1bHTHvm2/9qGPXbh6w9cf/0rm5rA0HlhmxOe8dvHGS48mR/7+a3831ZmSJbHsggiyPFZeYIJGukCxguEV++LphYEHRy8xtyN+gEQccC84AnD83d/9HexNTPS497///ahsPKUhSEz33Xcf8tTmzZsBBUJg++ee3/qxj31s9ZpVSJSSiXhOYRTK/58//S/cfuITn/B874//+E+R0ZC5RkdHl5+/4sUXX1y5YuWGSy4F2v7wDz9JhmDZs1u2XnbZZe957x1ve+c7Nj+3FWkIAw8T8/gno2GhjUMHGJakpak8NoosDXID1Lnvc19MZTkHbN9hqxMP18Is6oREzhIfxSlXq5FVMm7oug7DD5brMc/Pq4woazEE6diMXKTokiCAmdbaJ8wje6bLtodB6tj+ZhnVx48mjE1iA3tpx6FrrqsvWrLQcBNxPhhlTDeet3Qu8Ab4j80eQrE7cuioY4ZVhjjY2Lb5wLe/dn/cQjrOX3hu4R3ve+/cBQ38p5CwWp32tu07N1y89tobrrj32w9ZSYjSadfb562dnUTF1qeet40Rk09W5k0fjsrJYHx/BxMeBD66O14wEhQxlkSUYGBRpMXBMaDAOVCg23WU5R3x4NQBVsHq2NMxOWBFkn5YlM889/Q7Nt2+acOV+x/dn7TTmlm/4rLL8dja8sLz7aJt1rBbYzapXj7wkh1ix3bnz5k3d2j+wtqSLClr9UZtqNHO2wwvYY4J7TqGdqNWff6rn2uXU1EQO56thrTEMiX1UAZartEHwQgCuNCPOANZuq5cEA5acQtyASJodpw5EF7AL9Jyfvrpp4E2RJVly5YhqqxcuZKECGVIQM1mU8efnp7WkYmJOIZeQ0GIG8QnMtTYtGkTSbZv304gqEf+QCRAxgVFUw0X+zoiEJKRBnqsTwL/WOOx3aEiVmAPZvdOnqVm5dUb0rQkqntOHkdYpYo88WyzSBOABwu5kF5p6JjPsXJTK0Q3nM9wccvLnFFVauu4Thpl/+WP/pKaNGqjSZzt3LH79373D2v1gAFH2nHk0ESeOmHdy8141drzSzNtt1rDwZzarABzG2+2Od3mY4W3BRIZAwRf/ftvWMlQw52dZa0d2w5ZVgP3C9afcTFaxdV99z5y2WVvuPq6K++68+66NZTl6fVvuhowfurJrTVvOErF2wJbwbFDE5/8gz/lOkmrem3oO9/6wffvfVDGEBSc6xc3OA8ocA4UALBEK+zqgUq26ucCG4M/qDMMR+MLCv9sf377bZfdvm7lWu9JH+ZZOnvenJGRvcf272nuN/BXr3IvC8KyvnhoyQ2b3nT+ovNcz47KDoOMYYQtqe3ZQdRMGmED432WJYHvP/X8Y+2oacwqsTTb2GowUGPXVYeuBlwKHIAXhMGT3OpwbrkgnBDAgjhcgEcAChIZQEAgEEOgtKIoli9fftttty1YsIBrwhG1NOIQeXx8nNyIRqAuiFsuUHDIhPg8ImfyxNTFNSLVJZdcQuk8xXqtSycfBDHELl0xGYvDVbQdVQy1ZThmIvo5UYa3AkYhfyorN95wjXh5BQEjrTQau5TounGMMPnEQw+JS2aaI5sxDQGoY+xA3LtwZhcnEmRZwdN6XZYJhYw0B5coMmu3UN5xH6HJBrakMKxhsMdfl/HWxnxvbN7IxZes5WXv3PHSpksXnL9qqUy9sbwD+/dAc2buiGc8smaZ2ZZogpjJp9tIuMi9HR8niVbJSHHrRPbcM3su3Lj02huv3vzogapwL7v08qp0Hnv0acYXMVHhVKyUYsYXhIo4CQNbMlSKrmsD8YnTHdrRr3FwHlDg7CjwusI53Q0OAhMwTKEucYP4EnUilK+NF79h3bILt21//uoNV5l5+cz2ZzpWjCRRJWXDql+0fP3brr8ttGrbtm7buWvnwfGDWSv/zZ/5LZbhZbm/egDnM/JYg8FSYKZIsSCnMAkjUSzvoIDptBYAGYgS1Ecfpz3VeIGFCEDhQJii2lyQP9fgFwYprE7YnsgE8/mWLVtefvllTGwf//jHEZ2oAtE4yJYkGqEoiAtuuVCeU+KeSrbcktvx48f3799PrYgDZYhGWgAO+1coYog4RoimiRNnLv5aEAb8Qiay8fdQOIjzLWORRhCkBlQVQxvu+TiA2WXh5MXO57aeOHTEk/FAckU8Y5RNRviooC4UQYURVBwpqAAzEHIcOH1XJhXZeBCYOHmI5y1adcbYIy7pwcGDh1fOXbRm3flLly1i2PfZx5+/fMP169avZrzPtoId23fjLeGyZDLtYDqOI1OmaEJp5Lhz4Gdny6gANK08HIUN7wffe/CCS96Lq+qD9//pytWrh0ZmH9y/d/LkdJEGPqlEt2YSgwwHe37IaEEnzkIfR9yYD45t+8rZ47R3OLgdUOBMKXAaYClpS6VlcAcGRX2j6/OJFNbBQcgzHt/yxMUXXnLDhuuObDmw/rz17bT9wksvMBzOwPqs2lh8JL3yXVeVRfLFb351x4kXMqtwq8Ap3aRMZ9WGK5xK8ZMYauSTKSaeuEj94eG0zCNcTEOm8MlUHhYA12MAUmLvkDr01MCZ4TyHk0EEjNkKPgzEKtHXEFlwCDKtGq5YUfTmW24lwt9+4Qs7d+7kSw//I17Bk+AUuYFEXGuM06hEtlzwlEDcXzEVIWbyt3f37vOXLz988MDf/93fItdQKxKSG0VzBsvwvvTFd0oUOYbwxFzHMAbtYOYR83SwtRtWnbG/qLrrU3+Dm1gnFqdNpDOUPQxI4jeLp20cjaCF4RYlKcUaRm44U4kXB3ojcmxHhkHQ0BknDAIP4UVs+SiKqIdJ7jke4dSB6tVrw2nRef65Hcsvnbti9TKEssljkwf3HccNbPGyue1O07S8XS8dNApbfD8R4fB0iPFVQ5vElb9pBoB06vENSFFqPYZZ8J84fmziwMHdi8+bf8HF8zZdvoEaPnD/Y8iNjhtULLFaMg3AxusdLI1jJuLwIZOhTr59tYDZAswrOq3LkcHgGFDgTClwCqFenUKzNN9YuJqvOkaUtMqPRUf2Hd+3aHjRNRve6Pje5u1boqKNHoAGEcUdVKd5o/PG/Dnjh8UxChMJZp2Nl2xElgECyszESbI93fZdWKEM67Xp6UkcBWB4cSTCExGbDbymBBZdn9PgSWoyA8iIA5CBLFKWEnmQVqgDccgTqCJPLjBUcd63bx9xQBYiIHNx5pq0PFLDW0IKLaMRSExuoQAHqiK3ZLV161bO6IPY9XVMpDbghkFM3UCyUhWUJtAOFEtR4LhR9QRGQ2SjvKqVljMd89dIijq+WpNNs9kuJqarZjufbqElmklXH9QuS2Ql3liKNkh8VI9Wg5jUrd0WdzPcGjjjdy4wytRphcWY6uN2zLzD3bv3MPF8/vw5gRvseXm/VYRT4/hnuLNG63GUNKeZ4+ngHodlkddMcxCy0oRZOUzKyR1ZKgYMFjGbP/LHB/Xef/g+jbrl7W9cuXZ+s9ne8aNdiMj40tJAqoHXBbMjmLXDYCg+t1Kxgi8f3l8sVojgODgGFDh3CvQXDJEs5FOoOE3nB++xbAHfVh7khShZqRnj/Pn41kdXX7fijVdeeyI7+fD2Ryvm/1XNGGyyndzO9+7df/HIxb/6rt98cNuD/mhw/nnnzavPNyPL8MyaN9LKOgVjSwmmZ+b1lqHlxNMtZ4h1lmBCLNVYcvSaoz3Tu66Kwg64lKMXIL/cwsDod2AKFxplqDZIxCOgEGkLTDl8+DD+ouiAjzzySFCv4ZAFW2qM00jENa0jiYYbzjpzApmNQzn6vH//vgce+MENN9zwgQ98AMsX1n3ywbCFCf+pp5762te+Brgzfkc+SrKCd9X3QNQkI3CZLs7QgaiLSG2M/XWa00GjjmNsnKegp/jA8RhvcuWXj6leWijrXGnhCt8uaXwUyURuqg32korsuAU9EQEBU+bthKE4+gOdRABf8G9vN5tZ1BxuBHZuvbBtt2PWXtj+4lVLVgHsB3YeQh/E8ITbPEvzIQk1WyeH7NBl4jojtmKJQmXXQijSFrANcHsHD0QnT6Zjc+pM0Ny8ZYdr1lhFAlTCFZ5XAsGZYtizEqIgg+LIoeJpLDm98g1KGwfHgAJnTIEfJ2HBALAFXR+WAAI442pYutmOfT9q0bHt1p7WnhPl0dzCVs0ix7INRVrF9z5wz4GJw+FI7Yabb9j4hktxh//afV/Zsu/ZKetkM59KqgT+sH2zaU7zF5kdJxQ/cDJHbcyESwU0+5AB889sC7c6REfgESIVZzy59IVUUsENYghyE4/AlM985jMM+fHoxhtvvPzyy2FjvKgQl+BzIhCTC50zcbjmIBOazwHjAWdcQAoUsW984xtf+tKXiAxO3XTTTVdffTV+DwAiHl5khcrGzBr+ZBmoUz75An8QkDwhJquBucxtKnKvUUsZnzPNGss/sFKNuJvygcCK5LAqggg1vQOGn3mAS2iCCpJkAoCuLTBBKRxc0CJ9La1gMmJuTRyJ/XysiOqHdk/ksblr514zq9l549DecUvt5SWLOuTDRRL62JuKFJMl+7wFXoNVZ4zCt8UXQTmFMX+wspPEvOfu74u1qzDv//6DtolaynJEjrbfMdJClXQFqDbqtK4hYh/Snw4fnAcUODcKmOsuupKUyq2hm4P2w3pldlqtEW94xpM83M7TBqajZm06txNx6GERBmbkMcsWMSFhOL2BM6cRpFPRyYhJawgoKBxGlXhtmf8hCwRg74EHzJwPs6z0xgceWYJSYNsfh6GvrJW+e+34YArsKhyrDkAK30sO7OU6hDNPXyvDMwprNES2As7w1dKwzhlwYC2efrUwXCOh6HsuOGQFLPljgoxcY+sKcxbo7JJXJTx1rZRjna6fJRdiAtf33fOPpZhopvjRsy+hLNKnRuvEOIbaKUMqOFrI/ERcEUA2eRHQ38XfS70vrGhxaTGDGlWdRXBYlqaWMLfaL2Jj6vJrLvrp267ft+fgZ//8LjsfMktW5pB1GVX1eMVMqJTaQQAx4KkbMewhgJ1W+W4bBj8DCpwRBc7SAiod3UidNLPaYkR2kG6k28MJPqvfoYRg6fJyPK9b5bTL6gF523SZ35MxJVoxCSsBkI59wJgGLQnVAsrCt9LTpYtrFei1MeiMGtSLpA093HEBMAEmjOKpKSOismk403F5ym0v3Zn+khVoRbbaEIYQQSYMq2Fr6marjD5d9FJBCqpe8W1QGD2zxFNIpKghj3QO1E/DyuloNTP161ybJXM4PfxSBI8EQxKWiGBJK8ERQRF8cXkpyJk1ArhStBAZ0cDRhP1QuxDjxFmH0ZXciBsjxtveenMaFd+7+xGrlBVmFKySjvqr1K+oibxoFTCTGK+IMbgZUOAMKdBd070XWzoW4pK6Febps42OQJDMxmXwmgF9tIDc7wsAfF4z/ITok2ATK7phxC2cIA9NRqD4esMGfNLxslL5C5sIG7CMkvRmEdBgFexXAmbd3q1LPIOz1PPVB1CiYUgrU3ChuM9j/VULBPbjKyELWex0k1k/Qo/ZTi+FfLSlDNmNIrrFodCdHlFyElamCGm73NBWHU2Hv5ZI230LfRYXuslQm8aDfhnqTWlA0W/tdeQXtXCzCHwqG9G71YsTUQiaCypiFhfvFeZqI8HlFK9yAolkYySENHA/M1q33X6jWY/XrF9kW9OH9scHXj5pVbWeUEytRHYj8x71aCqjoL277tP+7eBiQIGzpsBZS1gKevDCpiPiUcqoEFISMgVjSWgBfKFlpMlkyV+5xmaDUUf1X/l0CxOqrzFsAzaJGgKzwDkE8hCF4lUSx1m3p58AJNIHsAWaEN4XtQjvRzsH2aqflgugihzQLrkgW0xKroBC91ACS++6F6ggW0k2QjXIIkLrqw/N9EIc9Uzhy6tj/eQQVRvlWgHo8NIku1M1pAoqZ4EkeRei1J36SBGA9qrwiOkE5eIlS6+48vLSbVZO54Xt+77w19+zy2GBu36GCuS4R+RSsNVrmPQWjWU/ucKDGAMK/BgKmGs3vEEed6UqHXNmh+5/LUUmUrKAyEpKlbOcnMVDWA4ZeCpR83BVt4y6fKZxITVxfAaqKlvPiqPnM95UyuIQXJCKyYkKsEgF0yOfESgSFlmd+iT/mIr/pEeACAgFjmiLFbCi8evV6TRmzUSxV8d5dYg2gZFKAxYClwYsDOQ0Qh80U3O/DjiFBFrz7UaaSe0ZaKGe9nGqx/pCpW7u/LzirZ0KFrmmf5yKQ8WwYfEeZXlBVTeAjJWqiC72RMLUK5C0biEOCuqjwkukhvKaWFdi/rJGaXWOThxrt3j381noH7c2MtT11JWUxqoK9CuhW6gsXDPkrX4NBxcDCpwxBc5OwgJuyJlurlQMdclJARleQiyDx9RmWcYcnGJXCtwMmb6L2KS4gbPwhkIrBXzd/iycI6NqIvagPYpGOJPfSHZOh4YSralxDXKRjcYmLvTTmSFnWwiaIJils+JMQVIKDlyCjJKZ5mG5UkcXudQjiEDKLhv3IvALq5NqBq7Jtc5HQ96MuD/2ktfUoyEFklbliU+uktdEkmLLCtHBpTpigZJf+QiJl6fgmq5dYbEQqrxNnkjVcnP/zsO4u+cWJvaQiTw0WdWDpnTfprolT531KwO7zwY/AwqcOwV6gKX7t8KjvoAgueoOqfMXpuFLK5s5lRZrUGLukOSMErJyudrxhYkk7ISDCR5PBYtV7GRiCUqFXEgnhjcU84jpnQBVENpUd0QJm5fik/85vRyRhyK0eCVlKdY6Tc7qy1Z9/CLmGR7agEVkoJApz3go0TQaKj5Xqmnq9/TMNG3hby5mItpMkNJpFIbI5UxySBL1jnr5atDr3XV/VYoZmCWZSETenIwD8tZYx4FPA58NZaqyup2AaVbyFLskeJeWDCwy4Z03x0gi+jSz0JOUwd9mB5VQ3i4Tw2m8iVdEXyXsVuBUrfSLhjSngrpxBj8DCpwLBbp99cyTwjL0YfUd1s4KfIEFDbBWoQwySYZJrnyz4QZuuJac1TQ1UUJgGvliywdbeE/BFtcKx3jEpWI2SYOeKD9necAX3Rw6iUxd1miiHDm7wgAZatjq50ztOTR49QO5EFZV94qxRWSYWSXJWembRFH2K5OlG2SSOOilwIJ66DaiCpEP/zUqqcBT5SiCgB8iEwmBdCrVDI1Zyh6kwb2bg06svXz1NWehvtxAgS4RQB/K4k/5UghZJEMl3PVapmFEGbDIW3xEuz4WJEHoVRmK2MUbZm8k27WjVtv3fOzznTxmsEHJmHytWBhav6/+6+vRinapl94lpdRwcAwocO4UYEWAU4fuv6fue/26GyK6GwudyB1swPgiRiuwJrMTlAv8q0T0YmUHOEQteMRUjx57qAxgiK7YoGQuxUuCApTSNQYLhBGFbIirKiY1kg++CuGsM1DQxp1E0U+54BKxQQKUiurg7SjDaiqFDN+LJySRyFgDENeMD0g6InE9UwhQSEobqZ7MVFSMSUaaVr36yM6kAmJY9JCvyEfa3zVRy4WkJmsZj9NQJM1QbdFnqiHYrRQywArn2Z5DloxIUAqoQQSpmjqgiWSg42PoF4xQRainuhQVheJUUQKBeCVIHJ5SJZZBZfRBKccCkZilqHxPIxQLIylsI2EZ9hwnT1bzwm7FyxQNUYhFnXjpLIIjc8NN5lcTSv5MGOSd+9RWVm8XIqnFUqGcKhS6dd+8rpyirWQ4OAYUOHsKnIWEpdkVL0Q6npqGS3eXHtoFCPQE4UzF3hIsHCsfZ1nIDuDQqbnusp96pOorwoX0adXXJQRe0n2da8VpEjjzUJChObYfLElUBXr5qycqH2F+EWFUnYTLTh1SKyXC9CqsHqksBDU4pBlKodJZEaLQRMWTtkADVUeaQB66cGUq0jWXUrssKpf9QzGvDtFFS7ZkpcdJVUNE95b6SbOQAKmJJJIJyiqxzkrDgVyL522Xyiq5ypx3o1uhkRs9UCCYGoNVkp+GNgZA0Pgojpz58pC9ssMJoqkWSrZSPQlXRVEZAWOKID/eMoGC1EqY41q+OgqUSaS/BlIZnVbSD44BBc6VAl3AUhBwBnkI79Gv2fZXRpREE5BejjGriwiKwQVyMHKxviUxbTbZE+WQXQjRoLhWn2sx8fKhJiIVIJCihTcFWcSSdepQvVweqQsdUz+VVU/0oThYcZLkIIwk/KGeUqiOozALCUyy6TdWMbPOZca5iy+SjpjIHWKVU1VU0Kzz02d4VMplJp1IV0SHQSXgFKIortaRNeBoa7QOIQFrniNnsXoCsgvjrQIZ1JizSEZ8FtiIC7copdsJ8+O5plpELGiv4EYLTGL/B+xspD6hFWmhhBLfcD0RWxXhEoWhAV4IReABShHIwgyLMN9AvihIzwx/gI0kNxM87ZTUSSquEPYkgMjUTSJQSdlAl8pjF2NpICIhUDNqzDI3kaBVyR5htEccXNjcQsQ0Vaduywc/AwqcEwVegQ4/OQcYmF7Ons2YhWAgvsbwJr1VuFTrcnRoEazUma7exQu6uIrBSSIoNlelgVBqijC8J9gnXCcMR+eWBHKoX2EInkhCBQhwqRQszxWUkIZHfO6Jw0nH4aaPTVyDVpzJR54Kp3FI5rpu+lqi6DrrErlG2FCCj8YsFU1AR/yVZCysVw3JTeqiGtyruwrkpIMVvvSCZvxKfbqHjD9gBlMhzILCD1dUcLKjaSIPSUaSufauVQSTR1RHITUpTxUt76dHfwE7yM6ZfEA6abzkBs7SCCiA5isrUqsJQzxjoQZwizwVxmkQFCMZI4nKdibvgp4gMFXhEiGNpqqiqouOKWc1yVm0SK6RUSEhxSllnLiDY0CBc6RAd9ccnRoO7GfTY2MJkI6oDlZ5Y+FjcVdnkEiZivhmM8wnyEAgWiGdk3VJ6MZKNtHQQVJRIYnEiueYZqQQ4SWuHdF7ZJBRSQfqgXR3KUxXoFtwrwKEK+YQsQSgE4aS6slJKqCiCVerzIUXewklprp2RIKTKMI8JJMM5NBtVwnlVkqRHOVQTmfd9pIlTKp4T8XRMdRZl0VCnupD4KX7SOWnG9Z9KNBBOQpkJQiIZrCRoNTCMihTACChVbIIPZeUSg7KWaGXOUkEenpFqAW3uhKW5NZtmWCH5C5QxTcGmUiMj9SQxgGggBSvRj3uoolutJobyAuSf9SDQGm0oA+berAyA24N3VdtFA0qxhJfhhkhVqu3JuohJkPO7PEDUDKhE79iVY0uQdT14DSgwFlT4CwlLPqmMl2z+hGffumd+k93euGNLj/Ru3EH1VCiEIonurPKF5j+K/zX4z2R1JTySPVVjz/VjG4H76YVLuxikAKpXp4wqMCcmlmNdCDG/lOPdGbi7CpmYFlzTz71UpBm5RlQJZn2ayUcrtIqHqbO+o5gCYVj1UM58Uj4Vx8Cg3JIKhWzL1gphNIP+2dS8ddNIhUTHANMlV1PclZZUZroYhKTausK8JB4YAGPTmWnLPH6VslitFG/YslbNQRbFaofmMLHQx4JUEo9BWUEljRV0ODklpw13KjmSIMkpNsiQTNoKtGwEKAv8kiKllQqOW0RgRqCq3AhoDRB4gyOAQXOiQIyWf+0hKdBxmlPuRUu6nEv/V5YVXhMnHv0TFrNzMJ7Ip7wCdeeVoJTdGvWzILDFZOQUHBET6LGo4fAPi7oTE6rnrALmQqXqnrBvRogaEW/SuqJbpVE5lBPSYLhTL78wqWciAK/w04iSqizJBIgY640ddYxJX/+ujnp+CoHiczRJxcNUXUmJuggzM+FRhwVkdBuJvqWszJbIVUxxKoUKzH0KJuUxCQpOC6CST8TBaZSGRt7l+QvTrqApQJHLIrdIngqcze76EAzxAonspTkxJbNjOWKlIR0Rp15RMUEVkqfPFnqFOog97GzqyufGl1naZTUt6zhu4LiKAttkJ1MnEa2UpBUsgsr9jJNWwxetIiC2W2DTwjrC5ItK0bg6qVRj4eDY0CBs6bA2UlY8IjSj6RTYq3FyVC+oWCAzFsW6BHWAh2URibahOJdGWUT6UY4vAs0ipvpxDAKCRVIiZAivKCiqajKlAMj9RpFX5fipO+LuEFWlNDHNay/yhkS4EI9Aog1pAmQiVgiVYL/xPCvpBSVqSpLZaLZrFeSfqjqLyWqdhAm6NhNIpmoEJEyqBKDdwryCNPwcQplVGYCJVpN00aovipH3riuJaYPX+N82xWEuIDSYs8WismfcivQWZFE4QfEk5opRRK0lk3ZdAQyF2OW3KrEmhKKbrZ4gTJ1PfaNJhb3Dt4JTPiUurFmaAJagWU56+2xYDVL5SCFSXuEAEJC2bOLPEFhfrigFhTCcAo/6tUIxivwEnKieCLCYbzH7k5FRP7C9aU0AK9uPXVtB+cBBc6cAvbceUv6semUMxkXt0DWrsOl22GHddFJxFUS13WYk7WRXBa57ATD1ajfqQcVmxbju0NqGRNSA1FsjMU6pZnNMuvKs4HklSyRHLDUMh2WaX5s0WAzmUXlKaylFqW0K1nSxEIIYGUFeAmfa5bTdNmRTw61CFzp2i6mZpd/peWyAgSbkBlMYxQRixUZ6k6jiFki3RNhRViDtTThUuFgsKGeDblsAl94rsWG0rI8IQtpkgftkkEttWkY6+dRuuiOKc5IQZGWhDD7l6X1yA6yCESJnQ6bHApWyZrvrB6NtOfZviwvChH4Y6aObJAFs6KIYj6n1QrV1RzpIGDzCLaqx6TmJlZtqqyzZWBqhZnhCRix/xBSV5nI6BwbOJvsXoHrkyzcjIYmk/qQbsBgqQ/ITVG0j9nXuHLJNj+ym4fjE4IHCumk+Kzt+6wKJFU18yy0p5bPOxLHR2NnTlTWfExS+ckwOD53Vlx2jrLbYeQaEVviMNkKMxdvyfIxfYFgfJiAQtESGU0UyUpESO5EpoMysp496CqfLVYxZa3TBgs1Vocs56DrjVtWS6IavMrBQsnSmQfHOVDgx0lYdH2WedJTiFnHUhgY9Q6uRaBql2uWrHnTFW9eOLq0Sqvx5tHdky9+74n7DPYghiMQ/F2zkzTrYVh25AMM0AhkCBzQuRn4ouOm7HRAEKWAfqyfW3lsa4dbYsHS42xETGNgWWQpL3DaCRujswgnk0fAUJdFhInDar0AEjgjK/zGhcvOMTC55RVskKXWkJHtGrIOm1fLpu7C0JbveOsXbbj52lu37Hj24Wd/mLFUDkKda0VZBySlcNCZLVRZdBBASbLYZ51BtnWAg5PMD/1W0oQabmCzg7F40ZsOG9/DxyX7A0IVtC5YVq32iZUHWrGcMGCFoCiBsjS+mLvhZz0PEcfbzHRSa3hsyep33/Ze16sNhV40OT55eNf993w9nTru8Z1A/sqZ9cMu22CjBZ2oofIvB/JlATLAA9IpUUctGiFYiUnJidKU9dS7PgoGjWK1zyzwwyw+UXOOr1ph/4ePf3TPwc5v/v5DhjEse4VZ1foLl/yb3/rQj5584JOf+iZvK/QXZB3CwRcBJfGvkJmhSKoeYwIgocwt5P1hTaeWACdn+SjQS7gr46g5UuvMHtr/vjuuXnbBItttuO7yf/eJvz4yLpUdHAMKnBsFlLYkJiH5m5kF8AQTggUM+qUx+oJTDxsEZrJ9VbZm7gW/8LYPLhheDMQcOHoAb6uL1q+r2Cwl5SteTMu+6SgS7G9H/5WNiwE+9iJkcwJZaNxwPFMWHeYbLaPpjlczwqpdAg0iErFtDBMSZa8DFBOEEDaESd0Gq8WzfFxUsCELK2y5Nvu16vk0YAE8PGto+ILVa9njB1BDcQHHMjywQzOHwb00yiNW8EW8yeLy1qvfPGKOXn3pNQhZoVMjk7RK7MCOq4QkNASnMhZO7cQCkbKNhfA/ilQV5R2vzioGOTstGkERmRAlrXzsNiCPiF0cLNMMXnDIjZYJFU2RcWzERZrqeWy9BW61o8QEIt2R+tLL3vxzvx6OzCf6Sy/uSLP24iWLElppB0giAL9veXWHRVyTNIuQWGWMNk/JXj4nLAEf1MhHm/RASABRQ6fHFjU89nyBNECW/Y5Yjz2PPffohesmfu8/XGsPRU/veC7NJyyjybL19IN9e47neeuqa4OPf/xSM59k7FZsfkXs+mzF1uLLINIq8lwppUsFaKU4PGgtXj5CoJWovaCYUdZDz7YO/cEfXPO2d1ZjY8nExAS7jfXXcZ7Z0wbXAwqcOQVeV8ICYuj6LKoJSLFiOl2NDR2QFlDhfDu86fKb3Nh/bttz33/4fkzmbFJv1YrESFASEDPcwGh1pgJYjnF3q5psTwwNM5MD2SC2fZ9vNYKJbKLHag4ITSx2zmzpyvVcO2b/TpfpIxWbf7IRtOAjNvoCuUzkO/iOjV0Z9QIRkDaYu+chZaRFzQ0vXbfx8isvb93b3HNgd57IVqnAVpxFdoCZN2vURuJ24oZIdC5Lud9w1Zu27/oRXkfIcQAfZhvABKRDBAu9BtPlgBVRo4w0aIREAu9AB6/hAsgiwNDCCndM2V+WkVD2+/FCD3Kx4jtCGZUDI9QwHxUWJVlp0ehv7KZatOKY1aMxHrm1sJMWsRXc8Ob3NcvaoReefvCer1p5yymikDnKCbvP4kOCibBKs5idG/FwkN0IUY2TGLxG3OEa6S7hFuIh7lB/1p5nl4o48YIwiSI/qKF1oswnQswAM3lodwJn6nd/56fqbut/fGXL5/5+d2XMZzVS9pp23dr0VPqxX//EX/3Z2y+8aPE7b07/4bsHw3ARO3XxBRLi82ZFXmQNRFqPuVA0UGmdtmope9bMbsfeGiOz8kUL2uPHd/z2b0/y3qabvJS5KIszow2uBxQ4Kwq8ovco4/ep5EgfeiuaqCU7taBPwa1oKFZqLZt9nlt4Tz37dOJGsTsd253cTOjPLPstlmmbTeh8DEbsVJxXUTDiZ5EoRKVfRVkzcGp80X2Lnb4w7ciHWraEYrcrUKxy4yxm4D1sBOzAzjI2NbuRxulw0Igj2WMZea01Pd0YGVYqquzK5TOLrVmGRX3IHDGalp24AVohhyWAm2GFgqtbCYYtJAPY+qFnH3js+UciBCY3rTwsMsiQbt4WPRTbWXu8yaYVbKSMnslG62zFXq812FG5Vq81p5tQA4M1VjOZyoK+ihRVloEbsqkfSJoaCQ0nFAucmJwBGzGKi6AF9cAxICccGmmlmNyCmGAaZQSlPxyOzH7msR866ZRXtALwoUNtcV/CpoelCE3QxxoHVRM2TeNjgIUwZccKNsQGhlCXrYRdJ3xZGr4NgCKgYpFiC2bbSjvTPMVCx/auoO5QmGedl37p56+fVx978cWjXwCt3IucEg26EDMiamc5MtVq/qdP3v3v/91Hfu2j8zY//Zljk4hLi8rKs82QnRPBKKBW7O2gI1oiKrsMZYBbEqAs8TJtC2wmIitpj401kEGbR81oymimi51gKBebvqy0NTgGFDg3CrwCsGZmIcoLO6Tjs6OMMvRQeLIW1IfNYLY7181Cx/RrbmPMT6eMatbY8MGpAzZGndSre3U/MCemxqc7QFVNlsSqrAXhAuDjYHIQzODzPOIOj5mjnWarWU1jfl+5YDW7HkyeGD/ZOd4OWhEG39yoWTULcz8W6aoxUg0vWbkU1e/45PHjbKMnO7djrsIKHsyqRufU5i6pLfOmgqWN5VYs+00xKwi571jnCHIcG4sumLV02JnFRsfwszvEbsZR3a8fmTrETp9+g/3TsxpaVcSOr0Fo10aDsfnz56LAHj52EKNVJ5e9o5Gx6mZjtj9HHAE6VdzshH7t/JUrgKHjzfHdh14OGzV4ud2Z8sXUho4I3jEqxiI8YnYXAcW2oacfOBi0Mtuz3ZrTGB3yZgdDo5PNFlahefMX2VTMyU/s3wWSYz9neZfKGaL0+fOG586fd7SZHjl6qH3yyKxGLYs7yGEIqGJVb4xOx+XcZauXzl9Mqj0vvTA1cRQcanieoBw6rhfQRqxXi0aMd96ypkw7f/hH95fmkjgbYY8dVwQ0I5Ol6LEkzt+8pfnko7uu3mj/wk/P/uNPj1fVwnBoeOpks4bRHy1XFlKmWnxokKl4t9gqA8AUyU6Mc8qAJZiF2s6KQ0nMdmF21bCMju0tZ61saiFQNzgGFDhXCuC88wrTVT8fzDGwSpagxxSB70ftuFEb+pnbPrCstnIoHXan2AK9/sF3fNios7tmfNI4+qmvf2q63apnw//6o/86b7X/+M8+aY6Gsgc9DqYt43f+xb9BTPu9z3+iNsQgunvNuutuWf1Td375zvM3nr/h8oviOMeBvpGFP9zy4Nef/yJbhHXG2zWnXq9Glo0te/uN7xgdmo1xLKh5U8lkZLbvvPdru4/vLsxs0yVvuPWitzSSkTAfQu776avvyKyULfD8EX+6mvzLL/zFkc5BDFU/++5fGLFHkY9E/7PsTtKayMb//HOfGh6bFSVtRt/KpAzN2oLGovfe+v6x2lgVmUPBELsHbj+07YuPf6GDwls6buFfueKaay699quf/9rVb3rjqhWrxernls2q+cyLT333se+0Ws2hxkiG/U6kKoYpHfY1Ff6U5Q0qwLExNDLZ6lQO0pD7wY/8cjA8Z6IMEw9zuHHHz//SEJvMZ0lQxF/5mz/qTB9HWMq8cNUVb7rsqusXzBpic+xFsdGoBzuefOCH3/0mclYjsLKozXoK8xauetvb35c35iOsofpdmjRbh178zt//t7h9xKsy1wsidkW1hn3r0K1Xm6Gxe8c+6ygfGbbMwCfO9YA0dqvOMJgFbpQ6vr/sy1/64S0br7r5ijV/8enHcLtvtqeDIQ/7oRjVZYVF1uiAjIhWsuIZ6kPFFAAAQABJREFUqzRi28LeBWDJaKGglciX0GBiqs3+FwEv1jzR4XMnfhGIpmrV034/G1wMKHA2FHhdCQvBSttlACxEg7AepFnyzDNPjYcnnUn/rVfdxtfyia2PRyZj1VnsRXErZ1d6N3HNadPLwsCos7sqRmKP77tVM1pmzWw03KE244udgj2+6nnt597xc53h1oMPP4jqtWbp2guHLrh2w7VPHPzhvuaeWbVRs2WvWrD69lvezXahu3bt2rNnz/j0xLrL1ixYMe/KN16995u74bQ9B/c9nD7SaI9cu+YGNtTb8fLOo80jsMjJ9oRVZ8/RiLE/Bvgee/zRefWFNAez2rA7fMlllxxrHhsaGpnKJmzcB8QLyRq2Zn34jo/ip7l/38F9O/Yi3F276bp1S9b//PwPfforf41dClOal4R22/259/wsNNm89dmJ6Ym1ay8YXTB6+bpNz2x+usyKTjTNnoLY6HgFwL1sj2rZadSRmvh+s9kMa41I1OBsy9NPhMNjsTe25PK5VVZsf+5ZK26SasiuYrZdBgcqf+VFGzddf7NbG378maeOHjk0Nn/pugvXr7r8eiccfuRbX0yydlEhDS5983t+vgpHjx+f2rztSRTcN151VW1s0Qc++rHP/+d/z0BhxiaDaKagiZXfeN0a1+7cfd9LHRzonHrc6bhew2MjQkQ/r4YE6tu1VmK+vDePo3R0Vn1kyI7becw4Cngmzvc4tItdHUGVUVRUVSTHqfGT8sUTsUlN88IgYODPhb1quowRATHci+LNsEHGqv/EGhwDCvwjKPCKuYSn5YN0QHcnkAH1FO3GMrbu2vpCvr0ejVx/5Y2VW/7Djq+3vEkbzxos0Ywjpi6DeY7LVoV5y2oXNrv+sumneAziBS1aCdlUue8FBDJvh3G3v/zaf93f2Y8JGSeD37ntt8bGZq1atObY9qNFmaNvvuvG24f9WV9/5MtPv/C0GpbKn33giaEf1Sfbkx03ZgHf3ZO79p3YO5yNLly4eNWs1U+8/Ojuk7tTK8KARbXR3tiRDHv0U3sfZ9EFtNGwCFe4qy/asK70GHNsYsZi8JGca9bwbdff7sTOc4e2fuu7d6HbeJX/7F1PfehnP7S0vvyK86968qXHseL7VYARbcod//y3Pnt46jgc/PCLP/j59/7CooXLVi5be3TnUYZB0a1QkMTerozk8HbJbtAsnVzIUAC+BQhHLDK144n7cXhoOrNWXnKNb1tP3vu3jWJa/F3FoQkrnp+a9Zve8tOsNfXAPV/d/dQPzTw+4Ac7n1n2jo/89vL1m3b88DvtY63MDm982x2ZO3TkwP5v/u1/Dc0Kd4svPfmdX/jnv+nUh99w45u2PHR3aOesrV+aSVq0RueswFfsiWfHk2J1VoZgK95z6IzgDtvKh8oFFVjG/2rX8eaqofqKlbOPbz7awNBmeJEdymapWSo+ZV5oBTXGUgWafcY9aJRskspoY1XGpXGy5p6sZ61L1hgYGA9NT7MjazLZCYKQeiij3msL9ad1v8HtgAKvpoAMVf/EQzs9cC5shCmccwQRuI78FianTtBM3ITBOLQtWJMPcDtu48iZq7X8FKP68K3nMWAlmgi9la2CkyLaun3z4cmDES7XtSRzo12Hd2PPavhDgRnS+xctWtQIG8dOHN380jMnzeOdsDnpTUR+c9/kvk7VAYywjeGCkDKS6XQMHDbZYBifA6fZdKam7enEjWOz0ynaMVtK14q8zhKZnVbVRFJSzcEEgwWISXB4iNm+4Z0/d6Vv1B58+P48iKN6cyqcOFIcenjzw1Zhb1h5iYOfklnmceZa9jPbnjnQ3h/X21GtTdEHju7HC2w0HMO/DLuVjREfxhbXUrHK03ya3DfcYMHDXI8vJm4Kfhn5RcKaB/z5ZRyUrVo57VcYp2TCwJz5S5nBhIPuzi1P1av2XDf22gc6x3btP7A3t71lq9bYQaO0kdLm0Z77/uEbjaptNQ+MFBNePPHs4w+TdsGyNbHJAIKNmImtDZfSkM2eq3JiGjlymA1TqSB/MvtHbSShugHv0MO16/Dxcfx1Fy+ZY1uxON2iByqqMerJhwkXMJn5g+KHWyljmQGlYIBnHDhxMAFYnV/+6G3/939897/9+LswLHz3gd2tTjw8OiuOI6zxqtCf2OMGEQYUeG0KnBFg9ZOKbUaEfHHJwYaB1VsssOJ/w74EDGllCP+whFvZocVwOd7q9OZ6HGVe7liRWcUMc+FnykBgYoX+dNRmQI0+THK8mY5NHYvzNAxrqGiIJGPz5yR2vH9i71TRNGoVSGTWy8zlOy5AwNBeaIVmZNXNISQjly0/c/YCRY1lJV9G4cSHy6ISIdZuGUwUJ6/CZIBSxrUoEv7NHC/1w6Rey+vop3UrYJwzbsneqDLHyM+L4fylYy8idoyMjGTkgGzI4F1pRowK0E6UJPHRMk8cP8m8uxBQwMWfoVAZGZQaomehCXY6HZiW1H0azryAdEhjMr9IdKpT7wJfgXnz5zBMcejAfjxOy6RtJa1hh51OoxOH9+KuMXfVBSeY7FhrMKZZs4vmsYPgRSOsmVkaVOnUwb14MQzPXZ67cwx7ThKzBCg4auHdzxinDIMArgooZToU3rYCWKm8WfHCV/NrcJ21jaDuJki/zhDfE6tCeaaSCFF8Jaqok7ZbWaddJLykhAHePKx5tF70Ste44or1i85ruH48dTLavcPAJ3aiOWFSMyN6PZvpTLIMrgcUeD0KnGKS14txWjgdjm8tlgrs0ML64oYDFzNlAyTC3zFDhArAq0x2LfQtP5qO615NluUrrFlDYyJrsNiSY4g93sWtSyQXHJIyA6dNdCnsZYl2/uJ7Xdh5UqbYxMUQ4xiM2SHHiX8A03oiJvG6vhHg++UaPq6tKFxpFDP8JvDUOwR9wB+D/afxtAJA1cCa+AKhBeHxhScrTk0yGQjUxOKDmcU23Q5iGSP9bLThYSgWtyqZQYn/l3gT5DhhoO2BScwDoP6YwMjcyMRZlNZxqw80YACLtnBByGlk7N0K7IMfTA5SmAV0idclsqPQxjR8vNNcFw91Wg3WZykzjfNaLYiiNmCHTod5jMyJg3kpiaMQ5StBj0S8ZQsfVHWmBLK7j8HAbYy0icTJpJ+AVkyruYrUQuBV+aarlygyMK+qmjNS43z02HRuhCnfJNxeeVGgqzSE2Qg4iiXtVtxpJ4HnM1lhqB6Kys9whz+c5O4v/rP/85//y8898vju2aNz3v/e1bwCLHocMrQ4OAYU+EdQ4OwAS9AK1pWDebD8IWjJLX1ZDLMOk98YwMal0qubw2ZsIFiN+ENoCcwuZErH5OQ0vRYvUGQzPLpgHpzaGRhnwBuwgxXxocJfVPaHNssT48f42q9ZdQHeoSw2zp46vsOMxRLeMXPGyEaKTu6yHCjGMyplWUg0w41hTG11t4bAhX+WY3gM1CFMKLxAbEMCQnNhsq4srekgkMkyBvB2kVRZq8L3PB0ZHUMHnB2OWXh3p8Z5S/ClSDGuy1RFVjvPaR3erQiRMoYvDYfbmauEZqmnJco0Qzm0DqiRi2iEcH7NQ83eBDGoEXFEPZQ/o9i9ayewNTQyHOOAbziJ4RV2iEvu4uXnJZ3p1uE9s0xQo4lFnQGMxpwF1GckDEEr/PTnrbogMuxjhw9bVBgfkTIq8whf2nZS4Ge/8rxG3W9bRixCojhQ8R6RlGXCVWWlHrXI8nljwzRhz97J0hmLAHmft9zhT6ZFszYNXwB1AKlVcjLEAYMvRpw2hubGaZiVi9vJiiPHRj/5n3fyTVq5qg51mPOQqvelHE1fkxKDwAEFfjIFXpeRXjMpvY3uigFbzMN6V1SlHBEZIBPLVBlFSQsQWbvsomFzzIv9IPc//P4PI7zQ5bFY44bOFB+sYS7AxM7QCGHgk2kjtiAV8SnmjLxAhgcOHUKegtVvufrWWjbst2pj+dyhaGT17LUbVl2CJ6rIOyyAEhiA3URzHHfO1eetqZU1c9oL43o9rdvTzKnDrbMu04YrNKsUVVT0VgFaYTnwtzBkKCCyOjv2b+fibbe+Nchr5qQdNBuLvOVXX3gtldm6bTPJ4yI1Ua1YQwUpSAGT42ASwp8SfS+vXHwYZFxV59zHrP4tF699qMqIYohfJlIOyirbejALcmoiTzu26938tncxxBo3Fp+wxuatumzRwiWhWb78/GZ84vPW1OSJozTszbe9N/VGTqRu0xqpzT//squvKcp0z/ZnhqyYlSB4YVTMsv0tPzpmeMNv/6nLyvgA8CsvRL1QvbAit3x3XGt6ODTmzJlTmuG+w9MZu34x7slMJ4FR8I1GILzRCYA63oDs+JWniY2bvRu0o444DVtDpjXf8FbwRpilaBTNGqsl81playXxexgcAwqcMwVe163hNXOUFUcz389C9k+B2+mxhIjRhvEiRKYyYXrNzpdfvGbFTW+57u2rj61s5RMr1q2oYnticiocCmt+I8754CPgyARABBUWARaLtAnWBRY+0IAeo1RxiezE2P+377vrXW9596Y1166Zf/H+nbtx5Zm/aPHYklGM9Dt3/n5eK6YYjSyqhj+89eUtl2y4dN2KCxGpDh05UqsHCxcufPzZx184tE2m4GEaBmhwrcdL3GEFCVmTPrOY2J3kTpJZEYrddx78xtpVKxbNWfQrP/Orh3YdxTn+yo1XY5Dftuf5HftewN2MudZGWEyX04YojnA7EiYgLUvXx1ZUymoOAq9gGZzcp542aelzP3DGBeRDVNNCKyIWoJDK+usl7iHJN+66863v//CqS66cvej8ffsPIkYtX77ciDtbH34wR8HLkyHHvvdrX7rjn/0fw2OLb/+Xv7d3727kvXUXXIDhrGwe2fnM92tGm8meIfMNS5xa/a/ffeKa60av2mjOrhmTTLpBPlVVEacp4Io5mmbumYdvuWmFUx96asvLzTZwbHgug7osN18XlVj2LkQoZAYSlXVk7jgY7tVw7ycDVrzC7pYkUcDrq1rhELMjmA7P1KCWF8jCGClzQ7HZk3ZwDChwThQ4u64DY2HNYUywHUxFwbRYdsS5mRVHRDES+cI17n/s+zsO/SjxOotXLlq1bvWBo4f+5gt/M56daNnNVtbEuC5DeyhwYZrX0rQUJYtPdxx38E0vfJm4hyMVeiIe1DsO7Pjslz974Mi+er122aVv2HjZ5ectW37owKHPfe6zmMKYmWgFlRUaTMx5+fjObz7wDSzl512w7E23XH/pxksWLJrvBy5IQc1QBrGCoX4yuJl6TJyLUoY1mUeNSGTjCZBhy58yJ3Al3XN4l9/w1ly0+sprr4qL+KEnHvz6fV/vwPZYdhyrbUaph5NrwoIFIlsBuKhtSI24oTm4LnVYSUKs8Up8Uzgspx/zXpCkakW7VrTw8EQTVCom0UWBZArgod3b7/zS/0inJ+aNzbrk0g3Lli8p4vbj931ry0P3OkXiscgPTvfTR+/8zJ9N7HsRn681F65fuXpVkXYOv7T5K5/9lM/6WizXx3pUCWs3pEFt/t4DxsFjruM2f/qdQ6513DbbGB5pAXKTwkpQcjwMOu95/xtbce3rd79Y2XN8bziVtXowuotMikSlxgcxASKPibxlOwFze9CS+fDwKpksLTTAvcEsG8MNugQmSnDRs9OEMRbexOAYUOAfQQFz7fpNZ55crOBOYpfecGcYczXIBQSoIS4ma8j4vS8rJMgKbyPDsxzfm2pOxVmKPOWnIVIYDhCCSjwuHcQ0lAu8GRiSowLk5qc1cuYawSfxxIvST4fFf4oxLMOYP7YYO0kUNcEp1tkU1wBxxUpZayG06mE0ZCT4kLtDI3X1kU+mpqYwyuBmhVFfkAADDYa00vKzgDwBFW4oOnNYGgaRy6nlDTeTJWKwcw/V6pTY7rQwCVkmamcBSGGoo84IlakbMeJItiCLy8wl2FktBo3fmaxvgzBD4jM7Ustv27OIWyum8XIAX2QaongRsOyMn5t+ggXcZrAiGBoaasfZ1MRJH/5nvEJZ0SxAW1mVUtPP7aG5CxZijps4cdgoOgAMjicAIniFlMOEGoxWLMywYun4X/zpTWmn9Zv/6sE9+xq5sdDyxjoUY+eePeVZu/+vf7X0yk3rnnrS+Y//6Tut8qKkGDGNyJXVySAjHycRyUveMRN5oK9oskIImbCDaZDRXj0gYzCQEV+w9Nhn/mjDiy9t+7XfPd7K5lvVAhRMqnLm9DkzKg5i/W9EAXvOvMVn3ly6KOxNv2QsnLNMJpZ1kfiiinlCpvGL42MeWy18oDD6tJI2n2SgAceFlHnNjnLgkpEwFisRvFAbWHDHt1tOLLhJeMmsO3HpBMhAmCx3+ITnrbzTyZuR0cpkC3WBCDAHVyzmCrJEBNIJg3pYzaOq1UynJ+OpyimAjxIrkxIElJxDPaUcwItV5KmqYBmihUTAyYpwySQz09jotMrpttnKPXQiGRXlOQKGsjAxdon5jOaTJa7fZMK1eKgJJkLKGfrgTySskliyoIw9JB3mEotgQpashU+OOSN/IbJJEVnxVNE+WcRTTtHxq9SpQHCpMgtA4LPBCKWAAJCStNLmcTtr1s1M8Io1MCwP+z8ODSzIwL6nnjdnmgGEav9lGy+85urrnn56y3Sb9aprps9SNm3POPArH33jddcuTFL74//2nqloeWHMEqmJmuEsqkRH2blL3pQI5lSU+nNNq+Ve0VPepLpmXbMsPfL+d72hPjScW4jTjJnU4k4qHw8VXaINjgEFzpICZwdYSqbgcyvLFQjzw8QCWKIq0KHBK+FYZT6WpZlYQo75ahJHw5MMiPEQcQbLl3Rw8S0A55imh0DAWJWCFqQnJBpcHxDE6NsMRpYexcl6CLAz4MRwv0Ae9nLsKaJH8QSZhMFFZl+jqvHn4HStUI0zZeKBgX1FgFUyFdyRQyELEg1VASFkTU88Aags86oZOERUIks2QMZqIymIDUIgsrEUKVIbDRUKCGDhyo4mpDfcOBu0kiqIipWxMqvAJuhJ4RSk9CbxGYGIoDoVEryRqc440FMC+IplHqzvYgPYbLJyqZewFk+eMqIaqFV+eB+Ih/K5KE2GNmSRBaMWp+WefUeDYOTitfMv27jum/dsjsphVku17embr5/9ntuvRuH/+Me/emh8LLXmQ2mmN7JAB0u8ssIrXyXx/9CKq1yJPEUj5IULQamVrj+EwZ0fJ+N2NDW9dt0b1l624ZrrL3/bm29+7PFHJptgliz3PjgGFDgHCpyd0V20P5xF6bKISNJZxYNU2I4r2ApuRyxiogc4pbwIcEjIKlZSUWwnzCzWGZGN+MZ2O7noQBqoFI7IdhXiRyqZUwpnQRySWqz3IhNubHxPUT5UsbJcH4gloKFG2ikAawwZ4EEKngEBSgBQdhPFaaQkZ4ogXxEMiC8bl8kFSQQLEFUwC6PnySUu5yKOkSmiF3FEVAS1VEJJo2oIHQAydS25zXioYvzYExURARSDvkzTgyaSDwe5gLiM7QGcDK0KlMqq+EIrqCQkUjGxiFNd8SoD+knPwtLYzWVIEARk+IIlw6AkT4RC+I7Faer5s8enk//++eeyqWT7jpeRwhzGZAG7JHv4kd0Xr1ny7bvuP3TUTcrZ+PyCzz6ObQHirlBZHVBDKkkNhZji3EEVZC14AkVuBqpw4pXnCVazb9zz8vd+8FdMuZ41x2M+5YkTKOPzdUaD84AC50CBs7NhwRwIOxQD86BV4R4Nz7KMgTAQbMu4vsWEV0YQWTcK/ofZBM1gsBTHTEET5WSkEYAPs6gGZKkBhF/hWKKhAIrTJhiFhwPCF0zNOilYx12s5qwsgzjBEgeuWHdMFlxCPwWNxMWcA8igepiHNUuTu6CZnEFTqQNsJo/40zHlLLF4jJlGnvcOGcNkrhzcp8b+idMHLIQ1ZdCBPQXCCOcp0uI5ARbqG/REhEFSEXMbFFUVjlkRAQiSL0OFVEJBoJa4a0Ev6qmBg7rJbl0E5bjAqlFKHDgKzFcM0LmsvaeWn0KxFi91SUZhrNfaPDkHHbYsO049D4ZTvjJGMot57FlUVfWk9HK3xutkhmCn02ZOD3o3giXJtZSqaclbLVhJUPCLARfIxIvD0me72RBksZxOWbZY55TVu/zQZTQ45d1arIBaw51V1WVwGlDgrClwdhJWP3t6p7AZ/0V6YiRI5aOEF40KcH2BAwH+CbCZAJN0d33QxdUNJ81EAnfkg+GGCMISeCaqa24RKPgoi1ihD1UwmCWumWCPsK9cUhMm4lIdRq+4Ja52quYpjC0oIAZjvv7Cdtwq5IJ5uyXyuMAzg2qQhZo4BwTZzOTDqq5TSw6klgxUKiQa7gVeyU1EDQ6Vm7o6ixMWK7BEFsaTrFRNVWpxj8BHFi9zgSrKkGXJkPhoB8XJhjoIgKI8So35kWW4WCUHNMYdFh9+yQ7whcR458qaGTTEZ1wwSS2HdVWXdToZbrWsSs/wKfqb6zZabavmL4oBTt+L2yeDgCEIpiwFWRFBHGmeAJVQDNSUNwIlpM4YFCWQS7mnNkIQ9FAcKryqNoKTGgsKZaytFrAQhayPqiIPTgMKnAsFztaGRRlibUY5kc4qKhJ3YIS2YYnRBbUQB3QUkQIeEcO5oIOyKGG9EoVBzOp0d0QXDEwi2dDHZRaOmLGx0rDIOxYrAEOs41IQ++XBEkhTHLin42mFiUrECgViDrPjQA+Rm6gLOIcGBNsK34gYRCT1SElV3WuASecvjVGuZNIGSmKdTPGHBIdICFogCIAO0kIQUglvclLVllVFKUH+M5wvW1grYZJ8zu4Q7GUFUibQSMGieQoBBZJQFFlLQSiIlY99f2TrB5pE6Xi+sbw0UgyEVzWEGsw9IjquYoX48zqouTQSm5LYwTDJuTiwy6vhH0Y4xNLCYHuQAvd3t0iyoaFGlrCqYDidJRFE80AaI8RWyYp72LTqfotlZVE2hewy3kHREEmIJQuzAmxMJ4AS0hmYQSCUgoR4jZrmJCs4swwZLiVMQRBM5n2DbkLvwTGgwDlQQH8bzyohOoqglRwginz95dA+k8q4JMsBM64Ew4h00hVJBDeEZ1SnpWeL+iMODSJtSRby/QbIBGKECSVYwEKKEFFBQuUzn1ryJ9mIQETnpyTxQc1RTmVaDGdi6nxEUpPk/KmDzKWI7l0/kBqpSiE2IBVIcpibA9QTzzI5ejmAFzNv9TPAZWYpKvDMTwKFYPOMWgkS0TSpADWG2mh7JcsScuYBEXu16Rci8fG0UjgtywVin+eZ0BjEsmwWR8UIJaMRiEPMgkQxV3M5sUYmmWyu02m1iY8iafmu48vK+njt4xlHDizA0WbJ5hqrO/CFmEFMVbiG716N6AwSR74H7PeBNspsrFqICIfoxXpqMiCglN1e/H79X/NCl/Wqtp4WV73TXtjp1euFD37/16HA69qwREiRTs+Ak0zTq9fr7bZsJNMN7+ILUZR+Jxwrh4YDBKQe+oinEuHiwQB+dBleAAKRinCcmOj0JEavxGGCcDcXeUrUTGSwomvsEIhUWEZkUolVnrqJLCGMzlNtXVJoSIAcCkREN9G3OqK+5qwRbWYcnb8gmuanbkKSawztJ+VC8lQCjkI6uZZD6HVOh+CuOsQ7QzBK3XYv5FpRVeqlsI3iBRFoEUEi2Qpi6vpIVVW4JgzN5xEgoprQy1kVJ8nFRq7eSK/malxW0VltHCYtUniqlDjETxE8u4RVtVLZKoOUroAisshX1IJ3pCopeaNCKhIRH1CTFT6EWkqhlvbqo/em1B2tFrSkfFnitFdzTXOVSZdEemdsHSL7Sqqrbnu7+Q5+/peiAL35tQ9wSmMTj7E7sGAmsKXlDkI0e9NNpYfMOFRI/ym8JC4FCrzETQkwgEPwI9WCFl2bPi0uDqJLgD4CahKZ3qrkMg03gF0fj5Q/RBdCFBsJWkklsPSoalCKFqx0WgFODSevxBMNVbriui3dRij07F7LT4+dZgTpQCm1d8y87oWdxa/gVP/o8233Qh5pqnYro3FKOL+HlDxQEmn/XShG7+fYy7yXc7c4RTYizag8+EWAxAfoyE1Ix6uhfBGNCZdHip4CneCmumVAVXRNqY4Sorv4LdWmkhKHQz3ljREyo8P00UpHeuVZ6tJ9d698cPqdRBwc/5tQ4HUB6/9l703A5Lqqe9+qOnWGGnpQt9SaZU2WZcvyKA+YKQYTSAwBDFwDAZPkJiEkkAckj7zky70J3x1yk1wSvkvIe/kMSW4gNkMYQnCwjed5xpYlWYM1z2q1eqjqqjpjvd/aq6q6ZVnGrbZ0JXG2Sqf32WeP6+z9P2uvvfbatB94AmOALcAL3goN8vYUaQrEoa/Lz6iJCsQY/QBGgAyxlowJngLJCGZW0Hviu3pU5owF891uBcrQEK6h1ekZRjqYOmkUrTq3CmfmVkeX8BSdp2eix0DJRMUNl8StzlUlvEW/VzXUJ/Jp+VrARCZ0DCarZMY8nHkyb0uhB+rxvgySQHtBoBYkAaRyqo44cEiBSSSRJkRoLrF5Ii/YRJuMVu2XAvKa+OYiL9d45Ck/lQ9oJhqNq+Tcclq6JmmHpX/PMgocF7BklQr0QIJtPPhx6p8qCUANmClStVgqZd2F4zoqJ9kxIx/kiS4Ib6Ux6LjtuDKX6TjQapJfmKvObcfTYaBe9mkn2pnoMeMZqGq1Woe3cpStoX4CreJNCVUNOuh0jI8MhBXU0M/JxAsinpJXZ4uSCkdMmagikhfPpCpoPc20d1KoeFv54+vEl8gtztEU3WbNTE3M3iBJiJOn6jT/zm07OP17FlHguICljBUgRWPxqzuBhnfwYnJavp2AGD1LQUQZJUGflnonw8BMD+nwwk+JnIvJIFmp5Is+Sgi66ZPzxD+Ze3pJuWcZWhn8b7VellKNM4GybRCnSA6FpspwSHzBIf5AZAMBgg54HMjOuzBMUztX+ULw45Y0smdRuCJASkFE3g8fGJRXiQCvLrdm6YQUcNsIASTEAG7rO2QkbjrrlO1cxBM7EJKhlNB6vwKjZGnq1loK0JxNCN4JCOMmdWcVBY4LWIajEok7zQWttNGKX6+eAKCGiK1ejvF5xUykOIEv9hjLVJGOOPHZFKGuoBjdulWrn5r/2YRWLQbKkK9NgBYtFaQ6hD0GzztPXqXHkB1EkM3nTKUNzyUquiTnkb4j4xHxuahiyCdDDLMKuJiXwlNFKINKkrCFpOCa3EheE2j7ktmuFmGikQnREJaZOymdnzrCyaT1YJKn/Tz9e3ZR4JUAS7kqRa4TbrVglkhGUNrBNCifaOmgkyGGpwSJ1KPt9CkDQLohX1ITof2QAPS5WpkoEjG5lIhkrpFMEfqokwrPZP5rcvjx/ZpfZ2wcP+K0nkyhFBn3ZiatbTEIYNiXl6+A1HyqrTYwB+EBKTZ4SvdgcsdVTETLXN5wT9jPFzaHdUA2OEohBszkRRPYAillvkQcj1NplOZz1KSet2k4RCGCEtpkaF6oQaHWrbHYYU6NFnm/5KiNN365l5Zy0VBzn17ORgocF7BoLBIrnGyymzQxnCqTRSd+ycqdckYKZEpS09FFHN5BGfz8jEiLzo5KD0+kT6MGwVW/z6g+qGKqCWFkqJxFsxT8m4w0Ux23rVxOyz9CCPkGmL/tEdsawKbCL+G8Xn0joBjvhZ8Y3ZCXz6wNdU+m5II5glYmAlcszDStOvvADZmF8thIzGUKoorVgiqVPwpIASUAk9HSYl6n4SLFN3rzICAoIzkTIl82I+CXnmCAUiBIwLFhgFkDtSad10vlAEpuJRNTT/mburOSAscFLNgr5oMdqKLxHVarI8/qRKBrawSlUWcKSbej93NwTdacZUPX5Ah4t+iNB1XsyNHN0PnE8hyLj3yrcbaHAVDONfCSGibfsH+JFdImZ9mAXZSFjnvT5/AWD31IsXKQ9bH2KZNWisFIilPgaBxbTl6Q4xTRUcSsim/ORvdstBZFdZK1TirQacjk2hIoWWWwLxPq9hGJLJocMiPmEW3kSiXVr3EIJCFXbnnElYI4YhpDWviVLOrRaFqirrcSYgglmWMcQtNCjWp1TA6pnrQkoQSXGsqZhvIhIUSEgKC6rorgkf05IijCyVlEjG/FMpK1F0+I0PFTnFbmqCtSwkwwZ37/rP7eylhj3w4stcfFgscBQJRjSMELxcdJFonXbX34pvf1znCLJbdeDQ/trdx9xxMH943WanWOTYWSUt9QDkDCjj6t8fJuo8FJ0q4fcVgGdGazZB5RZY6jjBBUoRaLOp2D0IrzRLBNKjvCbdfDhrUfjZ9/4fxC0d69fagyFmBQRwQNrXob2BK2DuDTztwBsqNalt6cHRR4pa05dO5OIzlNSg44aAMTQ0Wf6gDgiiMyo4Wr3hKHXiSzBjklhy0gqC1wEroLJLFLN4gCurLmw+dZVFIRWLHF1sqFjajgeRh4RzWb7c08gn0iB/CrZHXJjpVck1Om2Dkj5uBJkbGcrItCNYcRo2ofh5GHGWegSqwXsGMFczEYqGOrTT4KA3DvJfMGrS1XA1V5wU0bE7+dIwVFiR8YAmUI5BHRABRCaCmPCNS261WjkYmikmZFZJ7SXkETCyXyBuF6iyY6j8iHJDwlN9d18GtuhOhTJRR+NhEwAxYbYBAbLof05owO2JWYbZ0cDsTxQNwYpVD2GjCxxulLIRN1WjSBL3GyOclNbvzwu1//5ktXrFj+0ANP5y233qg5bO0BIYA4EVJhoTGyvPBTn/1Y78yCU/D2HTiIGeS5cxY+89T6kZEKnyULS+/o29EImUjKhJGC2CRk25iQEPMTIKDsB4p4R5gx4wpnleQdcsf2fIbDunnvBbfEEUphHHrFzG/81o2rV69YMG/R0089S8uAVTFeKoyf4awlf36Iz1TEJsWl7qykwHE5rFdorY4lGTzGEVNDdGB0bjUHxoac12W+t4xGRjdWEdgACJJxOhYHYclAZT4h1pXpsMxFEJ5girhOnmZiiKFSMdELQyWH3NAvMSyQ+JiDEx4ikk08ZAoUOuhyEScBEezI57RlLPjJdjfwgPppVRlG+PV2cgMpCw7McQSGgGZ0+oGkSQhi4M/ACvmARFS7DTfypQeFMaNOJjyiNYQwKMF215wCT6DnCQaxu4ZsQSsKYuhSCgmBPyKQhKvmoDsK4JYm05NH0gQmaQJu5onUR5g7ChTsxNyfGPOBJhjLgpjCcwlzAxZMekFUg7jkxvVYB/lrjYof1zJ2LV9gsWMci+02m6RzTY5B9QqcRuHD6MbNxhvfdHVXvzM4dOR/feFfglrOHF6EVWcMRhRyVugHTBX5UNlFjk8ibb1WKni8FODFx1gzcG/Zo5WaHICUjQtlOwirtEpOI+LbludkJTmbEiKj/wWKRXyF8jEUDaMabRWMztmiHDbhpIkTd6nv7KXAiQAWgwSCaKc3Q0f86umE4yFEdhELPHGauXAcDE7EVJxmyk4zB8tWtZAT95jx8bl0s24wGpWcEiOKs3CQTzkup6AWsFruZh2U4/PYd0LCIRxHQ6aEMCu+YByVKdjF2mg97xawLMgtG69hpjhrLMB6AZMko6ao6MNQwLI7o0JfaGfcki0sD1eGOIDCiBLjyAwMmTdl8ZOQ8UO4AEQc6zSW+PhJWK1WCcEDbDHeQD3iS0OSRBGKEJqvFCAVOctoNGQkFWQhUOoWsGVQJqTcGpahRVhiKoXxMCOTKRYWYeCsSAvUw8HkbQ7u4JhCiWkgug7bEkdFF8ZTxEwk1xw6DTdF6N1RV/Zg1RrjtfowxurFfCG4iR2MkFOjXfYYwqQGUR2qL1g8sx5XnnzmcciVTbrUIEQ2xrg97GfWYXsVb0qsoFZqteqM3kKtPmLlimAYqBdh058PB2wYdrQ4TbE5zsuiS+U8Jwt6W3k97hAKcAIjp7UKm47EIJOp+zWIg4JLwOEh7TmhCK0QcqXuZ4MCJwJY2tcZAB0SETI5UP1cYfRl5CVssm0klpP34IM4OSGZUeyjE9aC6nhYQdQEN5A0kpn2QJfdnStn91f2ytmdVrY2XOv3Bgr54uy+2QVbNjMewQWHsZJs07mFf7K9jN1r986Z6VRHK8Ai/XnOwNxiT/Fw5dC+ob3sGmaWFGGPC8aAjzaHjB4tutFhTFXL5TLgMjQ0RKMAkVWrVhGybdu2/ZzuxywykyuXu8EjYAUODtbpwgvP7evrO3DgwK5du3gK1iCg4Wmpu2vGjBlbtmxZtmzZwMDA+vXrc3F+9uzZHHjz7LPPMrwtYAWEcR2XjcFhOHvmrBUrVoBulEVuSlUQjRCuVIa64dTDwr7s6ONYDccFuWucZgOT4nlVZG0FZwxJnmxxyrmAQcHDLEOF2SvbB9QaYTuTycjVeYMdT60RjY5UXHfOoaHDBpBDjNwjRuIwMVypYBd6vCTPAY5FvgTV+pGF57h2zvXHs41qrjbCed6lJFOLEz4qjdnzZi1evBjCvLj5BWxrh5iWyXmwb8A354Ez5a+FjbnzeucsmN/TW96xY8e+3YeaWT5gllcqwScypwxCQShAeXh4eO68gaGh4YBZZAwjh3QfIIY+QiKR1OOkge1vUac9qefsosCJABY9nrEEv8BAovPJV92Al1479KGr6cBjFHndLiOw4dc5MXVez4Lf/MjHxyu1v/m7L2U43EuUrdilky9nun7jgx+vZEb/9utfQhybjfLnLzr3rVe9bc68ucjLPcuL6wmmgm+7/9/WHnlmqHp4oDiHb7MV5G+64VfGR8a/deu33v6Wt608f0WIpNdrctTNd2//3o69W+nFFI38xXU8mBuYFqpNnTsooBV+05vedM0119xyyy0XX3zxBRdcAKMxNjZGG5966qlvf/vbIBFoxQzuvPPOu/766wEg3VlJzlDgRz/60XPPPQeektWv/uqvcqgf0MM5YwDfoUOHfvKTn7z1rW+lxHe9611f+cpXXnzxRcgCrYj2sY99bOaMPh7hSEuJN998M6DJbedzoNRugRcWRHPMXhEOMYcGsbMrV69e87prEixYZQgRERsyQ8w7OJnczs0vPnbPPVlONRNhvLSXrHgpFIQfpw0/+oq11cKRoQpn0A4NHhFzYMisML5FwgwwXbz++utWXrQYxjfI0Fj/+uvflQu8bIhR0tK//+Deh+7Z4IrgaXzFygUf/Ogv5V2mxpjHYcJ+7d49h2753z+qVZmuiiiAgw4LXc5v/drHB+bNYLURPiub+bnDh0Z/+J079+w4FLIYCCcOV8sHRiwDZgYHhxYsnDcyMuqRP4d1IOyiZrIOrF9NYMssFMpSplAydWcrBaYsdKejM4yZATF6W3g0CbAYEjoSGBhEgGfBtkm9VkPqxHkIIovFmlsld+6CFX3ezMGhweHGEIc+MHMsZcpXL3vDeYtWPr7+MY4CtF2HY4Z/5wO/2233btr2wjPPP8Owx0L84hnLzl28/PmtawHBarWCySrO43nTmjeX810zyn2rVqzmoNZNGzeu37iehcJ1Lzw/Oj7KYMpjLEpGKdM3l5q3Bv/EiJX1rPPPP3/BggVcwZHnn3/+mWeewYM8a+HChRs2bFDOC9j61Kc+RbtgB5544glAitz6+/vPPfdc/MzywK9rrnlDwSv0zeh74oknu7u6e3t6zzln8ebNW+CooEdtvLZ9+w5k4bNmDXz6058pForbt2294447BgcHyQfWDM4OiAQEGepmNArKkJKCILvALQavRKONkQrs5fv6Zs6aOx94w4AMbSTnRr2RYX0jyQ4fGtq9bTvrBaoUznsBzmgRWeEBcI/t0yJCROpfdFetOmfv7gObnt+PpkLg+6z6RSFzUNsPq4iTtu3cPGf+gO24G9Zu3bl56PDeys5tO3Zs2zmGxD0X9s1yfvPjN7ECPFYZu/fBR3bs2Dkwt6+nr+vSNZfe/8CDrK8wn3WLye/+3sc5uLAejTz02EPrNqyHUANzBi6/4tInHn8Edk4keJz4w1xR1CGi5Svm9ff1P/X4Cwf2H7EtJuZmtxDsVZPlSDFdaNoiFiDaEHZs49KQs4ECJ8JhMXJAIjo9ExwcIwoHMfSqVAGwGN5Eg6WCW6kKH5YgDOp2eljFe/LJJ2946weuufj1m27f4BZcJCCwTtdcdg2c1NNrn+KoeSTUWOn7l2/9i1+JjvhDfN+53b/xzt63z5y7eGDV0gvvW3s3+SNtloNXa6ys2RddfPHtP77jufU/QcLiW36yJawnNU7H4sBnsXRM9Syru6fMIGesUhnAhaupttQcFDMwkfu7v/s7+CPa9eCDD37mM5/p7e296KKLmBjSImZwsEhwUgcPHoQI3IJrv/7rv87EZ82aNT/84Q+pEplwvfvuu++9914KgnHbuXPnP/3TPwGF8FPLly//8Y9/TAT8VODpp5/+/ne/Q9HUhCR/+Id/CEquXLly3bp1hAAx8ILQmfigDPGhcqNa5xaWkTNr/WZz/fPrNm7dXmGEexhZ5gRqVi6yLsI99CrCpCRW9yIZ0Kal+lK4Ukl9TS+5suSaz7ljh2vZuGfPVoEGJoOu54IPCMzCwH9xy44Xtq7NOo1FSxbMXTD7yUef3fvCSC52LebE6HMUulFBuOHG9+W86MCOob/7//7ezheiuPbkE4/9/uc+TeDP/fzVD92+1nbzV15zQak7U6n7f/1XX/LrDfj1px5Z+x9/7aZFi2f9hw9f/083f4920H0CH6kXx4Dk9uw4fOmq0qEDoxy9g6CPWapuoBaEgtMSxlkx6yUNSm/PNgqICGCqjt7P4CGVIpQOBsaW5kOghustMeW8G8zwcsweOg0sGdnVTbs30gsXz1zaZXU7mKyM7WXnnIsK1e7duytBFaBhrZ+tZHtHd40Fwzk/15PpW9p/3uXnr0Eti7PpZ87oRwFLK5CNWccHtbIPPffAI5sfqJSHx4ojtUKllh/HbqaMTNF7QL1HIAkbdYIBbTe5CVQTDHr00UepA0hENFoBJwUr0zOjL0TwjIpANrd1+46Dg4exxFwsd11w4eo3vOnNyIuYncxbsDBC/m1EKBRKJlyBNrLavn07BXJOIiHd3d0Uigf5F8DBXFIk5zZyMdG7gJUDKJcuXWpIKpr7imUUbvImnYirYaR4A/xHQAjPii1WmbUFHKEohxQ1OaqRsyCxOyW6DTR/YiTTKBzpj+dEaSHJVQZrf/af/nbt03s4HRuacMQXieBPURNBFy2fLWKFNN8s8E4LWFPm4OfIzUc9VtIVwj47mTmLe6Nc7Zu33FbKzrdqxULQk6mU773jUd7R8gsWwcTFib/qkgVxrnLfXY/FtbLt99r1Ltefcdu3bs8m4wvP6eO8R47+CQMRNaCnYCfO2sd3/Lf//LfjIxgntOycohUcKLSAq5IzIkXVxfyO17Q0/OygwJQ5LIYQY5vpD0ORAYRf8Mk4pYiOCh4Rhyu2+IgjiuYigRclBALCXOPhpx5845Vvvvriq+954p5irnzV6qvpb488+zBL5pzYHCDAjj1iX4q7+NIurzvTsJj01ccQnaDVJeuGGAh34R84m8LmQNf6I08/nO1q+pxzj2oBB3miCcE4k3P+xK4TFcQUp1RJGClx1LZd7RZ7SNMIJBUfdx7BDx4+fJhAIsPgACX4GcC/8Au/cMkllyjjo00mnFSaG2mBEoW8DvDxiDiEkxWBTDPBbvivP/mTPyGITHjKFaEfgYjqBYwgluFbyZlAnhIoR71jrx0diIILa4EB4zkL5y+54Hzk2FaxUA9EW9UWNV1WWePRA4PbNm0gD6GDaRelQwHK0uYTeKxj3BsNTKmPyodaCGdkX0b7CfPxiMqgfY6jbTEKlOcYV/Tc83Y9qeehHAxZGKF3Coq5GY8PBji7f98hlg6L3S744rhWd1/JD2v79x/k1Iuy05WwppnNHTk8wkoLtECU0AhFERd1F6brpj7H66gTcHxsW9KQs48Cx+sHx20po4iRozNBIulA7QwJQnSYyegyi/RM5RBRNWWBXE7aMafpsKEjfHrrE1e8/vLLL1rzxENPd5W6L5i/+vCRwW2DmzOFZlQPXavYU+i/8S2/PH/uvN1jW57c/PCW57dlxqxl5fPf94H3i74P1ncdwCfrFuUcBUAQXSGwQLRJ+Swj65X1NPo6p0ugfcogFbwQnM0K96QV1vqreSYAiBGij4AqHnWmTjyiLUAMOXz2s59F0oQA/rHHHkNuxeQR8HrPe95D/sQnB9ISk1uyIgSkoz44wrnF8RS84JYICOaQBUq1jdpqqVSsVCpwZ0SDL9VKckXoE4XsTWEVMCEq0yRUYgXkPGdg4byVF12YcfJAWsC3ALlWzDmOVtlxXtywcdv2zc0GtpEFcyhCXxx+PNzieSWnsy3hYgAFzrMNWOLlHVIHSqEJzFmLxXKSkQLQoCIrkAhxIepyoq+K3cYmbCkCygb6vLz7en0cNIe/ZEZe8LqYpyPnQiEP/WAUMlDXIhX2nFHI4KXBhfHJgf2EDq9UyfTZzxgFpgxY9HUlkQ4D+i636u+QrhNIZFbe5ZRmdIXo+CzWsezORzaXHIkGX9i9fuW8VSvmrZg3awEnOz+98SnfrQkTxkJ83Jw9MGfx7KV7du269a5vjEZHupyy2+wqu11ZHyYCXR5hrIBEJglBk3PdszBcnKTHOJQRjsKX8iyMG+PQLEU/m+05MF/UpDNcOzUHQUjCLY9AGUVbwEVjEo6y1dVXX41oHJD60pe+xIgFnkAWIjAOuYX5IhOu0mqj2q74RVbEEXGemY2C9YjwFQTvvPPO0eFhkugj4W2MEinJQR6tjNZKyI4eGmURWaBHiM008Plnnt24eTPS/iCTOJ4AJVqbHH3qyfocgMHcsOUm8pnU/PbDyX9N1hMiIW4Fs6hYSOs4ArWJUJCZqYWSO3Ne2F0oAefZCOpsCWpUGqNHar0sOvR1H9g10lvyUDNFf2X58ivQxTh0aBAlUFRM9uwenDNv1jmLF+7ecRBj9XKsYpLMmt2H/SAmu9ANA/ZFx+NLNLlmqT+lgMDNlJyOIgYqA0AHsyZXP087t4RooHqYwnSeMvsL3Majzz2CcujlF6655PxLWep+esOTdasewAHBGGWjvhndAN2hvQeRwxS8Mqfao9+MzoEc52UjSomrQQ09VOIj2LJcdAfFhBby+zAJ3SJfcnFatBRskEiOJJ3kNI5Go0XEoVHcgjsAhAx+pr0cq4fEJo56usoDM/s5f/3IYUYduxybnmPPnjXz6iuvSKKw4Dr18SohsBXEQeObUwVBaDxFzyWEJBpCHL9e2771RW5v+sgvF1ABj2CmzLnyjjNv3jwADjjTmmgN8eM4TYejGNkM6QWRXfM9P+nN2YV62Dw84o7Vi+NBfrgaHxiyR8Z7gqZTqWdHqmWE6O030mksWdHYzu3LeFpoBVQZ8DIxDGGgCpuBbM8r8kWhTbQSPVLdgs47oh2uVR46VPVrzY/9ykd6+lw/GQ0y1YG5vVddfYXTLK996kVZEkjcZ5/c6Fjl6667dkY/Gz15w7WsU/vIr9yItuqmjTv4xjmyCwLeiu/clLvoy7QoDTpbKDBlDmtyww0OtEQtnXAC8XeuzM4MhplPJZwBG1xlOiMnVe0Z3L3/4L5zli3JhM3nXny26o9mexnvnDfMQamZfYN7/WbtoktWhQO17Qd3LJy/6NJzLp3pzwniRnVoBLvwiMWAzSgIYxtmh5NCZQ4FTxSghyQcinR0w9fJvmqBqUmDVKsnEdqOJNzCR5BQk3cgTPk1cAQZPKt+rPd96EMfQoiOsIlVP9grnd/BQ2lBZALiMLiV8yI3QmSstylDTNYN//iP/3jRokWsDL7wwgsjIyM9PT3oNBDnL/7iL8hQ6zWZkvjJBFhlnstkiSkdrA54xKeD9os1YivnCHPKZEsPVc3FfoN5FQVrPp0KdJpP+EvdBFod9YSiaRSbo2Rm56Ht66EvCsHcgtcYD12njDY8Ui22qv/zP373j/7zH5TLzv/16d/euvUFPgRCJdvdtevQM4+ty7KdwS089diGy664ctE5c3/nk7/1wvMbIfWSxfN7+3vGq/7tP7zbr0devsQ2aaaaTBWPqkd687NNgSl/vhjPdPfO8IN63DK6dAx0hpmGc9VHnLMuEiWWmdgZxvhJso06MhH7secf9e3GUObww+sfcEqiXIpDCYu5256D23/8xG1xV3jeivPf/uZfXLV09cbNm/7yK/+jVqwU+t1GUmcyIvtsbPRJawjKGEPMFSvjYwAE1dNypSw21bXlNVpJvWrd9BEhbPcLQx/hFGlBPUUr/HiIwxXHKt5DDz1EIHKr173udeeeey5aoH/+538OHinEaKsBOOIw9SNbyAU8EQJ40TRikhuRkab92Z/9GRny9LLLLvu5n/u5yy+/nAiod1ENfuRATBx54ueKY+zC2gVsDMij0JYJsEjFuUJsFUAYbnM0NhPkmCWLrJ3z4TWxk8EinnkFktbAlmZIQSa/V7jQMSCcbO40Tibp/FiQlDXZLJtjYBllhxTEhjLMl+GJmHdjXiOq5f76f3z50P5DLH5efOlFaOGiXPL4I09/7eZvZAIPkxuRzzqI+7Wv3vrIA4+S6qqrrlx90QXMIjdv2vb/fvnvqyMREkxZcjBY/ApVTB/9DFLglY75UmxSoiC7QQ+bgUePp+vjeMojPFwJZAxw1UBNoo8YTDLekL9Y7FsNEWE4Iert7NRtstWvt9kvxxWzu7aQGWmM5D22kRCdkzlRFmKXc7Zkd/f0zODY0NEjo2Qus6xcPBwOub1OPaqjCWHJwpQbZgIyCRKO7URlElkZC+yiNoUAGIwAH6UyjPM2kGmddfQSyFOuiK4M1uEVboIWSYnoZBohlDJNBKJWhrYUSfbu3dtpKTEBSmpNuOKXyU3WBHlECHkSGQ+Y2OHFyJz4c+bMQZ+T3MjcUJgwceRGBBLixyN+s3FbJtcGcNQ0ASoPUq7MoyWmRma1TbepsD5LQgI7TcavTdPKv8xVxO1Gs4mrOLlSNKXU6xWv5KClgrw8in1m9Mx0M+Bw1qPqrperN8byHp8lVFmwsuDOmtXHFH7Prt1Ftxw1sAjosaVBcoNa2TqqXUkunDV7ANqi6cZcX+bQ6GOIUWyWd1147cl8sdQldT/bFJgyYJ0AuZgp8KWmEwNYdEROHhQlK/HnUOEhw8hC5YbphLATsvtQvq4GDWW7s5wFDQiZ50kIIJg5C1f6OqMxH9G/LVklBKfMFcDqVFLUKU7cTSftqy91orY/NQ2oITgEbAn+gMATNTSPoJxE4H8rAr5Jcbh71Y6cyaeTv8lXMqV0Pj/gJVeUvLDo4orFM8mXL1adQOrAIosY6BMejZrI2rAAEHoqpn5ElTjkBocoxxeSGyJBzis0Rh/oLVI0DZJGYnz5RJsgdUrdWUaBacmwXi0t5IuN8Rc5kVCTCNxIv2ftWkZXlJelazviC2x6PgyBdFgBIIaBLUqSDBgBPdS68LK9QwaFOOJIz+eRDKSz3SHPUWA6tqEq6sE6ReeRGfYdxOkE/1RPJ0nHI2iFM6UbazUQHGaX/wI8vFlM/bC1UV6oVEOeqWkqBGvCqWHES9BJ+oAwX2SFX0wFwT6BU7lQtHoTl05CBlRbPleSoSo0TBI9mmqkl59lCpx0wAJ3FIbkG2umA3RHYYWQivAZNgilcVB2ZKKpA6512KcZfgxR6cZq1VuAiVvTlfmYy9hAK1US0c0Vszp5mkB51K6AjMCp4NrE4CfhaeMMZJjaKHgpVGn1OhjDrYCFsC7TcS2oMlkIv9MuC6U2zVaXVFC7kqdGw5OPk2iuMDOWkyNgmsXScZ4EOTZBE00i6nsXaCJHXijZZpHGCSdu1gXBNWIZFXbNWDJPXUoBetIpIoJhmnRGIJDR5oaEz2oDCh0XObHp+PRS4ZsEaJgpyld6oprgVRvWJD4KPKKTqqzZRCxJq5lPCjsbvG3IePm2GGYTasica3pQ9bSwLTMAAEAASURBVJL89bXwslq56jeAW96QmMMwCMP0TdQe5F3wIZGPjCYDe2SLMuHyfuWpRJDJP7Iq+Vq1VnMlleHRJAIx6RxkkrqUAhMUOOmApT27BUymu+MHs4AaZMbSaWWCgDxZEIYbASrp0TIvkNNx5Psse2tUwGVMjoJQ5rAW80inhNqtO7DVYbW03InmnoY+xe5jAPdla8q47wCWslcviSZENHHkOyACoBNwmlQp2snABFLVToBkrLyeTgZZB2YaCEMlWCPfGRZPDFABnbxEI8+SPDV3VXXhVRONj5Pmi6iLGIbf4i8NYYlTMpFkqUspYChw0gELEAE+FEG0szL1oz/bYh2UHhoZToi5gJllSH+XWNyKwFY+ucJtdV6WjpcWMJkveUvKKwNiomNroZ1UZ5PH4LkwUOo6AKIBimIvi2UnSgRDfEVVXkS7XN6gwo0wvGaDtakJ3Yn3FrRxrfPiRA7F0RVcteZ8jmRds/VmeXHkbAT5EoNM5NPFc37a3hOtfJrubKPAyQUsgEPgCht9YJZIx0UCxUkHCLHyslaIRVwMfRvDC8wZjIRLZ4uCPiSkS9NhDd4ZvoxezDhBICITCngNckT1wHAVEy9GSjzjuvmr4rNk+jW5cWJupu3anFcLtTuY1ZYGtuP91L+tmhwbD/QBRgSDWh+MiSi8Dd6F4gu05w61Enkx1JYXb7AMSGIPA3emhmamTyLhn5C7s18KGSWYBdcsFZCznekz+OUgk9SlFGhT4OQCVruU1l+DVvTeo7qgYJOBJnq3iSdQ1Y4jAGecjJOOM2jV+sLLmlPbmcFsVg3bIWfyX5kIqzPQDFoYLVLIJYsVrUfQx4Az66hQVUknf3hs5NfgiFCb+IYVaqXij8lbqMq0zBQEvhxFZBOHEF6Bvi+5mim2sLL6RTAyJpmEcisHYogGgyQhpoksHxhKksgixCQcH4hmvmIifxelORNHYoinFUOWhSUraQeptAKSJ46aS3BLUEDGyDHlHmdyUW/rdjINW/jYKkIidMg4kSb1nd4UOLmAJR9YmSMYAZXpxjoGASl0r6BMixUyH+EJtkg6uMRWCZf0V7gq4aeElua7zdjS6QkpZS4pqGccZalHr51wbl/yaHK0V/ajZonuJXFQ+ESJVKpg9DCNsmjrsDLUO7ntxHzlDCc/pe7c6kRYR1RrNHKGGeZUscwHvxGFaP83aDELrcK8UAOZXrFmAqks8UurMViVsFkSbGqir0Y8+QQYNlQgQ3CupSQlpw/lJYV8D2DTmkb8RC2oAAoGmG+nvaJblWDGjFJdzAiKHIrHOV/4IHYrS+lmoifj3wCotEQ+H1RPQVBhxICCmTUqdEq5gqjmbQozRsUNVkqW8tBsxpFUoJ/5L98zk5dBZ1pFNMQKWMKGXbPAS2zIBg3ZEw+HZt44ShLy1ZMNnyjHGOzDVDPrM+RDuejymnIFao+FaaqQutOWAqbjnczadWCCntT5USDTQlFumIQv+M1PuhpQ1UYrrRz1bCXXe41guh197uS2ApxCyRuHGjpQxRWFdTwgFCraeECxjj76VGlpxjODnrGFV++kOex8CYM6u6bhXIoeumhsvJHTYVv5y1yJ4SYDfMJBPt1MI08jMz6JIADWjtNKbihMGLedDAkT3GF7DzuTULlHwMhJGbK6AQpitq9DZCU6ZcsTeVnqTO3JoVWlTpHmqQk0bTR9QMKIYN4+jyaetikgEUyGL6kwwa38oTwnnrGPkqAGJ1Og0YXpImUcJXXLUT2tIbkZMhiclKL1P9HaFGgnSf+ezhQ4uRzWCbW81SNPKO1rnwheg31/XIEncsdjxrPs2mEvDgr4hDB4lL2CwwLXplYJZT9l2As/0P6TeLLiHxRtDGPVmmxm5oBkx/PrY+QPGGH7S+MyX2uxOwxwGZEi9xEWREavzJVEhCSDVqJJ7jCkPJB4LMLqYOXOrPTpHUc/+3VhokTdE2tmrhVamKPAKAwh8CSThEqn4k3J/FEJar5ttEVkW/CPjXG2LnJUIYaGsgW2cuX9KtYyhCEkuqh/GTwV/wRiyxs8Gkk16/R6xlAg/bz8lFelUAWTpR7YK00Ak4WHQK6wV7rjmmg/JbvjPlZYmfSYuQxTUbYzIRhiSyP7nbF4Jcxka35kWB7DNxjpFdGYG1pMd4xaORkZ1TeJj7/FDbXEVVIKo5h9erInXaJKHDPCc8AxTeP0edoWhIx7G4P4Ho0VxV0q0x7/ggyKBKcCtkyNRWqJY4qH5Ktgs4c0U7SsroLM0/0kcguce0ijBNHQj1BWiiSmixuoaqMYLZW6G55WoDt1Zw4FTkMO6/QiHoMBBoorUz8O3XE4iLhtq48Q5DgiRhGhluwoxgyDMmJTaANci4CeDKHO1x9vwPkamJ1iXog5BLHrkmEnMPuYVarDbhhhJWR9De0nJoCc2cHWYZgNhp/yEYCR4U1UjKjyJqM6IJIbM/cUbkUKplxJEnPiNsOXY7rZRo6xmKRZsGdY8F7YneZ4MSwzkxLT07JRQbIwsjOqbACB+5PjJuXfRhYDr5j4s7HO2Ajzrl2wMQbL9vUMpoZyrqwztiemLYwzSCeCM4DMgJ7UldmrNP3kVDvN9SRR4OT2tpNU6VOZLewGbBR4BPeExRiZkbUmgzI3xM8jFWCBa8pwTal6rdU9kR+BO60BJYF2odHM13Nes9hfTQqBVY453qrFIgEYiKs4BUvADtwxcGeWWjHkIFNC+Iv2TMrM/4ShkKEp6ZTnat9KqHkqMz5+mg4BeyFXyFajzHiz4BbEdLTAhEAGJUo1BBclK7k7mU5wWX7mfxschRkEi8TYjdjocOEsx9lmiqX7EjGl+VpXUzGjtCo+UhnKmFCToTCorbv0z5lBgdOKw1L0PLkDYKqvBQzStT9MPsFhMSVUkFJZFZwXhq7o/PBW7fngFFphYEXmJwwqrO9o3RIYh4yN1eco64z7YdHrGg3DUi5rBUNd2LTj+HfmoMikBKrEwB30ioRXErk4t2TC/FE2DwsTgV4T8zjhKwQEsZ8uANWSsoktQCmUOSaPEAxJEoYwC54O5n7q2d5MKe84hxtDCbMv4shsiygCVJQqBRs/KcT3Kp3h5l5lXIFjipCVUMEqbnHgqkCPlR8br80s9WJ5dkYWS8z5OkxwlnOuA4FskJyUJpUsEoqT+kqGkok8ba8P6FMTJb2c9hQ4rQDrdKQWvIUiFHj027/9SaxcdaRXnCp49913G8zikK4O5zXlVghnI0NIsMLggmgb2MWe9934UbtQbiBnckroMTx6260Htq43EnOAA8vuUhCiK8NS4G2hlQxwecQ4ZIjKGG+PSIEVbo2QnhUEYlGcBDJ4TTTJCuNdTC4t3+rOlT94/fu97tLffucrVSCRTYLGFoSW28kVJkVRjHxOihPgaTfRFMCclIpE2cQpl+tBVHILv/ahj40Mjn7zBz+ss1xrW3IKq0E6IUMrifyRwFY4JJGGp+6Mo0C7M7/qijN6cRqdqRAMiDoGNk7DNYSnGgEOhUFOKr3lKdEY4dzKNxH9GfTeMYtkVuImZ4KfQE1FEinAOJNQHhHIlfzVw0OyVYYIv9ZTo+HXEI3DVTMhYScagVocjwjXR+SmNScQZqpzcnK5XMb+ujJcxKFcZFtaiimC6SGMDIVK9Wg+yckcdNNsNaERo8AXtaZpPFI4gH2xOFi5UMpiDc8uJoUZVrm/1Dc3YOKIqIlTaCQFZpgtzpKn4ILoVcleJydObFkRxC6CE2cKYaYYZYrNfLkGV8JxXJwxy+KhQTDeIUsFyNJpKxbyUa/isBAMrouFxSjfG3ff9O6PzOmbuWP7Vj+SOqMKh3EfXpYQRA5bFtuIIB1HtzIzw7qfSISAEl4FhBfFLmmcnaeqcsAaluAxVcpTpYO+BaUbIfoKpJB2F1JKYqZfDAjR3bKcsYNQTl6ivFBh0+D40OVr+lFm+4u7Fs5c+Gvv/Ug5cFxM58sCqRiJJbIQP9s5fMAgljQmdWcqBaZ8VD3dS3uVAgHt5pZA+ofSoPOUPkcgjwjXK0lw+LkyvBH6cJwT8bntDHh6I7cEklzjdJLgMUla8MdTuB56JIHEx5EJiACmAAeaIWUBFgSSm+ZDZDVnDPqQhAgmqUCtDhIS4tG2UATJicAtCe+77/6HH374rrvuIhX2kY8cOcI5XWRrkFNTQA2JSYnEIR8cRoVRjCAQP2Iv8uQRNScOZdFUYa8EqUSApCIbYHy05q9dt+6Rhx9+9vn1vXMX9/X279j0bOXgPqfZwCwYU0EzakEmrHNmOGNGDrYGkqysqH3mbXgMcuOQCDmDFR1UJ+9TnOAIh79z9isncSUxZuyBFAtoE5x08nbE8RaxVWp6111y7QVLz9+wZcM9T9xbadZlaaGZLbjeeK3qcQZ1lPiNgLcLnGC+XslL8RBKv0xQmPZCl47Uj9fES+EpZMfDI4igSfCTA+TjqcbhkWbFIyrGcikxCYKAcIR5Kx9hPz4vM1rQEoPQu7bsmt0zsGLeMieX37p7W1Z0QKwG55JRbfoSVgIN5kEzcF6+ccJpsplRXqsQMnVnDgVaI/PVV9h0IYlOlzL9QPBFAydf6XMahyu9Tf1E0HATKIwV3RpHNyUrotGtyZYr3ZqBTXyu3OI6CYmAny5O/8ZqszAIjFZW6JHt8LE3HsPXMHjIBkRrFgolQogGg9BosOqHsBwr7AwbygTsOKcLrQXxE5loHLvOLeHkQN14QIkMQqAQD7c6wGjFsY7mUFvi6NCltgAUx8wQkxxwROApcaSNcSBaC2Z6Av8QZp04i4kCxmVcYJWvNjTD9jPjh0GdGEPoMejAqGbRHmPDvmNxhJcfJ0wZM5GdB5LHm00YpcTJN+Cd2LDZbDTDiuvkwqABOEHgKO8hGmvm3FqA0Wnb7upNbC/K5OB8PIZ1UPdy+VLGm1ee8/qLrqyPjN12/x2Ho1F4KSAVatRqjYJbBB092D/q4dq8NmF8DGtMi2gszeSVMXGGbtCKNtJYpRJ+Q4TQdQsQmQwhMqTmXZTL3RrIq9E3QiCPiA/mSHJOG5G8RdLe8MnBjX1KFuarFnG+WPPOB++rjYy9fvWaJTMXWmCpKJuRvZzeSIeSHMRNKCMzk5XZcurONApMmcOil9Ev9QrK0Cm1v+LRthNIBI3TecojTUI4I5kr44dhT29esGDB6tWrsZLO1xgnKkcmfwYAY5uEc+fO5TiZxYsX4x8cHIQ3ISsd8HTcuXPnUSJAQFnnnHPOmjVriICAnMjEISbFweAQhwNQYYsuvPBCPIRo6VpDjckVxxEv1IcTcRhy5OO6DlbYKYiqcugX+TAgKei88857WQ4L5kBbSpKlS5dyxA6jF2BFM4B20SItl0zIinmyyJREoCLmWcTuvUx1yAHgjBxmVpwsGCYr17yhd0b/8J4t+7ZvQmXUJpaBcijOebKjse3b5ZmLVsw/d1WhZ3aQ83wxvIPRhFrBBqYxI+3FtudnC+X++SsvvaLYPTtb6IkLvdlSn1XosphC1WuOxQGsiZtzrIr17mvfOa9/znd++N3ttX1xUaaSooqKbWvHndnX09fbOzI8wrfALhXWXHnFrJn9fq0O/WkO1KONNA1a0dLZs2dfdNFFWKxn+kwEDjEkDpjGU153b28vIbyv7u7uQ4cOkXbFihV0BmzbQ0AleKPhwwqR1eIly1ZffFFPuRtthobfoPeg6I7gDU4KfOeN10aqY7sHr7zs8oyd2bxtiw8c2Sx18hFjNgpFzeeTrkvWwl4Jh8XPrKhO+ZvNO0rd/ykKTFnoTo+krqAAPYyeR+8kRJ0OVNMlpDn0M0Ux7ccaThIeEULffvvb337ttdfqGCYHPBwN/w//8A/Dw8OMatdFXTF/0003KVSREAQBO2655ZZt27aZo/GYZQS/9Tu/DXDcdtttH/zgB+nlOlq4/s3f/I0MA7oqYhvH/tCHP6yHaFENRUxS/fjHP37qqadIRc4cDggGffSjH+UpNaQ4RhcFfe0f/8HMMaWxAIvWk6u0cMLR6QmRUUH+JHzHO97BgWD4iUlCRuaDD95/xx13EMHkI9NPiAM4y2ferO4ZkTtwzcxQlD8ZTflM6Df8otvH2YhAOSTL2wXkdT47K2PfcbuqDYRafYVFy9/z4f+YyTsiTMrk/Hr1wN6dD/37t92gbmfQpwrjQvdwpvyhX/9Eb/9M1gqTCNmXGzrFKKp1Z2vDO9bd982vVcYGOaMVcOt3+5fOX3bgyOCm/VuzfXAqcdCowYGyCMkxzr/80Y8CNF/4y7/8zd/+RO/AzJrfKDou+/i+//3vP/PMM1gwA0qKXcU3vvGNNJ+2AyVUm9cBhW+99dYtW7YwaW2Ewe9+5tOAOFAONeC8mFn39fUtXLgQ4l/39p//4he/SM70gd6u7tWrV733ve+V5dQk4yIFS6K1L6z7xjduUdz3a75jF0bGR+b29e8Y2nVw5ODKJef1P9I3HgzmPTtA5xWOk2UEEa2JQ4JvKC7+luclb1KepO70pcCUOSyaQifj5Bjwha5GR2TsEah4RB/VoUgcvqsah76lEXQA030Jf//7P3DllVcSwql89Fegge4LX8PTF198UeN/7nOfmzVrFnnefvvtmzZtYqjQrTlii7FBND7aQMm1b3kLo4KTshjS9957LyjA15vkfKs5Sp6iqQ9Hcl1zzTUEPvjgg/fdd58Mm2yW4QH84YfbYpyQ6hOf+AQeQJN8du7cyaGBFHfZJZc8/PDDtE/wwsA0lUfcfjSHJbBjMAvi5D/wgQ9wRjSZk88jjzxCu+Dpli1bSs6cGg1lqBK54eHkGdbhjcIBMiIsRPH9R7aCvR3hW2WYyTAtLVj9+v7Zc/dseu7wvp2YHw79upu3A46WLfY2uwY+8BufrcRWdXT08UceOTR4sK9v1rxzlp933vlrH38wCevFQrma5N/4vl/rXrC8OjL4w+9/f936zYtWXBiVZgwODW959tHB7ZsGd233XPYL5qxG7tJ5F527cPm63eu3DG0dDkYs9DCFSaNaovzwhje+qaurzItzPe+xJx7fvWv3QP9MugFned1zzz30CloNY8XHgxfBe6T5UJIjlzh1cdmyZU8++aS2/S1veQshMLAcdMYrnj9/Pml5CjdNOJ2BYx/5kFxw4aob3vf+MI43PL/+sYcfq1Wq8+YvmD17oG+gf92G5/LCajKhFmPM7NGBF3Zcb/m8Jfv27d9fOeKzSGC2OfNlgKryfoStEg5LwK+likF4ymEJbc4UN2UOizfOSKMzgSP46X/aVL3lqrc8YmDjxwMigC/0YBLiIYPFi5deccUVpIWfWrduHXGI+eijjzLV2rp1K4OZtHyldSrxp3/6pwAT8IQOwe/93u/Rpz/2sY994QtfoA7gEdMCEr+wYePXv/51iiB/htMNN9wwf94CZMNInRHQLlywiI0cYNM9d98bhHJG6fPPP88wI08AF7yjJowxStm4cePNN99MBBoCTv3RH/0Rg+0Nb3jDffc9oC3lEUk6zdTGTr4yDeR4anLmOHsmsKAVcAwjCTv5nvfcQB0YihRNEm0m4nKckbUbBq2tOwq9rDw8ZraaWLWwGSYchUYqNqX4ZfYZYkchZ1fizLuufw+ynNrQgR/+4xfLVrzb97c/Ofedv/qZUlf/qjf/4roH78gEY02nMOe8C7NO4Xtf+FJXpuEn3r9+7fB7f+N3i82RJx65zakNGoEOa4xxKesOlAc8t7zhwIuH4uGeruJodbTc0z0eNMIksmy3Fst2nfGo/sW/+OtGddx2vPvuvOvz/+W/0pbZA3OAY+h8eHDoln8WZopAHKR4+KFH/uAP/mBGbx8vBTBCpUy0yvzwW9/8Nq970cJz+Frcfdc9fE5Izrfn3OUrNm3czB6h9/+HDyAL/Odbb9n0kw3g5U8ee/ree+//3B/+vky0u8ojo0NF9h4ghudMN6c5FFZ3jh8KomjOjDn5PZvAMBTOUC6Vjtd+Q7S045Tck0M6j1LPaUuBKX9eGKs4HdJ0BXokV5y2kHAcfo1GuHoIwc8jbhnDdDhu169fD1qBFwSCZbBIilZAA0/5aONh1sYjplQURMxvf/vbRKZ/kwl5kiExifDVr34VDyH4ASOuUo82tjJISLVkyZJ3vvOdiLGIxihSGAUZwTgwCBzEQ/4UCidFWtAQdoyYiLS4JQfqANYISpo2ks8xLsfEk9KfffY5I/8ScRvVhiUkEISt11uSe201hGzlILpYSJ6YuSDExhQKC12yeIdUHhCmUOrmWOiXiip8GInALmdx1lB+9sJF1OrHt32vGFeL4ZGuZDRTO/zkI/fzePY559etAmuFtJEBjQ4qr4rZZQb5vV8p55uzynYyPmLFkeuxaBiCIsj1uwrdzbh5eHwkV0TXJCi7hZqRPUFRTpTmAxU1k2984xtR0BBZvFAuhHOkFciqaCMVg2LwTbxNPLwpvkxve9vbCIeAMF/6crXVykpDKKi0fft2CAua84gvB68A6OdrNHhkaOOmzW6xQCtKpa7qWOXI4OGiV5g7fy5YRrVZfmTholarxF5usDbCO+/ySjSB10hWVFJU+FssFT1EYYog6fnIv1LRu76LM+U6ZQ6L4UG/RABBJ1M/V1orQ8is9DG06Jq4SqVCJ+MpfZokxCcOISAF2MEtH2H6pT4lvubAKEWeRLS+WTPxb9u5I2CFi1mUWZsbGhnmm4lIt1AuIeoSVoVl65gjPIVnoWgy9GEHItkAiDiZMUOtnnzqiYHZs2CUrrzqijVXXE6c3bt3o/b5+OOPk4qaIPclvg4YaqLNIZzpDCoCiH4olEAc8hcGD4OWuvGjuyN9Zh4EGCEuQnVh3oKFUdK85LI1V1x1FXK6NgOqqRNmtZCOaQiRGVGUxXQG4rFEB6cIlfw402hi34nRFjejcTeXFNg1GOKJco1qQXghmaFZnl0Js6X+mSHGpnNZBvEAb1KWID0/DMYG9zrZeNbs2QCfLD5ylHS9li/0z7/4TcwrK5XqO974FqT5o0OH/ZzLec3oSTDTxEqOk/OYWFECirC8OHROqJKoLxiaQF5W68RvhPDgmyi/53K8CObOkEuq1mxCChDn3e9+N7NmAjsIRXJgGkIQQjTtEnhwRCNcI+PRXsHqBxn29fR+/vOfz6Nn5sdFt0i1c/BNUdQ/Q0qkW8C7s0KBJZwGB+9KE1APo7uwniG7ifgQoJMm9ZX5oMAVJBTV0ylp5+vbS6+nAQWmDFja/0AZ+pl2UFpB15nsCOEpHZQI+LnylA6qSdAVYCzgxxGHcOLQR4kDvjAktL/qI+IoU0OJeFTeRCDgQk3IR/OnCOK3JomGGyKEfHhKEtgxpMJ33nknoqWVK1ciNEEIhdwE2RYTN7Lq1JAkZK631AcPpVBDSidzHWkUJGhomkMc0Iqpq+Gn5FBYWsagGB4e2rNnjyaEM9M2khy06tSTQJKDCgBrEoAR2Ua97hS683ZxvO7D7Yg8uz6S9aQ+jHI2zKDCgC4VBPPrDcfpqgaR5xYqWJlWZQKqJKqqMv6DWiXx62JMWlz+zn//0S+8/6Pv+MX3Dl16SW93l8fUKxf+27//K2KrOOQc2iiHwoQwTMHI6BEW4PKR5WXQSACX5U0hmENaTZuF8QMwzDt10UdJmvBY2jrICB5BDcDrk5/8JJRk0YNZ3o4dO2DBPvShDyF8FAw0XYI6kS23mpZAKAxV4csIx084Lw68qdXq27Zti9gwiPZFEFJhYCdI6gf3HUCY73mFGEEVhBqPMvVo1uyZ5OnHPva76EuJ0U3Gwhe5tZgrqm4csAWU0452QPr3zKDAiQAWLev0PPx0PkYI/QzHLX6u+ImD41ZDNBA/TMfu3TsRijPVUh6HvkX/5hFX2BZi0nf5biOIRQuBxTU6HHhBbqRiwONheBBCQh5JASYtj8gBxwAghKfEBOYYAGAWgQ888MBDDz1EkmXLlrH+iCyczzgzU8YJwwO+gMG2b98+clZYYaGdgg4ePEgmxCEhHppGhkTQaR2RiaOFUhzjE0nc3r27v/71rxEZ4uhQxKQUFQDauDXjRDiVIG7OnjMfTmTtM0/4fqUkR73Xw0bTRTQjrGLddsvD9cQpzQjzpbF877jb7yY1Oxzuspr1YBxR+/DIEbdnoG/2AufQcFz3a4gIS/3zzjkXTanqvq1WoyIVCDKrli6DFRkfOjinXKzWqvuGDj519+3B0N4SZ2bDu6Gz4IcOZg8cu9oYafi1pf2LDg7trWVrTdGtyDGbRCuq4BWtgGNDYsdiLpapma8O2qkMfGVy4W3xv/W6twDBcLV8JCgdmnDLD/RBTE4EAuF4COcWuuHnETxyzOQXFHTy5MZ1x87t+fzboPM3v/nNsB4UbA/VD7jFjIumPbxt6GSdqIFWex4c99zu3tgZyJXhpvYd3h8yueYB+ytks2SLO5YeaJgscD11ZygFpizDkrdugIluh2MMawiBOMYkV8CCR1x5RAj9Bj8dlEf46YJr164lfMmSJVdddZVCA1Iq4rCWB4KQikDWjMiceRwMEZH5dINiiMaJxoohV+LolfgKeVKDZhNkIZxA4ms1WGLn8044sEWeQAZLkyQhAiBFTFLt2rULz4033ihDyExYeERC4rPUxZW0in1URmsLm0Zk2oUjAoVS3HPP/YRBheT40ksvJSZlgWhMURHfdHV1kZAr7BhFE79vRv+nPvP773zP+z77f3+OiQ2RPcfuwtRTLkYdkuQ5i/XAwv79+zEys3z1ZeP5ku/1+nZ3PcoUPMfNxtXDB8LG+Nuvv76auGNWV9K1ICnPvvDy11Gl3S+uK+YaSdhwXXvNpZcws/7yzV/90s1/f/P//vq/fP8Hh44MszpJiagzsVBpO1atVm0k9V2Hd2fy0SVLVznjGJzCRrPwsHaOWnWzGQfhIrtvMEcqMyzWDS1hnHkREMeQQegA6EMHZtPUH0c4CA7049dXQ3wiQAE8SjqKoCZcCdFPEVcYKxQmenq7rnvrtQXXwVA0BbMvySuXumb0JCG2dfJxI0EfLApzUT2xRuPLlpwPb7VrcLefNFDupxR9lUAisjz5wYEazKIsWYqVe7ypO2MoMGUOix6gjWO84dRPX8Svj7hqeOcpHo2gkWUs7d792GOPAU+/9Eu/xLwMgSvcyuLFixHxoDf45S9/GaB77pmfXHn5GiZuv/fpz+hKIgBHNM92vv2Nb4rJIz7RsDzInsOwXCiiYan+Iqt+SC74akeyj8x13He87efBml+6/p0Ig1G/Ig+YGnR8EPG+sG69LdOi6Ju33IoWxcJ58//Ln37+2WefBWVAHIbN0KHBjes3NMZFSgXGkZast2zcRM7Ic6kbLBXyZuRx6F4wRAAXoBbA+uWPfJhm4mg1NZ83e87atc9+61vfqlbHgDkdyRddcjGQX2804Ct6emYMDx5EVTQKaiRhBwzF1YPQ9pxDu3dccuXr+2b2v/8jv35g/94Ll8z+ye237tqyPtOs3P7dr//KJ/+fwsyBD33qj7fv3AUjtvTc8wHOsf1bnnnk/hn5huvlDtSHG/Vq05353t/81OEDezN+A14laIz6R/YdWPeo3xgW4Xqx4FmFcDzaMbqzElbmlGcOOP0HcyMNUWUH2djxI98bIAAnbJDl1FFwk/2JAgNhw+cKJWFwdm7bvmDuvBve/Z5F8xeQBPURAAsPPGx3qSx04ysWGl6YfBGTmRy4krxzJRrg9bWvfe1jv3rT29563ZUXr0GzAbL0zZ61/ILzDgwe+l//83+yROA6xThoek65EGRnZkvL5yzZO7p/OByNLNmhFLNnW4QGdMAJJks7IVdBq5cJ7jxPPacjBU5ED4t20P9w6uFKh6Afv3y3aM8WNQIDVcmwbdt2Vv0BDj7OoBLcCuEAE/w/0nrQgVsUqdDK4RHsCXwWYMF87a/+6q9AKHIjArldd911ICDTRhgi8AVgYmCwLEWE+++/H14GD5IUPvvACkuBYAfIyGQTGRNljYyM6Ced4QHfR0E4NLAoDp6O+nzlK19R7on2whTg4JK4UnkWBMmHPGGawCDRnEQqF8ebt2yqVMZY5EIlgjksDqH+3t277rrrLua5xCQ5lSfb/YcOXnXNNV7BHdy374H774OPEMV2RMiOPV4bZ+cSYsCs5R4ZrZaL3tzZ/V0lb9HcAZiNeuXIru3bHLYERsGG9RsgUU/frN6Zc8vd/UU3v+HJB+/+wa2luOJkoppfzxb7qvm+eYuX9hRzC+f0z+ntnjtnzqz5i5acu+KqK67cuXMXvJ3fqAFM8iaZQIW5S5ZeCCQ9s2Vt1gND2AzEuoeN2Od1r78KJH38iSdHRkeZtiLAYthffNFFtHTz5s18bHgjLPVCYchIw3mztBftXF4By4V8MOC8aDg6K7yXu+++m/hw2RAQ6kEc+gPoBsqTGyQaPnIYXnjluSu6iuXFSxbPX7ig1NM1MjZ6371379uzF67JcQphLbZDqztT+MWrrl0wd+6dT967fXiPj7wrwz4Ks20A8xR8k2RBkD4jEMUfTI/BaqkUnpDUnSkUyK688IqXrStjjy7FVZ/SIxEYK9/eia9PJ+MUfg3sPCKETskVR0L1kzNZGZ4lRKzD4jeoAQRoOB0aDGL6wCPikxVfaQJBK1IRgp8rjvjEZPwTR9NShPIvhFCixsQDHnEF1BjbcC4MLWISB6dxtG5UiSIYadyiVUQdEK9TEIGkBQoBRPKntkTAD66RhJqDjAp8cl61qTNzROAMoAzqDd16Qj3JEPAC8qiPI7qanIXTPGfBwgO7dmPTgAzHxytu0WXhi10n5IPgplqPfKxTucV8sThr5gw7rB0+uC8MaHdcLHnj1bpbKo3VQqswo29gABHR3l1bvWajjCn2es2y8xhKmLXsojd/+Heh3uP/+vd9TlLDlrLXU5q95OIrX9/b3XNw+wt3fv1vuvMNmCMHgvlRl+994l2/sWjugr/9zld3jO2pZ5l3sa/SQvhF6+G4zBpcrjFeNSI50aelOZARCtBGaRpLp7YNlEMxWE6IrHF4R5CFQL5SSnBaQUL8XAnvJNdXRnxCxqvVrmLXjP5+WLu9+/cQaNYcEE1igtX2Yscbz62ae+5N19944PD+m2/7x+FcteFlgix7mPJiYxpeK5cHWZmIGsBSa61y+BBrhdi5oPTUnSkUmDKHReejx+DoUrhOO+l5+CcHdp7iIb5G0IT4ddjDbfB0aGiIzsr4JJwIgiLNJgBBCI4QIsB2KUzQs4EPzaeTM/EJ0QqQRMNNNgK4mgkRyIHPuKpukgmPCMRpEuKrB2gmDgMPMIoQkJhhQ3xuqSFxSEhkagKDRmQdaZobEyciIDYiPpGZgTK6eERkzZDIVI8RS8SAg3Cs3OjIMFpGoc+iahOTMkEcsGuXpXoyyoRxEYlW1Mg3fbQcxof2hcMHcnGYd5CLQa/Ac3LB+Gh3AY7Cb4wdbo4PlTP1Etueg6qFqZVmPs55r7vunfkZC/79337g793cGD0IEzcyNr7nUCXJeQsWLzlyYO+Bjc/aCRqXjF40Amhbsn/3/vNXX7DygvN37to1XBuJspEfNzCMwBwKKbu86UyGkx+QOfFqIQkkonU0CkQGrWg4TonDI9oOTfDQ8NjgMreKbiYnISbJeeOkomNw23nXMHGI/WWSW62MjbMlE3YwwMQEHy6R5GOZIs4umzX/xnfdQMi3bvvOweiI70QBKwmWCALZTWijVAqtRYZFaYbDEnUU+q4KLyb6sFYmvZ7OFDguYNG35DW3+5n2RboL4bSHR7jJDdPu2AnRaJ1bIhPSCVQPSWRwyHZ/yRJYM+HAAX5QhnEhHq50db1yS6X0lhD9EajhndtX9hCZYaOpiCmduVUByaeTllLMIxNk6q+tIIa0pM05aiCEIgS/mHUhBWOYP8DoJJZTIyihiE/jRFfTHE7FdAx9J6TC4BTNQxosyABjQNuT0M1guMonU0Q+cI0ySFnXg89BmIxFBFHmxkhwIiZHY/YhYmwP8QzKU+Qjy3oDi87rPef8cv9AtRaOojSKqNzrXn3lm5iX2cHYM/d83z+0vctBIiSW+BAN0vBq3Hhx1/aLV64+f+XKpzb8pBKNZ9EoxzqL6C9lWZkD2hzmiUIgUcYiHal4ZahtdehJoNKTEKWqCREqkQAUU4/SE7LQuyQj85RbnJBTbG9RqGCMsES0X4oTe1dgHHjUbRc+/tFfwf/NH3x33/hgLd8IUYOVhUCRjmlik0D3bUplyZerASwpnP+pO1Mo8Er8MD2G/oHTxkz2nynNO/3rycSE4ccgkrV9I1NB553hbwJ5JNY18+bwVJbyWUtAI0si8IBBSzwZyAxPcmBQS3NNhua53IFi0cP3396NdYnFi5f1v7O7YFeGh8rlLgzGN8YP3f+j7x3aubHbzdRrlbxbAgeZgsFr1bJV/8jOb//b97itBz5KBhjdMVWiaEFZNYkjJZjKG89Jumj3k7ZRrimOj4MAG8oSXXkvHB///m3fZxf0zuHBcTaGg1ZHK4UKOBknydv+VhDZdHyp50ygwCvJsDrfQD50LyvDOhMaeHrXUYaWoJVs4DWDSe5lagvuCLuBTjZ4hNFixpVYeRLbngwyuQjDISn1wNTJ446jrkAtpkoSLY+AyC0eqFmz5p9zwXmLWcSwcgVkakODe7dt3ZyLONM5dOKKh5VBSZZzZdbGTmL2YLtuhYNb7cRL/KSC4A7NcVTn2bqndRTL8VIXKm9qzM1JcKhOCI4brFJcjuAdaVfObmLwPoKjowKYS81YSPTCOlvIE2MGlbrAcQq6m+qZTAiTOiumK3ZNJtxJqH6a5WtMgeNyWIAUTmYukxwhHYZrUnDqPVEKMJbMuBGWQdglRS0wRg5hxsF2MXlSHoFZENFkBJrRC14Z9ooBedSg08hmZDIlasasEkZBn10e3/vCM/vXs12Zk7GYfJXygReiiVZWWRnyK3QU0LRCQxR1KxQVEiR+HisOGAdEbbw17M1Cm4AWjqkjfwUvTq5rtY7G8jO8lRANUHWwpgPSOxYbTUF5VFpRbVfiKIWol1CsXT2St73y9yiqTX6Q+k9jChwXsAAmA1mCUB13GjfkzKpaZxAJ66AQw1UWsgS1ACwEWrImICBlcEH85ghCOblGxq2AkWCWYRl4yqYd7hT9CGRoCriJ1b0ygvB8LuhnjbLmI8XvKnZj/cEJonLeqfiiX5a1C+wFdwvs926wssZCHkrnotyOJXYkTVGI9WTWEBGhGXQy6Cr1YeOP+XMyh74SR+G7844N6wTCYtE+qSOh51hrTJL6VRTEBL2ppcjviD5JTdTMnTUHIVvqzkwKHBewEGDRIqBKPQpeKgc9M1t6OtaaMSXgwhiT0QXItLAALDJDFMm9KEdpqPBT7VGn88GWyEvQKovJY2ZnJATRsNEnGpnCUMjCqKy3xqE/PoZqFcuijcY4CTm4q1YZ88pwWDErdgx1DmplgY8XjSoZdtNBztiSpQmk8SwEAH1m1xQSfeVNCAEXtNonlba0QhwUUjoA4TB6yFexDSQKVuwBY+Kap/2sGqK/0oJPCKjxDeQJFQXfzUPC+dumqmafXs8MChwXsKi+TgDBLGYQLNLLokx7zevMaNzpVcuX/6qLsJ2JmwqzBAwYVxITIAN62AgnY0yYL47BEfuZInQHb9qIRkzQCvPK/IRxYFFNQsSkuR50CCsWhDXU1G3OQ0X9ja02xATAMkGpy2XjokwPXcAuHsd4jFmPRXqG8oAosWUDmD4LM/CIhcSCM9J9apSAE8IPCptn3NFCbg077nWKU0ioIKQwQKPclpzhyJSVetNYVG3jIBM12cTjEpElV7Hbjkemq0o4Qz+5gZIG4sUvBG5dW4BobtPL6U4BfW1aS3nN5idTEll2bwtH6BsoW4JZIsJCDCx9Tn50Jv1MdVJJRnRf/ckN0VL3ShQwg9BwD2ZMtikmczoCDPlkuCpvpeOW7AyKyUgza4v6OiZKgQEB1zr3vEeO4eB9BlEoqktNcxQQlghRqpRd5TZWt/gaKXsFN4VFaTgX1gc5bKIpmCn14EVLVQ3c4OFHAZ36dMo6CZ4JQBFfG+9Q16LyAfphcVzwMJjqEiKddlLDW/Vr46k0QSg3QZmTUNs0y5NLAWvWwHyZjpjuhwURRLzISoTb57PP156Pat6KmC3Q68W0o8hl2fFKt0a8KWhlvrS29GwsUqGog4EmVIEYYzzlm8+UQrr5yW3EmZE7RDj2JyPfLGSISqZQixchHwQ+DXwuRIasUmNYGo1pxpt5YxIfkpOetPIQVDGH3YtwWl6MlEcqYlhMm2SsEwazJEnky2NwjwGMB4kYieR1iYqVvFuKl7kqaqJUgzikkczkKr1FMNT8M42Serzq39TeljZSMzd+8RrimCKzWMWhp7YmqvRbQyUTQWsrXhOTB/wlsrRc2mDuaXvqziQKMCXsfMH48hi/fJFQI6avAkxiEVhmB6IRiFojJnJl+wXAhQ0QJB3KZkf1kENKzPeegUFy8xGTLoJHludTdzwKHPXBN+yDgRuAQQ6jVyf8lADDMaxBm93gqabS+HptxW8PSc3EPNI33g4wi5OaZFImJo7k347WXrgE99r10Hwml3kq/O0GSeli5qrt2uHte/O3U3sNfdk4RyVIb05vCmDwktUoeqB58zpC5NtrBkzUtNHLyXH4TRwHsWOLgJN1oyCu8xjrSP5Yg2M4beaG2BjI1kMrauZkBsE3mS+fyZacU8A6vbtAWruUAmcOBeQTamoLSJkfNjnMnF+FGsz86hxaJzt+xdIuuBZG2LGTRNV6xSsh5WC3WiYA0YAq0sJpGyGXiG/5xMvcJHUpBVIKpBR4bSjARlMxdZLJGtkqHna/shVETqjMYeQIrsop2RF2kjjvmxM52UkqWkBiLdMuFMZRMmTDVi7jeF4E20UyppKy1Y0ckL2wjpMCllA3dSkFUgq8JhRgd60tLJVIK8zqnhFbCICJnF2miFjLTJqNYtmtj1eyucCOh7DZwcwwiEqJNSPOlmGkwoTjtoS3MlyVsmyvSfXSTFIKpBRIKTBBASNpaslu4Yb4qVwSVgrxlDs+XrXdpFhoNoJdxZ7gP/3BLy/tP5L3hzdv2fudf9205WA0VA/ccnejHnicToDqj/JrZpEL/SBR8JP8Uj5rguKpL6VASoETpgAL6EYiRQYyfQNdFLbExjZiLBYEOeQGPGKTRuAnhw4eObD/CMrS171+3hf//MP93fVykSMZGh6mx2NZRgSh2EIrq+vCnCn2pWh1wm8nTZhSIKXAURSwZs5aylwukw1EjCU/JobEYOeDzOwAH9RzrKybSbqzcd+TT+y/+95d99yzcd7s0YWLZ+4eyW/YciiT6Y19TrPz0IIJ2Cwrm+lFB0a2i3BmieQm/1OXUiClQEqBaVIANUXUGgxUoX8gS4SqSKXclsjgxfJJE8DyMjEGi/uD7PKxoLj5xWHPjWd0c0wTJjnZ9O8abcdczAY0jHugsCVSfLJSJmualUyTpxRIKZBSQCiQz+RY3TPwJFNCnb6BYmwhdUQ1Wuw0oT0aZXJ+TqAN2wGenY1KbgZT5ezhihtY6cWAbi2T5RBmFgwxmQSPJrveRO9a5pupSymQUiClwGtDAeZ9ylXBDIEvMFNGI0GvLRWtzqofyMUBy4HsknczbqHryNCInPfJcfB2LrZCNtCSiSUwJ7NMg3fk2Un+2tQ4zSWlQEqBn1kKYAccARNLeUbMJDjFvtkJMTzmOgxpgB8H6+H4OQfYKfRGRX8YzStOl7O8bL4UyEFKYkI3m5SsBF0tAAu9LXg0FgrRjlDG7WeWyGnDUwqkFHhtKAD7014oNGjVFpADMQi2EELBf8lMUMKbnExnJ2HsNzJ7D3BGSX7V8nI+Hirm9+WahxOrLjuexb644dTYlMo209emkmkuKQVSCqQUEApYs2YtEsySXwteZGYnQiuRxMMcAUIyvZMjbQSP2PHvZMbrh0evv3bl1atzb7qqsGrl8p07d1SqaL8XjJ0kMfJgdt6CWCRP5e5pV0spkFLgtaGA4hRQ1WGGQBvlrSYDDdFwYvNEjo9qNmvVzMYNW+r18fkLBq64fHWZTYUqt1L5vUFAwI4p4uRcXpsqp7mkFEgp8LNKAYRW6gAWI2lC3mTE5KASB9+xbRDFUcTqbH4mHoZFwkzk2sHKFZk1V16+63DlT/7sX3ftfzDOzk+Sco49OhgkQswlOcnJeaiPGk33Vhnpn5QCKQVSCkyHAi3WaQKtWplhcTTnOF4UNv1G4Doe5hwxo93wa2LHLwkuu3R+rTb2tW89tvew5TcXNYIZHNWMEoNI8EUjCwsObQScTu3StCkFUgqkFJhEATisYydtgmJsyoGxcsQOLbqjiVpuKHouW3Y4Xj5uVr2y7VrdmThoxoVcpiQ2xGVJEA0sfqAWEnfM+5GVYdwmFZl6UwqkFEgpcGIUMFPCl1M7YEoINpW8gjGDlbE4QTjiSAI5PiX2A78hlmZLpYLM/JhDcr4nWg24l2aVotWJvZc0VUqBlAIvQwHMt7cxpS29QhRFRKxeOVY+BqREdIXsPMGcu2O7CLHcjOM3Kpxc0N2LDsOoZXc3/FE7V2Tns9E7hakyCu4c5vJy/NvL1CINSimQUiClwKugQFvo3oGtdhqOIUBoBWB5nuMHNUCIkzprtWEvV3O8ShmBFebdffYRcig6R1rKjmdUGTi9gAw4cor4idmWaGaF7UzTvykFUgqkFJgGBbDp3uawjs6FM3M4SAkAYibI2b+lcqFRryxYkJ/TP7xobuZdN6yy7eyLGw532YtHo2I2W0yaDoZlMDGKKgNiebJlrgh65eN0ofBoyqZ3KQVSCpwoBdoc1jHpYa/QacDBK2HTvVar5q3sf//v/7VUXFd29yaNwTvu2vbM2sHEWhUgZLfhrQSkjMKoHGCOzhYJzY8bCUhdSoGUAikFpkmB7MrVl09kYTSwFF84fDDmuDdmdGwuZD9O4hc8u9wtVkj92lBcqUaRF+ZmhdneMHZEdwtzDuzmadoYeOAwcTliN+vDZMUZNvSkgDVB49SXUiClwAlT4LgcFrwVC4WGUcIUH87CBGmlkonHvCSczxnmbHeGtTLnpDPzE/YKQb1wWEbl3Rwvjnkswk+4bmnClAIpBVIKHEUB7MkY9ucYSZYcrgvWAFr8ybHq14yTQA5MlfODsceAIS3O3OU5Yi45abXZdJNmgc2JiLEwloytUuXUjtXyOqr89CalQEqBlAKvmgJtDgvYOhqzdJVQjvSCSWKbDopY8pd4HPSF/RgHHENVC96KEDkBPLHlodmUGOfkgEK13peqvL/qd5FGTCmQUuCnUAAjMAJVwge1Mau9aohVd9FWTzjUGUhiroeiA6Ip2KlsPmqiwEVQAyGXWCXlKEOVshtVBi0TRJPMxVBy6lIKpBRIKfAaUMBwWG2ompyfTAWN0y3QcSSGYsAeYAu7orExy4df9K5QKuXoCTEjww+DfyAesivsjprJ5uRMU39KgZQCKQWmQQEAy0DOUVkI4hAAZoE7TPcAH+HBhMli2sf0kGMmDICxGih7BtGGT+DFDFQxSRTcMq7Nq7Vu0z8pBVIKpBSYFgWOywRhSUYAC/1RwMhovaOZlUOjXVYP+UVsiBaOC2N/RqZl0GoCoSRf4blSl1IgpUBKgdeMAkYUJZM448wkroVhzfaJNyKcgg2TOCKAz+WF8YoBNBguwmTuKFyYzCu5bSMgillmbmiAjPDUpRRIKZBSYLoU0HncT82ljWgaUcBokuvIqjqeiYdHJ5wIT30pBVIKpBSYMgWOQp4pp04TpBRIKZBS4BRSIAWsU0jstKiUAikFpkeBFLCmR780dUqBlAKnkAIpYJ1CYqdFpRRIKTA9CqSANT36palTCqQUOIUUSAHrFBI7LSqlQEqB6VEgBazp0S9NnVIgpcAppEAKWKeQ2GlRKQVSCkyPAilgTY9+aeqUAikFTiEFUsA6hcROi0opkFJgehRIAWt69EtTpxRIKXAKKZAC1ikkdlpUSoGUAtOjQApY06NfmjqlQEqBU0iBFLBOIbHTolIKpBSYHgVSwJoe/dLUKQVSCpxCCqSAdQqJnRaVUiClwPQokALW9OiXpk4pkFLgFFIgBaxTSOy0qJQCKQWmR4EUsKZHvzR1SoGUAqeQAilgnUJip0WlFEgpMD0KpIA1PfqlqVMKpBQ4hRRIAesUEjstKqVASoHpUSAFrOnRL02dUiClwCmkQApYp5DYaVEpBVIKTI8CKWBNj35p6pQCKQVOIQVSwDqFxE6LSimQUmB6FEgBa3r0S1OnFEgpcAopkALWKSR2WlRKgZQC06NACljTo1+aOqVASoFTSIH88crKvuRBM9dsBSXytylI18xFSSaTM/7J0bOEZJPm5KCX+LMJCXGaSytjzTOrT16S4Iy5NdQxTXul9k80Z0rxOy+FvEmYkyJan5wkk81kJZjfMW8k1ynFPNXSNaFQO8mKP9eUWK+u1ppDek0pcKopIMjCj65qfvRs+m4OxGEw8LOSHD8GAHCVbVpZucptPratxKKrN3OxxtcM1G81s6TSnIkv+GUc40GGnBRHwpAfHm61oHySJaGJLHUwv1NNjmPLyxpHeGIwNmdcs0lFxcVxTIBeCYwzPEiSXCLXFrpI8+Vn2t6mkpYj1OYzoL92fB5J29tvRN6LOv5CqHzT4ip0E4DJJQnF8sLsZsaBflmLhDHVoFaUKWmtPCQOI96lneStkPg53mMuDmMn79CoMIkTy83kXCub57W0S2sVmv5JKXBaUaAFJYyBo5xhc+SDbb7YRz0yN/BW9PnExNCn9PS41dkn+rwAk/nhkTFmwC6b5A0LMAFJjCszaBntL6nHsSWf6pAwDIEExr9lWXgY4TigSq+E4+cRHmoG3MoVPDFwb6BqAnp5ptjUaUOb7MQH4BWjeGhoZSJzQxwIyk8jkzMlCug3I4pzHJvSgxhACsGoRqNWdEvQUSAvjECmJAy42LZFZIA1b1m2sGJNx8orzjqOQ9qGX23GodXqDp0Kpp6UAqcXBfIMKgMS9PbOx1xmc4wehhCVFTThj45CGTZJnE3iXAwScQfPRRQuUU4iA2I5GVnCfHEPAMUWY0kcBXEBrfLNDCMoC4dlOABBtAyjTRBQIxg4M2lOg4uMZ4NTXEEKAQtpm2AWHgIZ9oJhJsSCHkIBHpj5mak/xBFSCCVbDIzAiUaAAgaqLHMLGEHtELob4ODWEohvZSWUzmSCBBiy4LPCOIiTcXjZpuXBM2WtuuPko3ocNuCZgCUQKYnDOnN+x80FiV+r+65VALAyQeDmyDgjvFVM5pFlRa6XceGnZYpPTVPcMm8uvZx+FBAZlhl58vGfwCwDIgCTVthAj3gN6IBMAFYE0FhxAQCS8SsMlA4yFU6BY7AlJrmZDRl008y4MqyZBmbhyATL2hNGjZPNHFes1kn/f8QDQik/BTZpBaIIHkcCCVF/FDbhX0wDjx7zbUoeW3OgCgc24QSSmCDzHsythAjMtfADDy5n862gBlYu7+WzESFMQeNMnISNKMl2e+UozhUct1ZruHlwywIta+OjWTtfKrhCauaEzAYFcsG6vGVD7Zji4jDwCSPQdqSY1KUUOC0pILOz1vgz9ZuMWWa8mFEEDyWjBnYAkRZf80yUCen9+cgVBi3nk1TZIrJCchKLEEeyY/KBtAuP4ci4MgAjKVF5tFxEJki7kI7xxSe4PU4l7Wnl4KSUmaJWIBQOqGJ84yEcP862bfxRHEjNpSUtzAKMtF1CQeMTMhh4gnoaSbDbUIxwAmFCcQRGluFyTV68J3ivZjZMrHzYdGGGnKQJcREWwtAihJLZn9WMajW3ZLlOLkZuBl0jv1AsR80oCIJsHpiD8bIyuXzGcgM4rETmlbm828w5URjbBUsml6lLKXC6UkDYGRlI5iNvxsxk+NJRJCNJWYB2K5AV53gGytD+dY2CAABAAElEQVTbIzMy85EAUwaJb04AC68R2Ku4ykydZELE518mmsJ/GZGWyVAwi6KFt2gPWhN+WlyE6zAMTz6fV3jSOSAsleu6hPi+D1oRB0Qg0HJAD8jTQivaAOkEoQyTBT+lwNRmSCG9xFfA0phEhgOVxkNjSShJQDq+E8LbhmHOoVhhRHNAFzSL/SSs2fmm0DqqysQwHGexpBqGjluwsk4QMWuNXRI0x0HZIjPAuFGL/ZztAFxBGDfjnJ134Jr9MM6ffq/gtOgHaSVODwpYM2fPE1G3+YlASqCEqqnghDEiohpQiXkJwhIZS8IaMIxAmTxzDkZTZAnceaHLpxvk4cdsj/W+PMtQyKqEzRKBl/7IOsdqo2QLcyI/CjULjoyaGCbLMFySyLif/rUXEVsnuiZ6Ta+KVgpJQBWQBFoAXjNmzFiwYAESrpGREZBL2SsiZ6HT/8/ee4BbdlT3nifsdMK9t3PuVt8O6hwktaRWDgiEkAgChEEILGziA5vnwZ7PNsMMnvkGG/wxNgxPPJvwBAIFhAAJIYECUktIrdRSq4M659x9+8aTdjzzW7XOPbrdauG+zxa+3+hUn963du2Kq6r+tWrVqiqyZApA3qQcBqqEKlJ2yRwCMLgyOCBmdgC7IH8K+TjkVbJAcJgm8QRkyTfRWeAniO45DvO/VORbiAdxiWteqtzm+EvOmHjR8jM7J7Znomqlvy+MIqfQFhFnxmVybqXiXDYa61RWzp960dI5bsqvBeVqUEshsrcArcghAxbSOqluqf2WaVFgRFJAOKyhRjuViEsGRUsGU0AW+YJPVs3pgcCKwTGZP/AlK11QeqN51W/KYcnsj34nMIi0XgAvBv4UlbT3mlc6LUkgWhGhzEgzSILIEsuFQNXUqVOXLl06b9688ePHFwqF1atXHzlyRD8BZ+AXkmwBfyXLkI4PlXAXeDVIDVGyRuonbBNG3EU2pkwVZDauEkT434Z4Uaz1UPDfsZiTpkI/KBQyl597zpUXrwDX0kznwurbrrho/4Gu79xx3yG/mrHbQj/yGFuSyuXnLr360uVWPayH6eXLl/YH0Y9/+et1Ow6lnHYH6IzIuGZ6pJG/lZ8WBV6lABzWZOkW5kc3U0Pnkv6FslSagRzoYaLjpXxc4QtCZjDMSJIkju0QYZaNFg/CqDCy8lYtVQtxQW4MhEVZKyXzRIAJyUnEMrsVpJ0kiAJbFqssep/EHyRtblutUsvl3Rgvli0C7BQgBz4g64phXphtgRpNZodsEK2+Sv/PwI4IFqJfAIsgiYMHEjwbmgiZWOFi2w5TI9z54cITR5KT+RJLexmYkSwWXHDHHsn8lWQt3w8IC6jwadas2e9617uLxTaN5+DBQ5s3b8En3vgRnGkyDJGF8Fp4LfhP4LtO8YOIqZwti3KoFGTsoFRps4vZMLKzURJXk3SYzsaWlw7rPoGjFEQXBVC4sIi8MwOEHILpMGMyq4xMhaGr8L53Xr1i0YxUFDy++uXfPfsi0vdxowsTC5nxY0e9sGUf8vcCC4Zh/8rFU95x5bkwaA8+8uTDq18K0+nZUzqWLJi99pWdpXJI1pMo9twcsCW0pTG0TIsCI5IC2TGTJsH80EjJnj41n4atEHmTjXwj7UTVcPK4KU42i6QjgVdC2OHAJ8UWvbDiTGybBLiUa2VCeRk3U7PyYWHupAWzJndOaJtgRVblWDXv5cMsApPAs9x0lCnUCxOKE1MB6GelyqkJHRNnTpk1cezEsl/2I594hG1hmmJZyJB4wr+cBFh0LTBp8tSpPPv7+wkyadKkZcuWdbS19/T04J+C5HI54A/3YrHY3d1NPFo6wk6ZMgUWqVwuE217ezt+qtVqPp9fsWIFLkToeR6xEQR3RUyefX19q1atevjhh/k6YcKE48ePr1+/ntgIQoowTYaXNIkYfjNBdG6+Oq7j12pIk9xcoRL4+VGjBgKETJlSKg5ybs2xfdfq9X10FpIYaRSaXVaMb1mVsEEr5qJ1ETAxN7eYjmctJFOAS/3A/j0Txoy+9ba7Xtl17HjJ37xt86H9e85bNnv0mI4HnlwbZ5zYr7Zlw49ef2F7Pv3jnz6w5pU9x0vRzh27Rufrs2ZOCxJnz96DTN8BcmHyKIaw0S3TosAIpQDrUdJCzWSkkUWZzsgMSDo8Kj9JVHetrOfY55117qKli3750H3rt6xL1QP0fKp+xannbrjkAwvnLvzl6l9u3L4+KPnj8uPOW3LBxedcmomyge/DHwElXUe6fnjvraVsOV0QJXgn9pbPOucdb7n2nnvuqZaqN3zgA235ItqP2Y70uqNrf/LAXUADWBNGPhY6EVMt4mliFi6aV3rZZz/7WVDjV7/61U033QS48EnFTN/6xjePHTsG1oAsn//85xGNf/nLX8Y/Bg9k6dOf/jQC9b/7u78jqjFjxvB66NAhUIwUiec3v/nNW97yFj6R9KZNm2677TY8E0rzgweQi5jJFX54Vdk8qUM9laCbtTggFfaTtbgg5SdFm4W5ejUKqnnnups/GHlebDtJNg+kBekYP4V02q2Fj/74rnp3f9r30ZaKUPyE38xmoL8V16kUnxd4t0RUQGEKK1H2+3c/5jhjQ8crVUrtudHbDvf3wICl42IuY7H6kbXa3HBiR7Za7du672gpXcyytBhXnnpuw1nnrDx38byHHnnCz+aijF2Paxb7F0Qc0AItbV+t54ijAJMMbZ1MXE5oprLalc2YDgma1eFENmzYkKrVL1p8sVNy85l8EiRePW8F9vxp853Y3rJtayWuMsObPafzwvMu7j7a+8ILL9Dtn3riKb/Pn1SYfOV5V43KdzCZcSw3E1lt6Q677M6ZcuZHPvTH+WJhz/69zxizfft2eCtgBWjgSQbABSTccENYYKYgIbigBpjgFU7nQx/60MDAwKOPPrp27Vrlqq6//nqZWho1dOF9jCFORSviIWbACA9q54l8CtZs27ZtfLr66qtrtdrOnTtxnzt3LqE1M+QNETvx8CQPil/ET06IDbgS0TnLdfBIluXmcnB2nufAeaE7JT8DtcRZrrIix+w4QWGqCsflh34tRI6EyAl7FIQooDKvZGGS6S4xwwO2tbWRKHjFGBMEIdSoVMsVv5Z28kHWQ6PBLRRSqFG5eStfrAo/GlfLA8Q3edpUpveH9+8rVcp511k+e3o+8o91lfpKfjEHuxvCFTKnZu6Jbokgbsu0KDBSKSCa7iZv5qmMi1nVCmMYg6Qq60Z1tHhsL3us69BAT2lGYdbMtrkHartrqSjnti1bsIxetG7r+t6kx89Xg3ry2NbHev3S7i176PZIc+L99Y171v+XD31uyfIld679IfrUpcrAGGtCOszGfv28C8/f07X7zp/f7ic+WJBkotAOmKLSG8ELIxvKYgcseJIfBQheybNiFhbwApi78847CYK3zZs3f+ADH5g5cyb9HP+EIiewWkCVsEJIudFvkimWgB1sHbEhS2PyBSh/8799i2wsWLwIsL79rjt37Njxxb/+G10Q3LNnD1GBXDw1USyEJU6CEDnJEbNokxkpEPxP3nJytuuj1JmpsW4qek/1tJd26+X48R//PEFbPUKGJSuEtVRse3bNr7jpdB6pnB0i5PPjah3Ox3VyXs62XWRubpLxSyUpvVPo6+3PeyBhgIAuCJGv2xDUS9Wue8uVURDv33vMr6VyXkfJD9uZaIf17r7+MbnMZz7+/umZ+ubO4o8eerISZgqxP6poVUrI0dCgz4YAF2VrmRYFRioFYKykv8qCuk4OzXyQpT1k5EipEJi7OTdMasiAq0Hl5Zdeyvr2hcsuiaLEs13Lt89asAINxmfWPEt39au1rIecvb55xybWwBCu59oL85fNn7NgLrwaOAHvQ4T5tiLBrbpdzLXBFt1z/9199d7eVHfFKdULcdZD8h1XKhXlgAAC+BHhFgwXo2ABMUEK3BUvcLz99ttBK4Lgf926dcAKQXAHTbDjSHAsBMSdgLxqDLziDuLwBN2IBDup43PLli1gMUiHZxglnsSDfwzR4oEiE0pjxgULKTYN/ArzPOT56JLKSikZZhsfEn0ons0QFWGRScFGpdGECoI48NGyIjjxYIhfCg5nRngTM3/QSmXKy3IgM9x8vuDajhQtnbD5xknVvLh8zpzJi2ZNT6W8O37xm7RdLPshc2kWAcFxgg+UK66bgwbwpNQvowmp5B2HbYdsKSJ7MesVrfkgRGmZkUoB5bBEhZ2u0VwegkdwcrKVvxbVwAokvQ6dLalv3Lzh2hXvW7Bovrch31M5Pnf0rGljph073t3d28/sZWJxUu+x3g5vzLT26Ved/7YZk2cgrw9TFRTiU2WZXjoWeoxAQK1Yd8EvGAGExH39/XExsT0UtaNKWGMqJNKrMKRPFoo5QKRUKpETCKjsFRY6P0+AAwuO+gQ+6L1ADN0bRyxwSXEgvA/B+UoQ7CSkgi1ecQfjSEi5JAIqGPHKJyahIBeOvJKExkDG+KSG2DSfpIUfCcv8uqGQwPpgjIwviPw6Ez+z6xhmTzZSw+7Z2fnnrkjni2nbTXFohWX77PuLAyedyifJy4+syrF2KVgDmsUgaFIrk1lkWLXKAJxQkoFzK9Zqftrh9AUnqltequ6F4ZLpEz987RVgzr/+9IGBelvA3h3L8qKw2n0kmxrv5vOp4oS7H3/5nM7pzz75jJ8ETgacslHHSlEd1G7KgwOUdRbVtIBALdOiwAijAJyCqE1J50XZh79mPshfujqzpIKXQ62BbhglEbBViSsvbn5u3pkLF89Z8tJLL61csJKdN0+teTqyA3Suw6rfnh09d8r89152fa6e37Zl+/rNGw4eP5CU4r/4o//V6RANCQQ50mddC81IeI+IdXy77idVdvKyaSfveqyvAwRwH3gDSuAysDNZE3ZjUACERe3kExwBgBRNgBV8stKHu0aCTA1HDP4FrQwLBr6AOPjhCR6BjzyF3zGgo7BIEPzDmOCNsOoTOzHggSeecSRdgqsHvpJJfEtyJvIq+ceRvX8meYDJTqV99h3W44suWhmSGRjXKI3GeQV+FrQLw0KS7HtxfeXwEdAW5ol9TGSM7FEuAIsJm+vZVZ+FWp9SRGGt4BYr9Qo66jMnjvroH72vHvQ/+uSTm7YdiN3RYQqN9igTlP1agRhGjxlXC7Y+u3bzy2s3Z4LjYzy7YMOjOr0Dfmy3R2kbylPFLdOiwEimAFs7RHClolZ2fjSkWCyms0SIO1INFtXl6BhmNZkgFTy1adW8xXMunXfJzsd3njfr/O5S99Y9Gytef5gJ7JSdLmXecv5VluX86O7bDx7fFyRswWX/isWCoShqy/gtcnQW+INsrZapJg5r+GAW0iXmaYh50Imnx7Oyz+FOJmcAB/MjNu4NrgzS98kwoKBkBVZcBzZCEAce0bFdEb7FdVS9QGCYRtmYUgdoUPxup9sLHylzSUolGlBoD4QBal8ZQvHDgjoWfvhBFPGMdhVSIpSwHGHNgArE6ZACCyci1ODgBI0EVkCroFalIJpDySScK8hFYiIpN7NRmBnCpVM/+edv4sgSHksbwtdRGoYKmUWC4Wy/FDowkgB9RME0TZ5aZGbTTCRRevBrOcRnlYFxhXjmtPEffu+1+P/NUy8/8fyOujU6VXcSFOJsaJjZfXB/kl45berMYvY5ELrOBDLrnDFxfLud7eor1bOFgZRTt716pcezySfVboYwpW/r2aLASKIATVOnAPIUJDBGFqJkkqg/ceITmMUZMl0DXceOd431xr/tgreDRFu2v1KJ+tEmDVIsEaY8cMHKIZ/qP94HAwJ3xNi+ZMkSr81DHEM3c9MO+6bhr3hNO6CJjwcOS0HoLXjHbpPhGwUInsoiKeMj8MFamjnNStmihQsXAnO4wxP99V//NelqQMU+/Ogr6as3fIKGGgN4hHgLd8LyhPXDMwYWjCdBSJT5o+We4qgDgSrzwxue4dws9EVrvsOBCqVyuq8n29dj9/Xavf3OQMkqV9mdyDZmqY5BblfQTiNBqC/gK8uUnuugcZrP+ks6x370fVcW7fJjD92zZs1q1gadetmrlxBppaMKexF6qsmuAz3wT1dfcu6ozECqtL+Qrbzz7VcBfM8+/3I1YlOQMLygFSJ/gdiWaVFgpFLg5K05/1Y+mfPknn3m5TnvWLZkxVmsDD6z6Rnbk2MWcuz+r1RZAuvp7Wprb/vEDZ945uXVYNe0zqnTxs+oV2LHtd2MF/age+RajP/mVAD2J+YyeeTIflgDS4S7Qbw+nImJdLF6ggIR4EJv5vAUXNALSGccL+cODASku/GVDYDm+2943wUXroTJmjlzJvhCEJnqogLLfu1s2g9qPJHi8Yq7iIrqsfohBrwx5+3o6EBbAlgEy8aOHRuE/owzpn/6M5+CaODarbfeKhj9eylocitIhzmlR2Lmkz5f6wFWi40/5JhzYVDustKlc8+e+d53nGvHXelKZeXCiefNn+7mx/YF6cQuHOruu/3eR6rOhIqffeDxNR+/4R1vu2DBnPHpo8ePzJ47a8yoQk/Zf2rN2myuI2/XK9WepBan2M5t9Mhem3TLpUWBkUCB4QGWTNasZNuR7Uf8Q8DBzoPbjlSPJI4IjFjhgg1hp849D9514zUfmTJm6mWXXpLYSW+192e/+uncaXMXLJ1f5iyBnKiABhWUvFEl8iM7qgQVVgY9RwTtSIaaU7/TpA4QQOqgDOIkLLA8cB+KC1jo+SDUfffdN27cOCAGTSv8oCB61113ffjDH0ZfFA8ahFyRoiIFwbHjAlelvBVIhCEJdLJwZ27IE2RBMI/IDAhT/ut08kzkGr96Hopc2Ie+njI2K8NKaMJBMcKupax5i5fVInA+73jO1M5JlTKKpTmXU7lyxYAJp9H7TVuFrXuPfPeOX37ixuunTj9j5uzpHE29t6v8rz/8eSlBWA8vV0O45uXa2FUte0VbpkWBkUqB9PzF5w4rb0wDg1qQtws0beldbHZLh5wGIJucWWGPU7kMM71sm5ufMGrioSOHy1Hg5XN+qYYCUi1bjtHRrsXAExIrsCPtsu8OWbMssaddTg1AEOaIqOu0DXkAL0ATwTuz5AcACdNkztVDMo27ME3pNPCERtXBgwcVyIAYEgGD8EAM6gcXAuJCQDwoljENxIVPBmrSoBU4ReYx6g139UkkRHXKvJNPxSl9Nv0oQumz6ahpDX1t2uNQVlF9ThvlmAw5+IJjfXyb9T6U6RkzRALF0iF7PZ2UZQcsxZoNkWzKTNDVioKJE8aO7ijsPXiowuokW6PrCOaRyBmZoZ2nyI6cLyMrEi3TosAIpMDwAAtU8pNavi0v8hpG+cQBrkQoj1SeWZQoUtKFEK/HbBiMy6hBcV54xo/YN2KjGsoSvJAA9IBFMBhB/wIL2K7IzLCaVOi3duKwC3i4lCJpWCGCAzfkhlfih7cCR5A3gUp8wgOAohaeeMNg0bCkSE4IjjcQTZFO/QBMxIZPvvJUaMNOEF55ApR0dVwahTqN3GtAPGoSQ0OoC6kMdVQ7WAK2kAr7eziWr79URQO+3D+QqsulILLMAIOKp7SNchxkxgH5PQDE1gGmkwi/YtGxCCgkurKygMAJWlHUVvAGKtWsLaurnEkqiw4t06LAiKRAdtyEqaefMZasUKiu1dCrZq0tjdwqhNuCoxGlB/qrXMcQoQLhpAK0t5Cwc/5BPfYKTjksxRn6mMAHpwIwhKM9T2zI6ZHE81dmdamYRTOO8RsWh6Wgo4ACCugr0EOHB6d41bkbFnqmvoK2kk+jPAE2Yce/ohIewC8liMZAnCAR9iaQYccbjhohSaMphmYpAfXTKelJkKZ7E61wUXvz2bQ0PQ+1CGCxU8emLBU4Vdd12ImZz7XJKe+QLp1h7yXnKcZoczAddDx2D5hVYFlzZM0EgEJVBeEhq4x1FklYw7WzhZwzMFDOF4osgHD4H/gtu6BbpkWBEUmB4QEWQmlWkRisc04+9uOUX8+5uRBxtTijXxSyPQ9RtO16AdMS7p6SBfk029ncHGcMIOHmRCwgSfgaATgUO+UmCjk7TvqJxML+ExF9nz6tAA6QQjEF7FC4wQJAkApPYIXY9BXQAVOAMJ46iVM7/vmkYKHIoq9N8MKDBiQ20uIVjAMQNZ9YAD4C8un1cs5XjH7Fgk99aib1dWjYpucTHAGsdFrmqqj1Ik+UpQOSDnVgqAXVYlsRtgqBIjxUzQ+9XB70gbAoyedcj1P7OFmUGGAXkdh5FrvT2bYoB5OGnJBjpVHXtYZD/KF5a9lbFPgDUGB4U0IU4jlWNCOnsDPSs/vM3HwjGgrgDcvwnNrOX6aK6P/QdfkhTRGFCaOQdEJxCGPetYe/6qG5ln+C79/zMrj2/3u8/EE/DUcAN/yMQS5TYHOIqxzlJ0MIjjKJNmpjnO8HQBt1qiQHL8X2TNY8bTmoSzcywHIJzXnFsCBLDcGGoWkramyMO3LEqby3TIsCI5ACw5YW6WxB4KaOhBdRCchFXxEFRVlikgmdnDVKnzE36yAbPrnUCkly7wtsVgPsRPLCsaV4JcJhY9bJKfz//B3iCtlFM0tmr6KFIRAlhxfCUEJEo/kKMDG5pVLwZ0BKJFNgmejA4iKMMuwsI42ZAEqFwYuJ5IsALdOiwAilwPAAixYdWHLtjdydg0BEWKqGlrwpnxy2SYPnSmc6Rmz50gPqJIFkSDuV6SFZBCn0FRHfwBSIcjeCLzGO6HUPt8O8sRyNydeIecAPGQobZtbsPUBclWGhArRneVNYJPLKBhum3tCcFQEhrBxTClZRA4RnogwLJkTjh7MAmvBoVJM5cdC4j5gCtzLSosCJFBgeYMmAjMgIMIKvQg4lfBYSJ2S6Muej3QuQAUSIV+SeVMTqpEaXMEcmG8zSd7zKspUwX0AYsxKzInaKZbETM9t6E/QRKkBh8AbuFbYKUTorteIqeq9I0YxdOCmZGxo4A6fkKz+pMfFpOC/xI/ulqD2qz0CV4FfLtCgwYikwPMAybdq0dWQj9JYoa3PNOe0dzDEzQcugEvfo0AU49UQ6if43a38CZxxlJz1HhVp0J8E9XRYUiTunSck2uhFLrv/kjDH749xokIqVDDNgQEg2jxvoF3jiyHoQR0YIAR40IBhaUGwQRIMvRowlsCQnzrOBUcALnopZOWR3ZPNkWu63MCVUyPtPLmwr+RYFXkuB4QIWXYFVJkZpEIeJiUzx6DRD4xX0YmDnohYZ8PVLw4OwYPQRkdA33ZlaCsOAg4hVsLfQaig1X2MXUgpDJfM+rLKbnHmfEM3s0Tb+DdWFAzN0xhvDSWMUgMLCguHDrIaId+NbLFovzVdxapkWBUYWBYYHWMJGieyWXgJvhGI1UiopD6M0ExO4q5hRmr4EAHFUsHxpNH/U2plJiqyE9Sk57ZwYmjCn61zG96uO8toyJ1EALkkqTM5xwEA3aApDCs0hHHyTDBLGKG2Fb+LEMOAsLZJEwTaBNqlBVnvFAb1R/oqg3cwWJax4kL8t06LACKQATVxark7KhuYPcAGFhrpgx5EhWvggkWSJRQELB/CKVyP6lfhMQGEBAC8wCjm7opVxlwfOsqpoVrjUke4EIL4ZDBR5PXNKAgzFEEMi2CtTayYW7LBNBESftTF+MGYodAl5GSXwLCuDosxg2ChsAnYSkOokluZMkNml1t3rZbDl3qLAfyYFUKti/z+tuIFZTVgxcHVy28VRgQyYo2/YsYuMhNsGWemjg7BSlY05UUlAEBfUGvBsJ7awXkZRiIKSFDc8y132JgZO9KPbDE4q6XS/py8LmZrZa9Lstaja/PQfYkF3FL1QtEaxoE1KnNixqJo7n1Dj5BXNT9zl2eBPhpJOwUWegvUyPMhD7fI+ODDgDBmHqkEpOfBv3KFUliVVTrtI1QcExdBhkNNm0LLibEQRWWWNqjp3sXG4F4uwFgf2kHFk7HJgLIfzy/YDGNwg8LnLCE1f0dGSM1DrQTVwLE7NFwKbPEq+WqZFgZFGATPDaAzMDTgAlcil8EvGKCI0kYJXhLWCOGa81m5HdzKLTawSSkflP7MMDSK7/4X5EnfCarQSt7ggbpeu2DR8faMBqJnWaVro9kCVghHa7ei4qwsW+jsbobEAWPjBHSPlPKUxxaR0lJ0JNQVHAmg8CiXVCCop72TeDa4pug36GLxSjG00HL2Ytzlpvs7BOBwzSMKI49knaDYbtZErYKhS7QPOspZdq3KpSL2Q96i7KArcnJfi5EG5GpYrpNmBwBmwrmHKyFILr16ldss20igg+/hUSaqZM8UUAy6v9iXtW8CQdKoM+gpyIXsiugvo/BjpL2yHEbAIx2TgjvM0icrwX4hSzPK5SQtow6fCIokyK4RLw3I6UHU6fpoF+Q+x0OHBKVgnYqN76xNQgLdqfmJzIq/4YT1C+BxjDOwLLUQ8ZFzUrkIiERsZY7wpdQWtmkbIK0PCCYCOxCpOShymmnPYxiz7H9kmlGKfOSwUe7Zrlfai2+/L9gPutMhEJTsToFBaGwBVvUJbvlaPOC+ZZQ6ONUSjix051XIpzcnxtsUJ1WzrlkpoTOebGWlZWhQYQRTIThg/HWZIfkOYA0Ur0TGg3wBp+s/M1wQyhCOjbxFKVgkFitiyE3MTNHORGH1SgTzUGiSUoBtzQ4IQUDokP6O+YGIQQmhcxu+Q/jpiSAQKwTcBB2zb5lwXPZUBqOKVIgJhgBenzYgWh1mUgy0yxZB1T2wCVVDDPNUuMz7R3+CT0lEownchjgF7/hqqy2sDyYwPw4omHP9Sq5aBlkyWGRx5Y0eB0jpy2CxV68s7HJjFNk2mijJjZIt3PldAWh8EVZZEgFybkUTOnJCz5duLbUwJOSOeozdcWLLX7kuQXLRMiwIjhQLZ8YOA1cxRE60AEbqcwTLtfUb5wCAMWgtm+DddzuCWE3PnSyrk4APOQDfTRul4soZFDKJppT8TH+pALHQZHVS5xY+eKIipGQA39bX5bHT4Zv7+sBYzwxIRFbDFxBBOCvCC5+L8GRAK5MIRgwdewS+k1mZmB0DLEp0pVgOwhCDmvfkE3QggF2UIiMt3nlnW7owc6zVoBX6xAYe7eexUNh9yOjyHv3O2MQdL18NMVLPiapGzXIkHrbe0VWEDespJuNIZJE3inLCAXOFT4VoRZGBc94iUi5tG2PacL+YqlX6OfKBuDdD+YUncSq1FgdOmgMxxME251Qlopd8aHpBWybxI0IWzAJDcyn5ZjqgUZUORoBguwLAJ9E/5Si9RcTJn9YFWwsEBZCa2xtdBO3/prM1PQ5z/861AEiDFpI+Ll3lKVtPpxYsXz5o1q7+//9ixY+vXrwfCFLNUEm9YoRNyLmzXYPF0hQ9qyGhglveEDRVKGSISv9BZpo8YwT7zxC60racAGNvJ19Dx5O41pO9h2UuVPTuYv2B259TJQXngyOGuTVsPwHb5ic2l0JyKkQqDdNjPNHHy2PyZy+aPHT1u/4HD67fvY5kkbeWqsGmc5eDJnDZkZmgg1STeerQoMOIokF60cGUzU0zlTgIsRn7gCbgRJXXToQApHHOBS6jQ8mntwJKZu4gwnu0gPFgolK/o+KjGdZJxI9cwZY2kwDLDhTVk8AKXIsgXSRaHPfCqcrSGb/MHt+arQGHDkDdsTV5k0Pk/7i/MDzAEJMFAYd71rnddeumlym2BZcwQ+/r6vvnNb6pUi6fs6YYeDSMZg9My4CRPjKiwyZFVwlRBKzgsSIgQqlEoThwzE3E84lm2aipsCYVEAM/6H0cfAyykHpb7xubj91yxdOXZ8yEoAniuVoU2YTX+lx/9bFPF6g7gpTgctjY21X3l+fMuv3hZ3pX7QriIo+zHt9/z4IZdPbHT5nNldDHPeYewjXJuYAM5Jbct06LAiKIAMqxpmiFFK+wGdwRC5DeIVsCNxf1S9BddH2SbB+J2SyDGCT3Ok+HsY7oUrBbQhgv+CY6dUGg/OJEcfCzoZiaAZnpoDvg1DIVtzstECoZ+I6GIZ0ifHyQX/XXQSA4bBo/Czb1xhhVCOCygiuneBz/4wZUrV3Jc39NPP/3kk08ixho/fjyc15QpUzZs2KC4plkTyHr1v5QGVomn4ZhYsACwUPoQ2GLaiOQ84BArLmqU2bCyUpDecGBmlUMjU7wTzSkYMD5y0UQmOXvx7KsuXIaGwhNPP/vU6mcPHDo8bvSoscXMvIXzHn1+A/dow2EVrPDcuZPefdVFnpO9//4HVz+3lmngGdOmLFy0cM26jVXOTuSuM24Ps9DVIEeArGS9ZVoUGIEUkAP86Enm12BbgAP+McADT/QnhLpeOp/yU+PaJ3C4aBD7Mi/JxNVMEDqcbuwWyoUZY6ZVooG4HrpWIallvKRgBdacybNnj589qTA1l+T9ss/R71GBs/7KrP/baTufKY4tjOEqQG79cmKvPTN62RnLJ3VMLgUlTmEmbSZZnLEHCwMrARZoJ2I6hsEOjwM1kcpMmTRVJd+4cMfE8uXLEYEzWeMVo7KnGTNmYIGDwCehcIdjwjMMBbM8TWjy5MnwR4jVzznnHPz09PQQDzeD5XL57u4elATozIcPH+H1Bz/44aZNm7u6jm/evGX//gPnn78Sx1WrnuAmVogGJiNVkuVCcglF4XwQGMn6oZwhLVfTc11zKuVzNjSHFNsW57Gzblez0olrBSluJQTBwCr+CSYJeyX5NfyoNh8zXcQRtYVaFB7r6j16tO++h59ev7vvWDWz88CxrVs3r1g6183ZG3cd7KuUbSbkQe/H339V0XW/f/cjL23v3d0bbtp7uL29bfyUiVxUv2nHzjBbSHERCNBviKrptJ4tCoxACpgO/OoM69Uc0qXhg6IgyuXzYSn0rNylF1165plzHnj4Vy9tWZt2UF0XzaPEj667/LqZMzof2/rw0+ueDmrhmOK4i5ddxNXQeUfE0nKweDq9d+/e+x7/+Z7qznoBKXAqKgdL5i654sIr7//N/b29ve+7/v3tXjunJvvZYH71zO/++F9RgASnVF1Ap2NZep7R3iSL0p9hA8CAVOazn/0sMfz85z/nFhwADmAiUdSjbrnlluPHj4N03GrzqU99CuD7yle+okwQYZGa/9mf/RnPL37xi4SCUfrMZz6zb9++M844Qyd3Dz744GWXXaYi9u3bt3/3u9+lsEis7r33XqIiaXJFbHwiEs5H5lWyx3GmhkkSnMqirWnIy41hYmLL4dJmBOEo69o33XyzVShUOKcUVc90KmBSyB2rWa7Eie+/8yeVrh7ZdinSciktkdtyDLuAeFhnCRCFK5Q/A47M5zTXHQd6alU7AgprQcG2Bwa6MxyS72RLvb1Z8C8VTZk4qt1L1Uo9m7ftraYKqDSw1LjqqacXLVu4aN7Mhx99nGjLlSBL8mlmqMwJW6ZFgRFKAZEXnZQ1M19DA1ou7xLuJpC7WLisBelyFCTnLrm4UO/glpYclxakOZ49P3fmotHtE19cu56LAOEvOs+YevaSZfSuNc+vffihxx777aqgHM6fsPDale8u1tvrXB7N/S6ZupfOuWVvwZjFn7j+08V02+59ux5+8aHVW598ceMa0Eq4jHodvKBbRkk4euwocIdX5ZjIIVniCWbSmZmUffzjH2eC9uijj65bt46wuNxwww3wUxhhT9JpI51prOXhQrnwD9YQId2VrzjOnDkT7Nu6dSsEufrqq/m0ceNGntOmTcM/BmgbGBggNjwQlsi5hgcqIcZSwMKPcKVmoRDlUNuzc0WOJvYI4nACMVrpKCPY3Mlc7+3v6y+XOYq9wn32Ibpb6LbVOdS4yj30KBnAoMnMjzIKF0n2YPcKubwRUVlMHW1YtSRxs9w9y02s/bBGhWhgVNwzLtX/kXe/DY32nXuO9PbVHLuAl45C0bNTx4/uc1K1UbnwgrljOuJj5a5D6SAYzeHv1T7LLxcczn1GK+WkttB6bVFgZFHg9fcSCmvETcZuua+as3K2be3cs5MrD8bnxk9tn7azZ0DkVXF6+ZyzXctZ89Ia+hiXU6BVvXHThqQnObCD27S4ACfHFpBju47f/N4/mTVpjp0RpXAYjVQtm/Gz7faopfOW9PT13nH/bf2p/q7KEafdqoY+uACIgCAgAt2Vi2GwgAW4gA48FTKwYPDJp82bN992222ACJ+WLl0KWoEyQBKvzPIgOWwRUcHnYNfghCIzwvkMXqWD5Wtf+xqOixYtIubvfe973GDY2dkJA8X8cffu3cRP3gxrI/khM9dccw1oAsaRFkFAIp0IwjRx0YPj8dEN07UQWoQBnFYa+V6I8Cpz3733cxJ7NY5zhQJK6EzuLFuutUC3qhDJNfMqwiI2cktaUorIbA+K0KjyHRvKcENXBB+XcSXkf7n5I6OdZFSeSV76pQ0v3f3A41Z2crnGvDM1umOUZ1u9PV0oY33m4zdPaU+tXfvszx9cBQPbnstOGFWsHA+YztZEgmWWS0ZWE23lpkWBVylwwpDKOqAuBfJdJjGpuFyrOHmrbtWDOguC0fPPP59P5c6bd56XAC15a6CwctFFaAWtfeX5JDLb0+Q6+/rug3tR9bFymTFj2+fPWDh74uw2u0iXyxZs4uFaQyuy6iWYuEycj2578PuHUwd60kdHjengOqpCLse+E1iwGD6hHrk5YbJACrIj+DRotAR0ZjQe4U/+5TvfFQ3zDGjobt2+gyc/N5fHperD0Ik77EzADc6cMeHY3DyGhQkXCt6250Zm8nWk6xixVQO/VK3gvu/gAfwgzAIu4W+AHiyki0WRDuUGoI1uf/fdd5MRsIzcMbWDT6Hnc6wnPy78k8jR2OJeDLAylkULWCfsXDyds92kHKRq3E6bcoA4czaoaGaZn4iyDAiCgxqJYGsqsmVy6FNFtTjyIbiTLSdBvsNrG5vjHkKqzCt4bR1tKJvA1SE9A/EHyr5oZVlurtAexpmJUzoRE5bYsAD75+W5l6IeCuCahYETmsSrLaVla1FgBFBAeuApjXIQtVAYEzQauHoCpmLT9k3vvOA982bNb3u2nU8TOyZPbJu0/9ie/b176h4Lipk4iB3bGVMce/H5l8ycOQP4swK7WO8IKlEcJDknB1TZdcuzvI58GzC0Zsvz3UFX1S2jJD9QHbCywFOtKaICF/DDqhz3NsPCyPTQXIEzJMMs+7OcH8EEARzkGW/4wSeZwYKLWoAMoiJCbp/HD44YUAYX5ZjAAqac+FF4Iix29cOTr7ySLu68Eht6WDfddBOOXCKNI72deHgiPzJyJ2H9YOtkg3FNsi37o9Po1KbYx1eq1s6/5GLYP2CUu80QdbGIEcc+PGRb1n7uoUdZASQtZsVwWEBeLQCeOF8vDgNwJ0Rnil2C5J6QzB5lU00m+/Vv/0u60ts5afJlF62YP3f2n31u2d989QchUrVUIgsIuRlynW29fu8jv10ye8azq59AOQIWM5N2jnX1Z61RCdcduubOIbOaMYTCLWuLAiOIAig9yYjaZKyaWasGVTpzsaNIP6Rnoa+IC1Dy4uY1yxecM7tzzs5NOy9deJkdOas3ri7lBuS+52rQlu2YOa7zxmtuhJPZ8Mq6TXte2Xd0X6Zk//m1f8mY7wROxreytgNklOVywwx9zg8Dd5TTX+3P54pwI3RDJFh0X0UrIADpFZhFxoAJ4QEx9GMRuwtDAHyAGmQSJghZO6Fwx5En0ANkwEKARMRDnFgAIp4S1rhgUZjjqZ5ZYSQe/MBJNbPBV/wTrWIcaIXUjLSQwW/atIlPuJOQgJocHy0nvXA9I6sI7E1WbVn2HgNMtSCs+YFTzM9bssgZ1RGinhChgZUK5BC+xGX2V/M3v/Bi9dhRiiaZNOhHtHWuveGKx7jONYrMrFF1R/rkpG3UI+pRYGUKPTXE91M3HEnt+cVTN75j+ZlzZ7/32qt+dM9Djt3e190X+bW2Yo7b2Z7euPXZ9TuzcbXdznagd8rB+36W5djAbOMRlQbhVFumRYERSoHfx2GBAgoHGVfOjGFSE4fxqjWrli0764IVK/e+vOfMWfPoQeu2r4vbIlR7cl6+XkquvuRtLNo/8MsHth/dWuVuejdib0jWZjy3Ez9VsIp+EtDnADjk/fBCeS/XXTuGC3yEqozKbhMj2OZJBsApjNIPjMCliTX4g/OBveIrWgugDD4JxROfpAjbxStIxCsCcqTj7LKj/wMu6k3jB9pggnAkEgT2CkCglVrwrzkhFfzPmTOHFUmS+PWvf7169WrC4pNPymE1CUq/jxEKsVxothyi1MAEE6Eg87vYr/341u/XAURQlYXBhLW/hFksih92GIFqlBlIJi1JF6Q2wjvRNWGHIFnlJlfuykbjDWEWG6KCEvIvTp0hkMOFibXS4YOHFi+cO6q9DUlXNQiPdvWkMs7Mzlmp+OkgKrn2KCubmTZpHDL87u6+gN3RKOtyKXRUQ4dFdykotVvPFgVGGgWEE8EYPR/6lvzUBemOk3V4uhbTFmRKAhOIsfqj7l2Hto/Kd1yy8rK0nTy/4bksegucKsM9qVHkpHKjcmNz2fyhfYfoYHbkuqX8BQsuKeQKiFcQykjflvvu/cSKzJl/XPIJK8T6O5ewChjRRRUmeErGjMFRDWI1Fg2RbZEh+dG95JSCGmFk7y4QQ2dGzYpVOdYHYdMMooliRb2+dPFiJNXMfYqFtr/8wl9RZqa5vGIJhcGQT47tBn6IexSyn0gUZfkOQwNnhGI6M6yly8+6+U/+FCbxgV//5rFVTyAcx5EnfCE3v5MOMiwBG0NEUcgyJRJpuTrGkZUwe07Y7OP09LpoHnQfc3u7C/299rEuu6c3OzCQCXy5yQMpHowaccopr6LVRZzEXUAvTibeBWbRbia67pIlX/jYNdPz5fZ4IB/1W+UDo5zS2Uvnke7Bg0fkvlTL7qsEm/YfDzLu2y8+ZwqiR/9QIem6/tor4qi8es3zkeWgDF8L5Bgz13B0jQbQ+tOiwMijQJMhOL2s0Wvs5MlnVs297sylZy0J09G6LS/TGWEu7Lwst4NHhw4fnjo2e9PNN7249QWW8eedMXdMfrxM59jMQycM4zTiZS9dq5cqyYDowuupeGFUicpuxlMYOr3c4At4Fe0HmCnyQFQYII7UYIt4wv7gjhZYZ2fnO9/5TpRCK7Xa7NmzmWPSpUFYDLHAo+FZXSgCETaBEnc8MN/Egpr7+9//fuazfGUtktiwCOeYJEeOHGGZkh3FcYBi7SlM0xHND4O0p/Az1GmI/6HOnMdQhc3y2UjIsYLVYOHcWePzyf/y2U9t299/9PjxXDZeOHd63oqqofXIb38XJnIAFnPHXz/10s0z3n3h+RfNOmP2vgMHFyyYl89baOiufmldyhpVrZQKuTY2Uvt+JSVrAy3TosAIpUCDwzrN3NF3K0HlUNfB4/4x36vs6d6xr3svvBXSdFRM4X0SN/7Zwz89Uj6UbquvuOjcFSvPpss8+LtfPb/j2a7waOTIUU0YWKTIi5J8xJGl/dU+5PHFXLtjIcMZdm8BZSqVMhoVwibCmAhYIf/K5PM5xFW8uq5zxx239/f3IemaMmXyGTNnHD5y6F/+9b/zRACfteCfsgOlfngYzohyPdYMrJpfrVTL8DQsKnIKC4684mHZ8qV8Iojj2jPOmD5p8sSp06aMYTPx+LGds2biztzzNCn5P+2NeSF6aqm4Uk84MaLjG9/64dMv7jjcG02aPnXp2UtmLzwztL3dXZVbbv1pre5ksk5WziJNv7K3+9s//tVAYE2YMGXlivNyubZ93fWv3nJnLdPG9LLdTcJqFwsEse2I+lfLtCgwUikw7Kvq3azt94Ud9hg0HVhmKsfVOAdOoQzqc+xJuppxEeGm8zl0CopsaumChUEkzYyRK0Br6RK67A5sQC2xKy78lOyCdpKqVa7FVSctmt4y3RuOkcgHjfI+iKKQmmscKjjHTjYmTJgwatSo/YcOwnyBLASC/wLe+IodrIQX4wnngmcC8oo7PFST55L5rJmEKl/GV02FSAiloi4OclHHN+QJuZKQZYsITGY3YrUyOu9GtR6XVYR0OG7iGPD28OGjpXKQtgqRKLWzSQgBIpIsjpfJZitdkzpyYzuKh7p7e2IvSDkVP3At5PfMC71+lipTLIRQZqFJy7QoMAIpMDzAogCsaVlM6pI02z9qlZqX98rsIpRz+1hFS5BeBeXATrvobok+epYbXejl0ofhv6yc5YeyNzD0Iy/rEYngBf5sfIAGiLfEDItMCi6ABdECWKCVogmR4ILQHeghFf2qAnKFJ564g0p4IAjpkgGeTCp5VZ+86qQS2MIdO0nIXCyOsYN6KJeRBC54IEWeTRQbVilO33PGtjhrlNuySRSdVzAzCoMcq4YcIhNUEKUhOUw7xVCGCTmri1LCYVUDRoNsMeNngjLcVNry+oGzNEshFkrwid/HUkDdaQ+oXDkV8PSz0/LZosAflAKy+XlYCTIlCesh8ATHFKdCjmxnwcpiOYoJkV9lM0ra5dQ+9v8L8Ph1ZNchhzrE8ASIjOqRl/Nq1VqhyPgf+XGN1UMCokqKVr1lO2HUOIz49LMEjoA7IAtPQIQnpumoqMRX5Z6IFkzBGwCHhf6sLBje1J0nwUE3fGJRn8SmDBTwBO+mCEhYwJF4+ERwMI5Q+CSG08/8cH0iuWeaK/sFmFUz12NhIZsJRNmK+mA7dC5KnMTK9XK2qJsjIwiwYJYCWUzIMTSgWmYUaL0o42WcdmALHxG6rtk62x1FWUJCDHPEGG4ZWv5bFPh3UGDYgCXnw7CI5aBiVLMcoAh1bjaNcOpC4niOH/pBEtiOjZIjB5swGSnHZafgVDnosuChRcUClzzRZ0j5Tt4F2oIotLndhZO0OMiFfXbDnI8AFmAH4AKOKJoAIgCHQhXuIIgCEE/FIPzjAQPK8MQ/wKQ05LUZUB15xRE2CnUwWCp1JB7cAUF9VTaNr6QFOP47quPfCMpoQQosqgJUbPFhTaMSVp18XubFrPIlaEjIABKj/c9xDnJ2KUMHtZVhJyMHuVu26yfs5sxG7F3gym4/YPyoyjDjohEGfnO1ocn9G1iEf6OErc8tCvxeCgwPsETkxERK9+00hmOZQ9FROWA3qtPsk3wuX66UPY8bwNCcjDiRqRb6nNoZoi6AvrzoISB+4cIWNJPQBDDsDLdUsWfFzNG0x/zePJ/wUSFJVajAFDCIz0SFRSOEA1JHxSm+ginqwidQRjkm3DUqLIo7BCcIT/CImHliJ/M4gn1Eona1EFZno/ghhjfIACSMFmxVcpgZcvZDGKDYZU6krjtpNgmwPpAH91HuQiaHri/5RVDHzBG0YiWVsQHyw6EJRwrwyV4g0aTnFc0sTquWI3EEcFuA9QZVYCvafy8FhifDUsDSNPVsv6Hp83Xoq9oBOOZInN2HqIoD/owjDAH64K/qfA39KnpHoqxw2uZUiZ524DfA4xt6XCcTX8qLcDCxYaGUhjKLQwGV1T5R/xIP4s7+yVhOhY1htlgoMLupZYkWHk3giBhE18u88g22F20vUSkRlzeAKq0oWxT4D6HAMPWwBtNUtNINPU1dUwNJwl+oSxPdwKPBe734Kn0GI5tsELIYOBOuDT/aYST4YDKtv6+hAMI2aDiERJBRQUZxBhVeEaAb5BHcB6qoCK0pVHb5CXUFVS3sYByezCGyso5rUmNaOJwB4zU5bDm0KPDGUeB/CrBYCpNBvnE2sdHtZmmJnoM7cw150EUa7V4cLTwb91d7GleuInhJEnTWhQUznhsRDq+0byhHM7ys/GF8K5WYQotQXfhRoawmrWCkmlQ4sVsbLOI0a6Z6ikEEUq8syBrdeWbPKrcSMspgA0+mcbWeLQqMQAoMF7Bk2iFY9Dowoe48Geel4RsUO8l/kyPDXfSzZIojIz++W9KTf6OJQE9DJuON/dICMYpWCjbCOgkHZeCJTU9c+CU1Ja/K2A5SGBaNr3jFGQ8SWiabRC7BW6ZFgRFKgeEBFn1DTnMyRnio1xjASDHLfJXZinYnBSmeaGw1A8lWZ0Z46YHaVYxSVoMXaPpqWYZSoMEPwQcxJLAkyDdE5oJKrAoa+R8nyDMEsOiKKqkJKewwr9AZ7YfB6oM9lmO7DAuGbzzIdkvj34Dd0DRb9hYFRgwFhgdYZHsQgLA2WraOzM0SKTYNvjbQTTQZZPQWkbBEwn+R+EoPYUQXWYoZ4c3xwo0guLTM61FA2CCBmSbf1PQocnQzKoBBcsKybOo2TJTQXZALaGM2yJeGMNFIsYiHb40KbcbVsrQoMNIoMGzAUrShpwA9MpUbhBssdAQZ240BmxTapGvBWBmoUg4ARoCQYJPyYvQipDKKZUSnWKaRtJ6voYCgDIQ1Ez0WBoXehuxCQ2PkeAf8cD9Ppi7HfrGUIfTnEFNqglXaRljiAbzM8CPCLHRBOAVCJIxmxbYRV+tPiwIjjQKmHdNaGzhzgnAKEHmd7MrCOd0gy0HIhjPSZT6scsoMHWQwNuxqFXQbdMUiyGYMHe/kNBjpW+b1KQAfJDyprGyIPBH6Qc1BIwwVtWCeWPTaLqkB4Alv1ICpHkiOowRvGqLlhJ0RaMjUkGyekEEhxGDTxW7oIEvPpjGf0KyGluz1Yjsh6tbLSKWAyJEMdyMZpBtIPxj88UpNS4tBX1zURZFzIOhAmZJNK7L5juOu+GFJoRUk19bLfhHTYmSIl3/IVaQdiYQFcRaRGb1KFEYJztq76IWjh8nVVWwxYbOPRDRo5HNDqiICFnWWLJ34Q3uTT/hUPxqEVFQHvRkQF1QneOVILv0lJMrkKYtKEl1CTunip5ZXSTAI5BotwSUGIYEolDYdecXwCUc9Hp7osg4HlpIrsifZ0UySFulix0nIYn7mFC/1CeMqPU1jxvJaY+qIeqGHotYuaGX6qjC8gkvCXQkwZesJuu1sMDSFog/LJwNRdFh+3HNLXii5fJHBBNpQAjnAVNIkA2pMiaXI6ki2ITiZHJpPvuLIE0c8YOGJIQhPdHSVaNihEl95HfSJBT+o3eOG6mrDgh8MwaXpSImEr5SCsStysPb5ix6sHFmWFZpTi3IfrQSDSyQ7sqsB7VkrC3sZytH2hrVkgJQYiAmjXL9J2yQoKRKKTEruTUlx4RN2LQJPTPOVT81XAuqrBiEHtEBpFnKCq5ACn42naWacqysZMEYilXbFQ8hI/JoH/PNdX7G3DBTIjp04Rf5ALINWTaJAKToDNSWUhmZSZ/yn/UiHYHRHbYfzkWn8gVVjhw3+TE+QNopH4qHmOYcU1WqZfFBbVBytyTQndh/KacipNJtycJJleSQvuCR4l8ZBcJ5qaWZJHCWVEwwb6SSrg02Hb9hNM5Dj1Hk1eW9s3zGlMDk0ZVLPNA5tFpqiBuepX8mvRsJXdSQS2iJBmpHzCUdecVRaERo72v881bMpkyGdxCNfeWreaNwmY0JfksDgQmynNEosqEmNAUL4gSJmkBCmS1/pCVhMVeFt0I2/WgfylAzIB5NzLbhUsLFpHjRvJp+Nbqmh+Iovcqih8KAWyKjuuGh/U584QgGtC90dpYXFvUkB7ATBEATPVCAWvMnTFJA0pDWSsun9ZpSVs7SlZQnimpaVzXquh34/gIAxXmFBTT0actHI5AUjkckfAitjhk3LiwVDcD6ztwELJaVEGPVAQbDzVUthvkh67JrAjgV3LFoWwtq2TMzpCrhQfOPe2KOKO7CGHxwJgt2ky0Mi4atxlLaBC7nCpWXYmjNNMEmaBc8GUegJ3OIVs4tZGpX8BAf4zw5bUarinuLGWJewIS/LKSayNQegoilw7gL+IbMr90/Z3BID86U9S7bmIEYxN8lwnDvUpyKEqYEj4GCTtM2tYtQ5zqbZyOPkGsL7Sb9BSMJns5Vo66F94EitY6h13U8jrZX80cQFJKU70FA4wJ3dkLjQ5EgcF3a+8JUtxuTBNCNp3c0kY8Dy5wAAQABJREFU1K7uRN5sT1gY3Y27jJ45jzO5GPhlJxCdUFohXUWM8AAM4USoO35wwn+z4E1AxMOJBgk6gwt7/gSdyBBMk/AOKFsZGBLiiAXk0e/Gy4lR6JvmmXR5xa5G7eQNo96w4AfCNkPhsxkKRzyoC6XDaDyKUEpwtmrijjeelLEZs6FMw5H4CaL+DT2FpBrEFAtoFmgiOfNf8EJOzOdOopqPlhmX0HEfpN73wY2NshwKWYS7Z5t+xBYkBi4zHDeybmhDA5f4JFfS5BpEoGhaCvlmcJlX7E1DPtXeJAIecFQSYVd3Mo/Bp9ydJhe1iQe8mTgtGhsk4QcR8ENzlayGcgIHdMLn0DzgQePUdN/kz+YlFA066KAtI5hwPQCUGYdBHSrSEI4/NCkktATgxGRGQJud0PDdAbrqoJC0WM60qiPnlbqg+8t9yBw5Dk/Gdlz2EsK5MaBQCcIIgWXEjJ02ljAMybK7gJgxfMJIjIOdRN2HPmkWfKWO8UmDwE4j0E6iTU3rnqQIpU3BxCotH4M7jhgcB1sYEcgoyisdAQuGaHnVqLDjgn+Nn1c1Gi0nvptTSc1VF7JPL7nllv/Gk4kvMTDO4hmm0DRxIZDuUtQYGGg1D4piJoMnPJgWAarkWugq0CpfpWAgFIQzr9BOurdgGQ7mo3g42ZBQI9+mu/KZ/OtTcmjIwivetKQ4Ul4NhQseMEoQvPGVJy7qDXdIB1V51RJhMSGE2gRvxqMB8czGdZ4as3ZviY393AaaKSk8vJRKZgPCPLJdEv9yNRrtK+A0HbnXiSqiLbDl3uQElG3QxjQiIRdEw0koY0SlxKPLRKTbzL/aySfwwZMDhagsMowdPwox+NGcqwVHLGrHXY1Sg7Ka3fgCSVQrkXDmh3rQYZXI8YApFOQeKa7iJB7C8tRPEq/JnhT+TW9EeadJhCZaGbEGdSniW4AGA8nMylTKz9RoO/BZWuWE5eYuiQKEk93MHCMTClclYoOQINx1TBMSxgLmQ/YSEpmLirtoC3EdBDcRsg+aQRCBikKP8DmDWTJVJSzY6xtaAAE1rPrCThrY+UTLoNax0xRoBKYXkZUGIyAFM0wBQfAgKCBGYuMP/QVOXqc+GjOx4a6haKNYeOWTtj+e2Ds6OkiFOxFJvdCWJ3XSxd1E2OjPoA6eSWXy5MnTp0/fsGEDt2MQigg0Qk3utU8Ov5LjGJBAGUUQegmZMJsIRa2KIUZkPZlUyFIfXRnMNd5eG4/mR7OtJeLJK1mlUNr96E54w44jpdDSNaNqlp1impw37rjFJ1FBTJ5acHzyqiQlEjzjzld84sjmc05VhAhcqb1//348aE4aOQTBM5bwS9SmitURGghrnKojwWLxGbEnRad5yXApCmhBHHASJABOvomK+tHkpG5MPILiiDRkMMaBhtgAULziUw3ZYEu8Fpn8Y8GoZWjBCU8R1B2L0opX7MRDEEMNnVHCRnm0JXAZauAHzxhuPJk/f/60aTO6urq2b9/Oxb16IohmRp9NikkB3vSmwd8aOkgFUvOCVjIZkoqU6mEsp4a5H5W6zcShI42Pm6GAsiAjB6qkIiaJHMZrhXBZTAY5Khi84IPgHxd0gmeIPmnHUnNyoCgwSCPDKsyU6bxyiq/0fFgPQsPrn1Qv5OQkl+arApaENU2EJ3ataSzajHjV0dL4aXzFjjsGC5HocKeOkn9jCE5Hxg9vfMJg0a/6JKD6FDqA3Zb13HPPvfDCC/Q7PH/l//q/8YAjkctNXQCo0AeBuKTIgRYLFiy48sorOWD+lVdeEaIKMyoRNjOgkZ/yCekEngxheBgxIE9WXY1CibhTCsnwKY2WxRCgwcNK9kwpSB2LQXChlb5ioYPhrtQgt7gTicm2iGAoJi7qB2/YMXjGXdPilQMt9AREPIBTF1xw0bx58yZOnIiHtWvX/uIXv4AHwX8YypXddFQZZAZLYNgigSoMPJaVc32ukcUGQOAzTsph6OZzWTfLzZQ0WbwRCaIGsoR3gjeHZiGdoY74EV9SNPkzCLIUiuKDHVQcyMVX8kFC+pQcmMh5UhB94pkMKzVwUc9EQpSmRKLECzH0DDXs3OHE3UtnnHEGdsqIf+j/4osv3nffLwhFEF4xZEnjxILPlmkClqH7EJpAIIhIb2X8knEcSEpz+jl9jao1MhLZfBPDKDl1jk3O+PUaEz9mfJx8gn9t7tBdThOVjojshfOuCEyHlHYsp4NyfDrLZ3yBj5Hz40SagCyMiuVUuWbdECfNAgRouoiUtWFEfMDUTRqliCmkdmlVxI87SfBqPFIUXnWcl8ZBfNr41AN2YpBEjOGVPBNwMHijXZq0JH5KR+uUBmX4C9yxmDzIMaemmcoiERZuryBKGKhiMU9A4jStXzLF69ixY0mCdPFJDOAknnHXHIqnEw13N8OjkLNYBDDEBg8lE3eqBZaK3gttOZ3B7O6UkLIEYLruidHIW7OwWDC4gKukyy202MlVk0r6VTNP78WdzkluKaD5BENBK5JqVXk07hQE/0il8IkjkMKP6oA4TIgAaCxA1fnnn09CSnOgAe6DyEkdF5MTEStGlJCoqVs5pRCrlI52xslFuLnwkTK+pTnx2p02/rwLL9jx8voDu/bQhmDtWceBdacuaQQgO/7kSSMHog35hIAGAw3xBU9JmrrQssP+kJypL2lRFNa0B0EWXml1+pWmhDuvAo9COikCoyevuZwc8agEhHTVqtxEx1fi/9SnPsWN3N3d3U899dTx4z2QAlbrrLPO2rt3N/erK7V5Ei/BSY5QLQMFsuMnTKP1YjOIICsuWqOy1CcHgtNQWL3gcON8MVdsK7RX/UqW85aQYtFvswHnuLdnRhXsotzzSXRQmPP4fKct3TZ17PTZ0+eMyY22Ezep1VkxDDMhZ6IIVsT1UbmOot0uUFXN5KL8+PyEmRM7p02c2t3X08iDqZ9Xq8p0R62zppCLpseUgYqnG9CwgsCnWTBqLV++HAtXouJIDLR/bWR84n557pEmHs7kazYmGhCG9gG+dHZ2Lly4cMoUWTzlmkJanmTXzGW4XAdDdDACfMWRzqmOBFfQ4V5YM4rK0YCXX3oZHp54YhVBEKxJPkCVet1zc8wcc7n8ihUryPzBgwdxxNLGZac5mUsSFZ61sEOfRs4ugC5dGGjjWHcghpsWuessm+F0QcQtgHQka/xm4VcC4Nt09KERGTt5JhWS5gmCFApFumipNAAdIBFEmDRpEiACvlAWQuCHbCuXBGEpmokmDYuEJA56QhZKAetEnHhesmQJ7sePH4eqixYt4tnb20sdaWUdOHDg+edfeOSRR0ideuF18+bNhCIScqz0zDq2rI7wCqlZDBHpFQ3VaMjowYQcWwhw2W4NwcKEcRdcfkWtr3J0/yFmfXJ+YRADWwy6NBKBK0MN8iyQJXAvZFEeDQtZJfNkxmQgDXzMnTuXMnJvNo5QgHqh7BMnTqJ0VBBUUtLRACAXOYcCOMI64YJnLJSaRoj7mDFjaHi+D4DX8EPpmAOC4N///vd37dpVrda44BI/0KFQyK9Zs4bg+MGQNKRW+htqv9kfNAOqTQaxEwwzC6RMQi2RlLvZXFyL3/KWt86a0/nIqofWvvISzYa243LGbiV95YVXLV24/IGn71u3aV02sjrsUZeefcVZi8/i6OQQpl1G+dTBI4fv/s2dh6ODaUdithN78dRl115+3S9/fn+QCt939fWjimNgcnzPX7x8060/+x/IwhiLqCpyRQXTbmi4WHglU5jB3Ep/+/zn/2u5XPrnf/7nD37wRqCK5LQl/eAHP9i5c7cZ2C1aw8c//gkapURl4oHr+fa3v00XMrHB19RXrrxAb/GifeBIJLQwBsDf/va35AQG7SMfef/s2bN5XbVqFU0K1KAlX3PNtcuWLXv88cdxhyFgnUczTLvHQiQ0u2b74zZVcv7Wt771kksugfXQhvj2t79dS4TAGM//+I//SLPWkhKcSHDEJ3aywb2p8LARx7q7HpOQ6YsWLr3iUvSREOcE8DIcRorUlks0gujolh3PPvxQmstBDNuimSEhDHaeJMEskLhNzMknPvEJOL6///u//9znPgehoD/eSPFnP/sZ8zW6N1zqX/zFF/D8xS9+EYYCppBcIdj+i7/8Arj25S9/man/+EkTP/nJT+7bt2/atGlacK6bvfzyy4mQFIGkW7/3XSjDcEKfZzzAkQoiJ0oKkqPng9gkrTXFUdr4QTVGZJ5KDXMyDmMIUlHhsGgUiQ1zw82Kcd3lMFz4T67SQMTNyOpYXtkvgU/AlUAWYlQRzHOVh8ynSRQujnpEwDR9+hkf+9jHfve735Gra665xtSvNCQQhxphrKFFLFq0hBbCrXHf+ta3yB4Zw1tnZyeTOwAXR4p80UUXwS7hZ9asWQR/x3XvvOuuu2788IcoGsk98MADTzzxOOvim7dt5ccF3tTYQKUMNK95ae3Z564A7ik7BCEsSUAr7C3TpACD5KtopVMtEIwxTbSnYs7gtSJWNrAl6Y3rNs6bNW/lggs2vrg5yFbsgl2tVNqt0Us7lzuhu3fbXoJw08SM2TOWnrWo+/jxbTu2dh3r7si1n3/2edNGTXvrBVff9fTt5UoJpqyYaR+TjC9UOuaMnbf88qVM+vYd2Ltz13ZrTHZXdRtVRdVSbVhoE7R1GjGtlcqjcas7BeArT1YW6VoMfrQ2Bii6+s6d248dOwaybNu2DVAgBsa6P//zP0ccgcszzzwzdepU2Ac656c//el/+qd/os0RFaPrddddRxLr16/fuHEjXABMFi0PLv3RRx8lEkZXmjI5IQ+aQwLSCkmRr7QteiDtlb6Bi+dJnikFhkziTt/HP2o35H/Hjh0EpJNwsyEJrVu3DtzEJ7IbfJKKVo8WEHe6N4ZXslcPAzDM5azUJPZZs0jiSs2PHcYFxH8Ox43WShWmbdALcCRFkhO1EWMgFKUgQhzph+p40vOv/uqvKAgDPu7nnXcexOc+RwCLUBSTQjXBFLvkJy28KtkjToLgB/pAOkq0a9cuxg/gGBekM9jpw/BZFFBpDgNBeYlZ6PY6hkYFbfOIkgDlQNbsgH+SYT0ZwVIVIsBgZjK9qXpbLj/gZHvtTC/3sKWTvJ1DxD0QBATlng64LIxc4+a5zCKqtXIQiARWk6YI5JycADc4UkFbtmyBJ5oxYwbsEkUAdskgOdFimibXEDBBBP1EVJCO4BB55syZrKVAh7aOUTfddBN3ykEQRJZnn332qlWP4Z/kDN1yJEpstAf4WcIeOXJMI9fWhTcMMfP6OhR6czmzNUcBS1qMiGwN7yJ8MsdQop+AkBh5eYyGp7t79+7+Y/2TctNmFmfuLG1DfuXWvSWzlyHD2rJpa3+5v+qV4kKy5uDqgSf6tm7e6uWdsBI6FW/nvu033/CnZ85ekHkyW8y11av1VCVbrHTYA+6l51+y5/juO+6/rRT31zLV6s4K11iYFWdhrKgnqtDxWHTjzhfp+dJDQDFBIckodha3cWxrawePQBY4HcZnrWNiIBQ1/eEP38TXxx577KGHHmJwfemlFx9//LEvfOEL48aNnT9/Hr2RhGbN6mQ1HU7hnnt+Sq+gaRL2gQd+RbckFQyv2ImT9qQ5IRR2fDYzgx9WqfBGopp/njRioa2ZchIPnxCxw2uAHqwSMj4DWLjQZAE1IiR1yqsNFP+aCsBBVLyWyjUqDBKwWMjq7L5X1u18ZZ3oUNJ9mM0LPWS5ihtrPcctOEyGDUaasGRPKYkHckSvGTpckUkMFFAQh6r00q997Wt0PzoeC1iaAZ7EQ07UsCLKddlcnW10i0S7ggkvRf5/vv5PeFu0cDEl+uEPbtuzZ8+M6WdMmDie2ROQRySUi+Q0El5N4ic/ZA6YsL6WAWg5DDpVBZ/5kXnQJZP2rL64/tb3Xh96+X6kFGNHdeUzHRcuWTF3CqIjz4+euu9X4YDMZ50s99BxDV2Gc6LzXo4BGOCvJwGnsTHBhjaUkUqELJD94YcffuKJJ8gKqH3DDTcgawN9+ES1Ui6qW1GJcmEhlDYACkVZcKRc1CBD5u233w5A/+knPsmc+pZbbuErnCnTZyhG5BQ5nxfxgsbGuHXBBReQVVZsoDyR8IkguOCT1Hk9mTpvyndpNEMNMgIVbUIsqAalLO7iRHIL85RO1q3b4MW5y86+IpcpJOXEqjnnLz0fUr60dg3VJv25jiAp2LZti2vJlGHcmPELFy+aO2suoJare8V8G/UqDci160Hi2l53b9dP7r/9eHykP9fTax1PtSeVsEK62oKxkDdqVOuMxkSucCHFQcOwLyMw+QR3ACwsGko7PK80BW4kJBJthXyl0xIPbBRfUZsi2zju3LlTMuY4zGiY4hGKghCJMhQkqnyBtk7c8UkeNG+8YghOhMQsdDAAgR13XnlqiQjCK+4YwioM0b55xQNxEgNJND2Trn4iBj4RRNgAw5LgzQVimSsx00lilsFgRoTDo+LgBRA51+NatVJnA4ExxKnZwIIh5lOaO+64g1QoNXERjhuteUJAUsdFn5KMGTwoC56x4wc77pSFMsJNQD3slAgLQx1JY/CMjAsPBNH4CXjKbAx1JLNwjhjZ9vQqYVl2ZcW5Pgkp7LRpKEZ0tLUnRvdy3MRx02ZMnzp1spt3kSRUakjXqkzfWTsMmdoLFbkjJUJ6T+uBmORBq5InjCdCACyQF6BhLKEIyBPwoxkmG7QfCqUk0vxAFryRZwJixxw9ehSftBkCInwgRfwTJ68E0aaFf9zJAKHe/e53w2FBKB26CIujGg0ylCBvZjtTQml8ClKMzyJxN+viWPkXgVNoIGSZiHDPsLth87p3n/OeWVPn5up5WOxxHRPG5Mcc7zl2sGc/gvV4oN7ujuYi1QnulLdc/NbJUybCfzMvcVlu9tsqYQnFdyuXDtO1EgJ4t1rL9G85/Mrx6JifCwaigZzr0RqpeFI06y2igEqboqapM7JF7WLR3qIuoJUvrQ/9ruS+++9n8AVoQAmEm9KXEOV4ubETxjM1wv+X/o+/Y87FShHthhajHood7XQDviJHuPW2H37oQx9CCnPjR24iFaStcPWMt3Q8uVeGlUHPDWKmyBESBxCIMZ+mSZnkrkD6rAjUQQ1ZDkPcQ0OkaRIPydHyGDIpAp0OF175CogR5+BXqQWMFnBoeyUSpQAWYoYrIqJcxqmFUU+pMnHu7M6zlvWxH8V2WJCD7/Bch6gtLsM5dHjPxleYM5E8iRIzuYWBInXi1+Re+4QakJGSkiiZ7O7r7RgzGhe27CGiggGnsPR50/dQf5GZMpHwSuQ8MdCWtEwBY6UzKeJHyGhUQ/HJq3FsDD9k77U5wYXPTPdEp6DiJz5XaQSs3ShXyKW7kR92xNa93/qeb1vdqXT73Jnv/eAHNj69Zs3vnkB6miOroQ+nCkGod9RyCA+FooqoAMZ+YMnyJe3HZwG8FgYUmTJi0dJh8Qr5I13HeKVyqXGIYK78SPnc7sGSNlsXI6Og73rodTEZQbVCNHa4cMXLlas12/X6BkpaUuJg7gvZmRFDHKgEKagLqEQbeNtbr166ZBlkgSmDYnQ0JRE+tabwj/2UJHqzOepCz6ulVgGWvrNyjN6nT4u3uFaQlpMuV8svbnxp+YJl8zoXbNi67sLll3IN4ZNrflezKlw+6GW8rG/Nmjznpnd9NCjFmzdv2rztlaPdx8Oe8L/+0RcKE7jiNEjQmEklea/IAj2/alT142qYCuDasym5mZXlaFKnhqgqqo3+QI1qN9M6o6FjUUOjwScYZ2pWJNbIBWjQrHYRBHciIThBaB8svsBcE1D4OyMPwgNSLZoInA5PeK6//du/RdTC4g6TIKRaK1euRI7zjW984/Dhw7QtOg7xkAoZI2a1aPzYiZMnqWMhRfWAhSyZr4IR+glKYiFCvhIVdp5aZOxNb2rnVf3wSgbgc4WHirmo1u5oK06fNm3xwiWh7QTEnbUC2S0Q5DPp9ox1eP0rh7ZsRRMOtCAhDQ4MEaFEY8YE7CcZ7S14Jj9km1c8q11LxCv54ZN2tmrYWB/gK95ICKoaOsiOEwUsXjUSAVxj1IPa+dQs6UmZEQEFK9UGqeNUoCoa5opeZBWMrQnDJgiDWo2I0Etlp+oXa0Fbhat8oSzuzJKZ+fncCcRtdARg6II1lKNGZOOqEAZZh5xkaAy5JRxFpk6paJ7kk0KRATLGU8tIbpvuBFFkVxc88JWnEpzWSyi1K3FollCPJCAF9OHT5ZdffsUVV2ChmcGLyUBnducQD44EJ2YMcZ5EnDfn60lbc6jCBpBDL5Sq0bwK6oHsuXHSQV1uEnxq3aolZy2iJ+/asfvMKWcG5dq2/Zv8fC1Mhdw0BSt96aWXAkN3//LuPT27gSdfLk/NB26NNpvx6uVyhcGpHnEHayqqcv+zI1eoSn3QGtN5u4hclYVJrSeqhGxgqDm1yLyH3ieoIM1NPdBiXFckWY4rPSSfL6A2TWugTSB3Ylmd+iY4eonAFzH7gSgEYqFp4J/WQwzannBE6A60wakhlf/IRz7CdOCyyy679957+URrg8ln9kF+aIu8gnS0bCLRJGiL5JTI4frIG6/YUQVggsAroaAuOcEquXU8lfUi1tm0aRMZwI+0ViMaazZQLbuJWbS6ZZke4aLMaGAasjvXvLBjw/okI1ryzObpe8AgUM/t8w6DTKnflqmQmEYG+GNOM6A4Yn2NIV0lBdkgFJRkjQJH/JNn9c4Mka5FQchte1sHHZsgCm34IRSeNf+S8JBX/BCDxowfYsCOBfOajIgDjD/9XdRraI1spOANK1snRC8LNQurWq7m8m3dlf4w5xYLcvtiFFe55RL6ouCXBFHBo3YY+Zh5MVuWiYSUhU0X/GPOzCtSsUj0FcgDWdUmwZNX6o5ZIZmELaJc+KGd4A5BcKT2KQ75VyUGotXgzYLgQtsgElx4EhYLfmgzpmXKVPTKK68EsOAFv/Od7yAlZCiNfPjTBjYpcQiixGzG/Ga2nMSKN9AKimj98cQOiDA/hOHy69XuoHvv0b1t+bbzFp/bni8yaaomZT9bS5gesWYfp8aPGs81nzRo4oCLpmEtXrqYu1RRpGEzxai20ZacISOcCDVXKVUdy5XjfWHHzdEfNH3qSdkW2o1WFRaqDUMdY8iSvuITJwTf5JP2RK/GhZZEQ8EbrYSANI5du3bx+slPflyLo+2AJ1IDPBAb/lk3RNsAnNKCExUNCMMr+SQ/xEChaLudnZ2EVTCC/2Ldh4R4xYPGptQjKpo7+YRfwwUjeUYJVvQ8xPCGByyIYCi1BseRvkFs4neI4SsGR/IDTSzXkjkaC/NwVKz39fZke/usgT6rtyfT3WP199X7+uuVSo5VXsP1EFYjI7jGMCTuE6x8JRUygAXSUXY+42LSlwxQxpkzZ0Ix/PD1s5/9LE98ak1RC9gJQrkIQpeGdLziruUiWo0KC+7EpqTAfiojcIZcHG+SB9EjEcaIOEg9IGYr64cMV2ht1lPVUr0yIFf1oiqoiGZltApEoidtTqJopC4apLLeRIR84kk2MNhJS/NGiahEXBhXtLzI5vgEQlFkPoFBkOI973mPZg//RE7GoDl24oQUFF8Jgh8Mn5rt8/rrr2csJFFE8qhB4B8S8Uok+ORJ0jw1V9hbBgowqku7MaKrEwjCfhq4GDbSoMzCB5oJEij8BZngd889+cfv+ugF55zPiPf82mflYEtZHapzYWp7PXNk75HOsbP+5H1/8uzGZ1F96OycPb59ghNagB0TxmzKRVKdZgNiNq5GZeZzaXSZ4dfNCjeTDRa6mPk0q5ykqTDtDJI/apNKlAzJG1rcNHiEr1LBPEXiTAWLkJtQaAzSAnKe96Mf/uBLX/rShHFj/88vf/nl9evhuVisOfPMM2mFX/nKV8wsMvXO694FK3ThBRehQ4QmJzGAI4jkGYefW/0MYzctde2aF9/2lqtyjvvlL/3vyEfhjAhSK1dEJTpOcKd1sicSuS5rDn6lumvXzgkTxtMoGZNpx7NmzfrqV79K8yVvLBWRBOsAzECR8cPNsW4IGqKvePfdd7OmNlhIqR2aMkYKLAv6TNMziEtMBxR+wezklBqCHEZQJsqQ0AdSiK7k4CYVCW6igmxYoBu51ZjhyLAY1oztn8J1mB2g8mRfMdMqHKEAOd+7azeT5Q/e8AF4RmU2SaRaLtlZtO4EXGJEPw7ogea9ST+J6dk4ZpkponEk2kxAg2jb3njjjSZHsvsSgkDqz3zmM8RAtCgukRYYR99misQcVH0KEWQvIbEIAAn6sIoIy11HgpoE+w/c9Y3/l3Uf2B52YVB4uaUDkYIGhnICxbIsCAUEFfjLK0qltONQ5pvC5BMQ+apZASQcKxcOrJg0LTpDcmj/PlYbSe5/+9u/oY6ALSoOnQkKq0WmeLJ5uZ5QWPKAHaDNwVfCGpKa6WpO1q5Hycf++ObZs2e7tgsl33f99VCA5Mz4W3/xRdGnpfiSR8Ne8cTeKMeb+4+Q6fWMjFKDP/XDvB/kQRFhf/e+VD699eDm/qSXraZR7FPVuSKLgfWfPnB3d7XLymUvvvji81acz4zvwQd/9cKmZ+NcCJ/FFIMNXwECU89PinHdSZg/IgNF1a+WqsGFkcTr5edU7jJPAd30E6CgFUz1q51PeKD1A0zsrUVXAYbo2mtF1ZOu/vjjj+tkkH7y9a9/HfggFGMmE15QBnwh4E9+8hO0cvAGs0AMDz74IJHT3+bOnQtOsQh95513alr4kQ5h+H8ihO26//77CQIMsTROujRBIqeVkyXaHyDLGhx+yAnu8HcsbPOVKWezRK8tMjVCd5PfCQaiyU97nXme8Pm1L+QBvKYs5IQndiWF+iRv+olXLBQHCz6RCgMofB0/fjz5hH9RyYt6xgM+wUHyjwWKQRkSwj/BKaaWGkfkg4wHnZ2dQDl9Hs+QFCjEEYZUhxC8kSsdUDVX+oQCsncV2Y4hgunHbFFKclHMj4SxC+waYDaL3rw1KCY282tGSPaoF9LCKC6QW80ApaCwuONCDsmMUoDCUrlklakxnNE//MM/8Ioj/mXEMswRxNRSN6NV4ugrqaMzCH2IFk1RooIOxAZVJ0+eyBMQxz+eiVObdDPDb3LL8G5+hlg0ZKSWLAVGNWZS2SBdi+mA2RpjVlgLO+yx7BDJ+NlxHeM6im0HjxxiYJBaZHzLZXvrx0I7QNYu2w9LrlN3OHIr25YpZ0sD4UDO9rJ1i2FRG+JpVgycAY1Dp3I0Gtofdp5UM60BQ2NSCw2OnLBoSN9AiE6D0L7EV+yEpUdh5ysthuDs82IKQM6149F6iJkYeEUTlVc4NWLQzqnNVOhjTiAg0f+vvTeB1uuo7nzPfL7hzldXupolS7ZlW54kPGBjy44HbPCAwxhMCEm3m+alYcECXq9uOp23Mqx03iOku7MaQgOdhBg7IYCZAh4xnmd5niRZsuZZusM3nfn9qvbVp2tZEr5eyNx7XcfXR3Xq7Nq1a9eu/9m1q8754AZPOMtQZL0cegYAwwPmSid6GJCGrVRKjdDAGaAkKvcGNfDmyNAGw5K2oD3OIq1WmlrxQDyE5xLmtFFUh+RasBBpmU3jYuAB0UCKk08REBw+FJGRRiasRAmQoVvhDB+qhieU7bvSBVIWhVCWHK3VsYAOt47FgQDUhTDIhthUSi3SdulrMmkUBCR0l6m7ONcoYevWrTREC0m5sfky6qL3UR2laDJpCnJJAnWhKwjgwCEEJKgaSg5YEWbljEiibQpyULso9lhoYGrxnCBg2XkraeEF8PVd11a7jTDIVlKziXAyXSG+mxSBVy5iICmwojz0AiIQys9WH39IilJSsFdJvdDKSz2dBN3xp3ggxk6TV3bomLiZlZ3SRAELjWMudDwJ+pU0XU5abELObXNUr6fpg+qEGEvSDVH2KgMV+yAHPpQCsPAKGYoysMnEmDA7qYuzmLLUwiVsoSET74NSEJNDFdRFWiAPMhESOakIC8Y6qVrE4Bb0rD5BduwOEQD+CNZWnW64nstxWw9dcqBBM0JDW2QsMfZEZggkB+Ehgxs56I0ExGRylgR8YAIN2iMf/lyKJyIjVsi4C6xLp2j9jM0Hj50qEANpkQcBREjpFzKRk+aI2BCQz3IKZwSmv0jQHBEeYi6hpAhMYCWlSENAFwuZFOGWNAcy2MKES25xKYBFptCLeoWhFHmbn/ni6Nw3rgJW1MsdpUbUjFgsD4GqFhbq6w+QCn6lhJIIueMqKdTh1WkCVQ2wK/FAMhY/lN1j10Tn2fbHTm0+JgNV2edtCZvd0tVylSUwvdPojQrFhA9U4fkNCCQJZgFU8ZDkec6AYTTyzARV8cJ4uLHPmY89qu+8lAAplvDYQoU9sYrMPpk04VUa/pQpqa/BqY/g8ak9QIyCMNHxBYaZqggq6iKHP943hAAyqtMGD3tVKWFZblE1l9yFUvPGFBUr0uRrIRVSk4tmsE6xXS6p5Y2q4M3SUS8DSWqX4aHxRbUf8fhDTpqJkCQQm3QQgF+qCWhSS6h0zvu6QoYeyISm2cTvUMUpSw4JOVMQhUCMokijFi5RFL1DjtQiuoJeevDNNu6NllON0a4fBVAFB10gvUCaTNJaLSrNQcOlsTSQBN9jaDSAV1YD8d+VrkRyaR000nDR4XhtkM+fGAxn2EJMKbRGLYAXgskzjNoxDG0SWoK392ligEVosRW3fAY6a/kpkVTi8CzylZjk8chkp1xSxMzo2K5FpIBQKXv2CEImRdTKE5ZsieCq7/RlancP5smbcGqCCYw11FcfYIZtqDXsiXQJXSvjnJ6WZxQWRoJulhzS5MhzW8wRN4fnIZlikQxaaDgowkHl5LcfuRgKg1kep2SSllKcSYtz0fYIKAs93gFVU0SMTyjJl0q5K2ScIdB+jKqRSwg4w1aLpAz32B1UTWNRHQlUITqkarlEHjKpHbUgMIKRz10axS0ykZBMtCr6gRV3KQIZNDhf5ECg1Kr3RsKKKtoNpJQUIQdWlCVHGgsHipDD+dg1v82Z6mgRh9gDl0jCdA+ppKcQg0zoSYj8ohCRUMgoS3M4RJ8QoxkuKQJnSsGTBPmw4hA+0mQuuUVaLmFLQdJkSvG2qCaBBiYGWPgQrOux/ZOwLi/Iexgkm9JBq5R3QbxWxH4CutdWHlPmlN1KErFTj+3mIUjHb+OUQDArsCMdAdXPE96AY32+w6v6Vqi+E6LQin6dmHMhHUzHk6CbOWiYjEAsg0vSYliYEWmmM1gYsCUmRQ5jDBMRExRu2AqXYiJw5lKYk4YVfASPYM4tsTnoYUKaSqERASAQ45O6sHWqlmFPWjOBgWJOKcY5pWq1EXwWco6pgUp7mZEhNkIilcgmTUAkEuTQEATjEhqIyUEqbpGDqOQgM5NfFhZkcgcxd4WA8yEKlLL6vlIUlxQXjcEfSUgjifQICSjJFybH6Ax/VE290mRqIU2/IAxnaQiZtIuz6Ip8LklLHyGnADcFyRGGnMknRzjILdrFJcVRYzsfStIU5AyZtJq6yOcMsSTkTM7b/JgYYKEsln0DIlMshLPArLczYFc8DtXnRekdvkxL16pP09BXHrvyeOENIHNYFeerj6nDZLAUVNgEiF9lq/CIWmzmDRz1SQH1G556qVoty7+Zo92pbdPBCjEFMRFMgTQHmRBgcxgQLhI1kUNZcjhIcJfMNrHYEDQcpCkFGTRYGAeUnCEWExdu3KVShjGU5MBT6pJSgnfkc4mhchcOGDFjngTKFLYQHLuDqmkLlSI5tXApmN7WAHe1eGowIw8H4AINl0KPtBIdxx+RIDplaRp3IYaMSzQml5xFFSQkk1aLYjmjOqlX0iIJlNBwPqYHoiKPKIGKqFF6mbRIxSU0XNJ8sRZoSNNkCISe4sgvBkBHtwWWu5SCiSiEW219kkkp0TNluQUfoWx3Cpkw5BJWbbZv58QEg+5KVdir2rvHWadlwZg9T3QqjyrmEWrbDmbJt2EZi+pFEnkPgt8xyXz1izsKmdLYb/JjFIqd+rmwUL3GyAdR2POjqjiWx8S2TajWHEtp4C38j60/dYybYNgfWQOTzt6OLOpUuDM263njomrvR0XK9V5TBVvs3KY4KKSZKOACzzRmqWyNa2r/osY49Y9aGVS9yC490E39xkVCWIuHmLp8CwBCi2lORgNGA1NQAxMDLLxSPmbCwS+1KMjRJ/0TXXrbsXZa1QxH7XPWMwcNXtDjgGkIU1uJuaXBTu23Uq6a2oDMkh6gpvf7weSYOjXHlPmbsQAB+jdT0pSZAhqYdPY2BXR2FBEnBlhAiZr7aUyhI4AjNetXCKSrYI6nvS2ZKkokSqGSutYnRdVOELlRuwqU0zU2LRrvmmmG5mQ0YDRgNDBOAxMELFVSARWfI9VMCEix8ZOorHhYTBXHQEejmiJRP+sCio0BmS6kHC7eUgvwrbS/JiAICx3NMU+kMSWZf4wGjAYO1cCEAUuHn/jVTsUItAJ6xO3SZzBHzQa5pfYxaMcJPwtaZnz6UO4Vv9Kk0+qXWQXXSKg9miyZqcmkOYwGjAaMBg6vgYkBlnr5GXdKBc5jFZdSKfjiJ/HJAKAGPFJ/4I6a54FNfIFTEQBGavlPB6yIbZGvPx5PYItvM6lPCqivkRPPopSCNFXEHFNFA8f6EYNFTKpjou2dbPJPKmVOWJiJAZZgikalgzVplHmdZzS2QQHwOdhhCoiIaBF2V6V1x7NiaBDqoC5NymjAaOBoGpgYYGn4UQCkZoL6ULM59gmqX11SUS3tWOnlP0JXAkmakrXBsUmhIlJl2SsvmCVelXrvUGGbCoeZY0pp4OADaUqJ/aaFfbu1900r6pgUnBhgIcIBQBkDLC2U6kKBqraMGsjaVwrCDl4cTI31fbvsAeYHKUzKaMBowGigrYHD4kj7rkkYDRgNGA1MIg0YwJpEnWFEMRowGji6BgxgHV0/5q7RgNHAJNKAAaxJ1BlGFKMBo4Gja8AA1tH1Y+4aDRgNTCINGMCaRJ1hRDEaMBo4ugYMYB1dP+au0YDRwCTSgAGsSdQZRhSjAaOBo2vAANbR9WPuGg0YDUwiDRjAmkSdYUQxGjAaOLoGDGAdXT/mrtGA0cAk0oABrEnUGUYUowGjgaNrwADW0fVj7hoNGA1MIg0YwJpEnWFEMRowGji6BgxgHV0/5q7RgNHAJNKAAaxJ1BlGFKMBo4Gja8AA1tH1Y+4aDRgNTCINGMCaRJ1hRDEaMBo4ugYMYB1dP+au0YDRwCTSgAGsSdQZRhSjAaOBo2vAANbR9WPuGg0YDUwiDRjAmkSdYUQxGjAaOLoGDGAdXT/m7jTRgK2P8Y15fc74uyY9OTUw4d8lnJzNMFIZDRxdA8DTIQSSUxTml3sPUcykvjSANam7xwj369IAwHQINnH5ehT7dVVn+BwjDRjAOkaKNWwnlwY0XhlnanJ1ypuQxgDWm1CaKTL1NHCkiNUhbtfUa9jbTGIDWG+zDn+7NtcA0/ToeQNY06MfTSt+hQaOBFgmjPUrFDfJbr/dAKu9jSM/Fh2R205uu7nlFRZrUoVrpU6ROcXBuiCwrNw5XCzFtiBTdxGssJzMdknYJDW9Yjcm8RiNZY+x1f84TuHaReHYsW1FttOAOCu6iiI8Fs18a3lKl401VumkUDkFzbdzG03ZkWfVyKG9mRVmajFQEaBk7kIDpSrsoh+0lOvFQjJhAZlTFBk3zTFVNCDWcBhpc93L7Zm/xCw527arV1fUnTRNfd/P8kSZDrZQpI4+pKzjjKGh4zLYsjECneZSWZKVUcTzHTi4np1mMTRjCb0ILbWnKfbmSL1aAAwwz7IsCMGFTOoin8T42hGSUo4fNOPE9nz+0sJKc2wW+S24ccAfMUQSVKDbqKybW1wiG7eEZxzHtFQTqKUlqfT1WgOtWlZHze0ZCQaHnN7Y6cgKL+N/Vw2TwnEd1ytsJ8mVNizXibNUCZYyivLAc6wsLbLEU7es3C2nbjVhRNkOjVfaYngWtmu7juUiW47SnMz18riIcgdpA98JwizqdPfM7ttU8l71neEiT5GZqj3PE5k5wwztqY7L1FgVAs60lEvu0q3SatV83V+iItL0DlULDVqCGwW5lOLCXCqSTNKQSUUw54AzxGRyjjN07SU5KEKbVAIVqT99IAbdlNFuy6bvYIgAGSZnhZ4dokO0VGRx2R4ZrL7aH7xaKmpOodRFC+kI1wk8+KJBrM8tEttOgH+ERfn0bJFigjBHIi2XOU0NDRzRwxLzpREYD2fMRc6YURiGrVYjCAKMnpHMLbnLqMA2oOdSmzLjgdFmpWkifKBPkkSR8TzMMqog3Ww2OXNZKpUoRQLOPEAlIWRQCjjGcQtbh55aWq0W9L4XQiNoEkURtxCPWiDj0nedgYGBT33qU9CUSxVyirS4867bn3xydZqqitKMkZ8rhvoRTlnkoS4k1E9ghFegDDd40i4S5HAWtSiycUduORdcdvm8E05PnAoEXtaM9225/bvfypOG6/lRliVJRtkgKAM3VpqVAi9OkiCg9lRhoudRQ5KlMUOXYV4kvpWBY0oSVw+swtEcbM8Bau1WlDi+B/Ci5MJKinS4ZK+/+rKT3/c7H//5XU/8w40v0y58CQSWTkF+NMmZFtXr9XIZMcYQGc1I60Tt0lj1jNGIw116p9FoSBHwF0XBFgVCSYK70KAJ+IuKhJvohjQJOaPezs7Oiy++eMWKFTxOaDX0e/fu/eY3vwkNtXMOyNIKR2xsBCeIHkjjVuB6ypySCE+y3FlpRbXQdasdxdf+5oujw7s+88VvW2mc5t2pVUWKJE46HF/5nA4ol+Q8GLU0ShTltDoAlkYr42FpvUyR0xEfL5gXR3tYyiWNwiKxKs6k5S6POttycQ4c2xPz5S4Ho0KU4LkBz1BoOPOn3IgUpyOgYByl5Ad+CYuKWuqpSYIc+FAWSFJAUy5zxoKpjrGBJIwiEjCplDu4ZFgyWqBhJEDWbDL21MMfAcgnB2G4RfH+/v4ZA30wlExoyKQ4BFQHK8ZkpVLByaKsxk3lDnBwyV0S1ELV0q7DnfMwxJsrgrKbl6vJwFJv/vKWHeChZHHEeKuUyo4d4PMVuRfYloeHlcWZlTmubzlcRQytwimHQUfJjru8uAuHI4uBMFwy6reLJPDsLInzOCkHZS+oWja6deDue5Hvbf7t94Y3fPzEkm+tfmKd7ZYbTaUWGiLaU7isdYh6JY0GUDItQifc0mpXzix3lWJdZHTpEaVnyy2FFTqIJwTqQrGQ4RuKJsEdWIFiJKiRA54cXHIW5hSBBvWClTxFUCmXIF1XV9fg4CCUYjPUixhcIg/MoZkzZ96KM07r6urAjca/d/woLOf0cp55ueONRo2XNz4zY07jq1/7oO9u6Qj2hE5qZcpnbyXNOItdB0z3XDVLx+tWzyU8Llw7bfr6MXW4jjR5k1MD7oyZcw8rmYzP9i251DZE9wMoMbe4xMiwOR6bGCVnTJZ8ZevKdWoxVPCZBA64BRyQj6VCgx1DJjZKPglutblBjNELTMSMbw1S1Ot5Y9MQ4aPGhJ6/cAlPBKBUGJZEMEoxYyTnoYceuuOOO+6559558+b19/WtWbNmx47t3GFGSY2QMWgBKEohHUxgxSM6iloiIWNG5yjwIiFySprL8Qe+5Ytr1j79zFMP3H//0y+uXbxyleuFz9/7k3LW8H2PsQtCOoCpirwUPriNEvwws5wkZVaHBphWWwl4mDPtSYuk4aBngCwspQqsktAPk4xZs0JPJspRnLnKK3M8uxlYe4+bU//SZy+07fqffvmHjzw9klr9fqnHc71WS/mwFAEpwAsSoi7RkgCHqJG20ETyOaMYGs6B2pWW05RSQAkakyYHQQgGQQYBBWBLr0FGEfqdS8jI4RL1UqparUpxcp5++ukHH3zwvgceWL169TnnnEPxe++9V/qCUq6jDIME6rJs9/JLf+u3Ll618dUNu/bupzmorhm3aLSHg8zU2Wnde/eT7zizZ96gdeIJXb/8xbrcqsSphRsLsgNbCRNP5Z4qjnShckZ5duKy8gTAVlVjVLeaY0poYMz4Xi+rstkDB8bHpRw8+hjSQVACYQRQgBvsUnwZLFIT85BUUzwysWSesly2WnGpxGhxuSQTcwMH5C8MyzBkCsTf8PAw2IfdY/RUgY3BEPNlVFC1Njk13uDMJbdk7EGPsKQpJYAITqmRQ8wozZJWVA5wfTwrVyAIsWY1FquCOfLr1jF7yrq6uuFDcQ2hauBxyV1KkeaAXoofUM/Bf70860hGu5p7B6zRzqzeVemqNVUpj5hYkZcIvXhE4iPPSVxCdkSBg1JiBZbX4YTdQFeU4T545XLg+mmzWWN4uYGb4j5ZgR0QUS7XW5nFFNjxU78SFT5i45gVSepntUqx7Y++cB2+6r/e9swDq0ft6gm500tvMFzRLXpG5x0dXTgm9IWKmqmgPuOXqXeB/mmsdqwC/UBRM33uok7uctBCWoFO6EHXJfhFjsMDCWWSqZRCYdfFErTeHDQvmaIoOhTKttKkj+hBiKGkIPxJc0g/yqVUSl+pcFTAY9JPE7fZAtyZBpc1msVJYUVZb+DP+/P/58G0Vpy9fP55Z86quMNVHNS45eDt+p7uOBVExK1VgVb1OHBVLAu8UpBlnCw0PWWOI8awMFOxOZqibPaA1QII5POgxluZNWtgy5YtGzdu5BGK2YlRamRRUdvjjjtu9uzZ+/fvF4LR0VFKwQcyRhqzs61bt8IK/qeddhr027Zt27lzJ3M3eQ6LnZG/bNkyZg2gxubNm3ft2oXd44rBAfvG3CkOTUdHx9KlS3t6eqhr27YdMgxgjmDgJglAFg4clFKzUxVxRxaCSomMLjVvLcbG3sqVKxFVmkZ1CAw98lARZ6n0sD1MY0LXydOIwe1YSateow5ETUdxRYnnWao6sNcP6kmRFF65e8as2Qu6evp37969fcuGsh3mWStqRKXQC6udgEsr6PB6e2cOLu7uH2iNjI4Oj2QJTg2zaHfn5g1W0cKHZEEx9FvLl1iLBvM9e4tv/MMOvzp/zyiRIGbOTNcLL1AuLbOwoaEh0RuQcfLJJ/f19a1fv/6ll17ikmbiAWlXyJ0zZ/6yZScSV1q7di2qUyNfR8rR5OhonRbRd2i7s7OrVqtt2LB+z55dQBIcuEVHcFALnUspFE7VYNOsWbPQ4b59+1AgB2lu0XkUIQEBzOWW1EU+OeVyNSiVMQk6eXDWvCV1HoQpaxN5EW3ftVUvWYRpFo7WenJr143/eNsn/837P/7hSx554iav1EcoDDSK4tTn4aoWOgjIS6fxr6NRiuiVQavDGvLkzTwiYLVFxnQ4uMTIMKaurp6PfexjBB3IZMwz/jG422+//e677xbYwnDPP/+CK664AnrBI87333//nXfeyXClFHZ51VVXveMd77jxxhvPPfdcRg75Qszc7Uc/ugWeDCEowbtPfvKT3OIAJgAOKJ977rkf//iHUhes8AKuvvrqs846CzGompHDqLjnnnvuu+8+6DmQmVIk2i0iB25EwFlnFDiDD3fhcMMN/27mzJmgFQBXrVYY4d///vdfeOEFLFsGkkjCgIRnm2E7wUgAkNTYa4wWUdTBAz73WlFaDRRSJyCsF7BsNdyygv55p5x3+ZnnXkRZHJMzOnuaQ7sfv+Mnr77wpNuRRawVWnmtSJesvOLsiy7t6epsJulohqdWYsrtZE0rHf3Rzd9qbnqReWXIgExrH//giZ6179Y7dyV2R4MJeljyiJoF1B+MjNaXLFlyww03vPzyyz/4wQ8+97nP9fb20im0muD3X/zFX4A7NBmV0ikf/OCHEEm6qVwuPfHEE2iAHDQ2PKweOR/84AfPPHMFZeEAGbQUv+WWW7SWHPzoz3/+U2Df3/zN32zfvp1nA2Qg9PXX/y4287d/+7ebN29EkzDUmlRBfZhwoHD6iH4nB0m6u7uR7YILVuFbK1Gz/Px3rbr03T1qAado+oH9/375v2/ftdNzcibWPBy8YMbtt2/7g48NLF6YDfZbr+7d5/t9rC3GWdJJZC1qKheSWmmIjmMRzeJfFldRp842p6mhgaMBFoZCI8SeSGNnmNQXvvAFTApoeOSRR7Zt23LiiScuX74c2yIkQT5mR0ji3e9+N5RYMNEizJRhcP755/Oc/M53voOZClvQ4SMf+Qj48thjj42MjJx++un4R2efffajjz6MqwVmUS9jDAvG03n00UfhjE8HwamnnnrrrT/DX4MVTD7wgQ/gEDHmEQCn4PjjjwcB3/ve9zK1RADq4ukNGbLBk+aQIFOLoVCYhqhLR01tvvSlL+E1IMz3vvc95F+5cgWIef3113/5y18eGtpH86Ehn7EqpV7fwwwGtkONNuoVIi1O5uRMhlm3smICQyrUS8QpaERZ0D3zHauuXLryouFm+vJTj9RrQwMzB884/fQLr/jt1PLWPvVgZ+CNNKPZS05ZefFVblffT3/6va3bNi8+/Z2nrjynlRZrnn+mlO7Zv3dnJ0G/FhEaYvatE0/os53WD/716cQ9oUXE2Unx9aK4lSZq1QLt4fgAN5///Oe5pI04VjSHHFSHBmgU3fShD32IiOGLL774/PPPg3ErVpx5xhlncFc6DmIucYch5gn0yiuv0GUnnbQMb4t8GKIQDUMK3KFB7ZxFS4A4CWoE6AXu1S32eeiHB1XQ0eRwKEq9Vrtu3TqeRigU5pVqafO2zTu2P82minJoNePmaK2uiuQt1kvxWeuR0x1YTz6/8awV4eWX9v7DD4tGC10ywWVWq2xJY9NYj6kdLwqq9B9ptSHLHFNDA0cELDWMXZdnHQYk45Pzpz/9aUxqaGj4K1/5KwgY/M8998LPf/5zpmwMCcyDGMe1115Hwdtuu+2+++5XhuI4Dz30ME91Hsu//OU9zOnIBP3k76tf/RqTOGjuuusXX/ziF7u6OoE/5kc8qBlXMj286aab8XRQ54svvkRdTG141CMdOUw0Tl9xJlODr/3vrwNz8Hn4sUcvvnAVAPrhD3/4T/7kT5CQ6jg0QulIHLEYVos8l8BWiVX5VgufEeGvuuqackd15+7df/3X/yNR0y4HJw3/7vglx1155ZXf/e53GWnMUVCIeAEMA9orvhs6gR558DnYK6S2+xRgRhFlTTCVxfuceQxTElZIk9RlOts168wz3zlSb/z8O38X71hbdaNtrYa987KTLnz/hVdcu+H5+/K0kfnl40452Q+c51c/uPbxe4Iie3HvzsV9nT3zjtv26ppdL9zTUwwFcTNg6TVL2Knqd3h7asO1wqoXtl8p1RtRWOph/oQoCAbOIjkYhNjf+ta3wBq6j4NbSC4wAfRz95//+Z/xYWkacXFQ6bOf/ewpp5yCv8MTArKlS49Ho3TZrbfeCjEcHn/8MaAQBIQVdUFDXVoVijm6QrecMR4hoDrIOKgiYsaqZWM1gJ7iFgyVSrWzzIR03br1Reoitl92fnnfnVs27mjW6/An/MSmrDhtMf8G89QmPM+v2eEzG9aed/7cWYM8k/B/1RY7sCzL8N3YwUVVBw5MgIaz5ojIB/LMv1NCA0d8tmBA+CbqIaYflTQGC2Mqgdv+93//9xgc9soZ8wJNiD1xlyKERTA7Mln04S5lsVTmaDwtuYvpw4dM7BLmTz31FN4TxGRCJqOot7efZz7coAG5OLOL6rzzzgMTYQhzII+qSXDwtCcNcyJl8AeV4PPAAw9QirtAG5dkUpAEFQlblgcZReQTAePMYIP4hBNOYL3rttvuIA1W4gVw/uUvf0mphQsXStUwgQOS0wQ0wy3QvM0WGmRghxrYRbwE7TheqZ7ErOplapFBbajCwXPccP4Jp0e5t2frq40dG4J4f9Dc3++0nn3oHoAn8quzZg2GbNEs0lLAyPXiVuQWMVu1knota41W3bQ7KLrsKLgAdwoAACzhSURBVEyaDDk1eq2so7cUpc1a1MyZSbL5KM06SxUWN/BBWctDQmSDFWKDR+icNA1HHA4ycZ3mz59Pw8Xz4lKUgKqZ7lEFnib0lNqwYQOXuLqgG7FF4QmWQc8BNzTPGRVRI/WKnklTSgjgQz6XnNEemdCQQHUUFKNCz6gX5kpsn/1qsXJNS+zSwK1W1gUUMRVkjzrLGFnEeoZnueXMCzfv3FGP986Z18UcgCrEcUYk1l0UfKlDDJ40rp8BK62SKXU6ooclUIXFiCWRwEyxNmxR44iFWWNY3MXSiERjajSc6RhnARqsV1mxw3Qj2b592+LFixYsmK/8b/UctYiP1Os1Jmq+DzaBhu6uXTthQr24aWLHf/d3f8esEOBgivee97wHH+Hll18iWLZnzx4kYaTNnj0XS96yeWu9xv6pqgIUV42EHTt2MAI5SMCqyPJSWcVoIKAUDFWmbhqhDaZKPOFnzJjBLQI0CMDERY0WBkVRsM4opdoKoQgHtSADPGkvYsOQS1I4VCgETyt3wgYQWuoiqq/emqGpKXtEAzyNvgVLRpJiz5a1fjbkBG7CDoc0ckrlV3fuG5w9f/acpWs3rusM8l0bXho44dwTl694/Bc/abLXqqtz3gknlu1mffs6O2q5bPeyrJEGa2FuqbOsPDueBAiT5GyUYvspa2JMufQWcQUitA6Z2UZAGjE40w00UPqUFRI6Ek+KkJZ0KwOefhEEAfqZ8dFG/Km+vt5Vqy5iCs8UkuYzDX/44Ydhy2MGlIcJTku12sGDjfkYl+hK4xcopkBE6hVroTg5sIUAkRCPuzBp1VWCskyrk5QdDCwrh4Qc1SIwU+3Qb6itJ15HuStpxKWgStM4cLqjLPXLJcsZYiGUbqIw1sUaCBan4EqpQVBKvd6gVgh1KEvlmmOKaOCIgIUN0QRsGntqtwX7ljSZDHLOEPB4xPKwM4yGTHKwUSySR7ImUEZPDhZJQhhimqTJkUsKMmzat0hwl7I84f/sz/5s6dLj8aQITjFsGCeEsYjWE9UCdyioQIqR4av9UzAhkcaR3BJMgSbSi5gw5C7rb7VaA5gDVFj/QgYJ4rDjnVJPPvk044QpoZJH7dFPASw8RKoQgEM2WgpnuEEpjeKuIBe3WDBX7XW8hI3sbjjUrHX4gUVUCVVZGcMnT9Ryvu2hJatS8lrNWrnC9vo6rw25YcAmdNbq/ZCHwej69euXxEnY1f3pL/zHbVs29A0uDIt427rnGns2B7whk6u4T9QCBZzdu/fDr7PCwiLLlKGrlijVdi227+OHIKpIi9h0FrXTieO7Eg2QyS0Cf88++xxkSo2qU1T/kkASOIiumJUztSeuxOR9rj6uu+46XOCvfvWr2AxkcKZTONAPbNEJmSRkFRK/nNq5RX5LAYpagUWB0FMX+TAhExpyWBVhPwNlASNCVTQnTvGUI/WwTLKoWQ889ZTKijTwE7dozezvB9r27+clHF+96QWqAd1M05k6ag9OhasUbB1AKyxcBRfNMWU0cETAEqPB1NrDnsgFmVjO4Jw5ag4YsKKMZXtDoyMYUKTfv3nl1Q2Eh6qdXWzS4jEIBGBhQbk0c/Yg2wHXrn8l5bmvXoZTr9ERS+IMTxJ4IBJa8kLe/lN44bPCxbQqz19as+aVDRvExD/60Y/iC1z67sufe/EFBNu4ZfOyk09ZunSpHl1qJZHMMAiQh6rZBiFIylDB6LFg7tIzBy6V8BShLqpnUsn5lVfW4i/QashoHYOKNXTRAAMDUWXQMraJPgORBHrIhIAiHHpbEw5nxrYDMDtMG/2srTdH/CImbFIt+83avkq5f8+Wlxcsnj978XH33pX1sNesFYWez/iePbMffFi/cb3akBZUvHIHbwfStP0jwzO7u4vR3U+tfvj51ffnzRpDPGF7lpWw9sXaYz2ycCOqpV7mkrEbprHlBxV0ywQoZ/sE62Hs5Aj8rMEsineTeJ9JvdHD00UjRdTV27PmlXWrWk00f+NNN9FqUAO1MJrRG6pAmXRZrdkoV9RbB41W68GHH37okUe4xVSaTukfGFi8ZAlrLOiQjV4E2I9bunT33r10YF0v/7GTBf8WGdASHKhXOhTViZ+lqtOuH3rm4JIDqdl3XORulkfsAKMskfqOrs4kboYsEBIaVFuYa36V4OCu7lJz4czeqFHdtpMwfIWVDl7PTKKW7xLWiHXMU8GTegq/Jsp+8HnMPXNMcg0csbewKowP06EBJLAwEoSZsLPf//3fx4JJaANKFyxYcM0115CGAGeExzV48b73vQ8a7J7HJsEOUIZIB8EmLiHDTBX26bUhmGOaAAEMGZwyVLgEFAicE9AVp4AzERYW5pGEu2LlLGZRnIVIXDC4wRNW1157LQIAQATXhCGcOSglkWO8A2IZgc+TXw0baHj6sn4P58suu4w4nQIgXjLW81/CNzRNKqUuxOPyE5/4xPvf/37EW7VqFZWiK6kal41SUPP8B87sPGaEVAbmtoIZo27v3sRj6xXjbNvaZ6tO1jljzrxTzml63TWro1Waef6lV3tpKxneHo3uDQPlp6w465yg2nXPw49/9Vv/+L///qavf/0bq594is3tdlCpJ1lQqRLKZ3cnLzhX2Ja1i1e1S+euXJzUNvA6AGiVA+C8NcwOeo0RqJ0EekNCBAatAG4ygSe9nWoDd1nlYI+I4IUYADTsuoKYUrTxXe96F2uy6Ae9kUMCkOKMfigLcxiiZC7pdBjCnDOIRghSup52kQMZtaB5ONPFXNKJEEhFWI50OiLjeNKT7LpfvvwkyJCh1YyZyjHNxydvRg23RBgA3zl1Iuu8M06ohINPPL4zxZdFC1nCS5pMjNUXGxRq868yP7URi3/USf+r0uaYGho44qs5GBZmJ+Mc28W2aBAx13PfeR5WeMkllzCSBwdnXXrppaQJS+POMIOjyKZNm1aufAdWztutc+bMOf9d519wwQWUffDBB5988kkS2CtbE1jgw2UDARU66AAQwLdkyRIgj1UqyAharVixkrkGmYsXLyacf9FFF7FvC/qnnn6KkAoiMULYwb5o8aLlp5zCnBGjZ//XspNOxpX6x29/m31AjCJEwumnCcxf0zQ7/bQzqp0dJ5100sKFC6648oq9e/ex6EljN23cRCZohbQLFs4nmsPc85prrlp14SrWH4mFieQMKg5iavoFIMaPR7sYuiiKKjR4JURvwIuGW1n8jovScu+JZ6x0+xctOfvSE844d82LLzBPbtaaoP3s41cMHr+ib97xvYtPWX7R1TPmL6k6+d0/+LY1vKVoDBH2L3UNhgtOnbV0+eDc+X39sxYsPXH2ccd3Dy7k6xMRLFo1doQyZwsLu+zUK+V9Jy87rruz4/FHn+VtxCZ+lR/zrjQDFPFKpfDcc8+J4+j+++9jcxZuCbhKUIszfUsOynnllXVnn33OnNlzCE51dXeecMLxLLaCX6edthx3CjKY/N7vfYJnw3nnn7dg4YK+3r4zzzyTbmJzA88SporyfEIJ9Bf9Cx8STBiZy8ut1aufGB4aAjRQOGokrsSZqSXdxFOELkb5bIt5XO9iASvZJsq7ODt27rhg1YW9fd2LFi3Crk455bT3XnnVnh079+7bDyKyr63WjLvC1tK++u9ct3zfiPXNbz/XSrstrzuOeUWf15141vLSAIDOPxiDzArxtkiY6SB2PZWOIwIWIAIiYOuc1ZjXdo/XwFxg4aKFRFVnDc4ESjA1bPHmm2/G98GF4bFJFHbTpo0nn3xSd3fPvPlzsWYG809/+lNZN4QVKMNyIfAEtEkoFxPHL8MLY1cXO6TZBwQf3LHdu3ctPm5xT08vCLJo0eI5c2fzZsWTT63+8Y9/jGDYOlKtWfNys9lYumRpX3/vwgULw1IAAH3nphtf3bBBntKwYlRDTxAdEydmPDh7Dm/Szp4zCPLihVERrAhlPP3M047jUhejAgehr68HT+25Z557/PHHYYKQqEK8A4YW0RtK3XLLD3AKGH7wRxglksvLgBlBNRatXnxlE0jKhsXB2YOdXd0dJf/ZR+9nAzz7s3bt2LVrpL546Yn9fd39M2ZUOjudpHHbP31j/6vP+Wkd94Bp5ea9oytWXcnrOoNdlYXzZs6e0T133hxw66Qzzli4YM5Lzz9XYrdVo0nsvSgaGzfuuebq82bNKF54/qWdeyM36I6yiK/ZqPFpqTcTwAJ8H3a9KYXog37hX2SmB5Efn/SFF56nC3p6e5jogTgsRIBEP/vZv7KKAjHHU089TS/zrOJRtGTpkjlz53RUO3bu2nHzzf+0fcc2ZsxZnu7YsRM5+/v6S+VwYGBmK2r+y798j0W9efPmP/LIw81GTexKqUt/SYanIA8wvCrYAm2I9PBDD6Jt9TQKQno8TuJ9+/ctW3YSPbL4uCXz585nxr97x/ZNGzeieF4W9J1Gp7ftv35h5Yy+4PZ7tz7+zO7Ymkl8TH2rBveK3f76M2QKogCsMZDS1sOFwSx6Yuoc9rLlZ01IWuwJi+ediYGBfqwch4hhQCZM5LFJGl+DYcD+pt7eblb0GA+4RRCo8Xwg3Cvpw1bNwOAufPQY4f3+js7OKtyGh5nljcibIm1WyKAhNdD40sEOT2hAM4Q5LHMetoxeBgaRV/wmgJKxIZJzZh7M9gP8LOYpTJTwGQWJXs+KwcyIAsGpXaSlOAcyizZiy40cQvydXZ34ClUUlbbqdtRw9PekctvjKw6Z7ffMGAA3GyND9aHdZSflQ1jgHTPHll3+8B/8YTBj/m133Llr8/reiufGo2F3b+eSU09deVZH0brxK39ZHdnHS4e5Txx7qOLtveryGf/X788ebUTX3/DQaDo7s3qzosx3VF4v/FFyaALYQetoFM0X/UiPyFk0jw6Z5SH51q28Rq7m1Jx5LqBVPc/KeW+xp6erXm/u28eSLkF0ounEAcb2UrxeAHnBAJ3zwOMuOhTFqvVWFh5tixhB74zearVcq43s370ri6KqX4qbReiN+uH6VRd0fO4PV47Wio/ecFczPZ4vzLCVYmwrAyClDqyKdwnH0jrHnKaeBqT/JiY3xsSq1pYtalUO++ayDR9ckhYQAV8aDfUpSCxP8oWMHBLkHLZWGe1CI2TsbGIwMOAZMJQSd0+KS0UUYeWIdYAgUIFzYAfQaNd1SC3UzCt5ereUQl6pDgkhgxtIB9oyZvC8qO6QsuMvZeeXiES+EFM3DDmonU9G+Fm9qNfYL8VGL97kZghCxi2W5gmOeznfdXJbO4asUsmNm9WkEQKdrp/7QcIrOB39A3Pnrl2/cc2zq0tOvmNv3Ynrzr7hXZv2Lz1lhfrgkxuw0FEK2LLlxgkfh3Juv2vd5Zd0Dw4G/99ffuyzX7yxHlddt1t9/079vdED8UANnjHIi35EjSI2LOQSFfGUAsvIgUzrXLVLKpK+pfcj9oXpg5UEyPTOKrUd5LCi8PDAI6YjIKAbNE/lt/IE8HkrslBu4I5t2wlXqcdKyuZSlyh+aIVlNzllefUzn+GNouE///I/RXl/UvSMVTEG1mPN19g9AVUcVk6T+ZvVwBGnhEcSC2NV41rPgKDBELFUMsERjIwcOZPAVskXy2tTkjj60aaHrRzwwY45c0m9nKERzqThxiSFxHhYRKoj1QIHiutxNObHUZZDOFOKNAQCYeJ8HZaVEEAsdVGkTSb8hRUEJKQ6oRGNCbFaUmdTqVplZwe84sUEsJV7UeGNJM7K8y4MOvpSO8BpavJBrLCja3Dhle/7xOzewfqGNc8/cm/B56esVhzFFTcgWsVy4b0PvnzWuWcvmOPPm93/yBO747wX5vRJW7ZfmUBgjnYTkFYOKSh3SZPgLC2Sc5tA7kIg2IRhtLVNr0lBIR5/btdIR1AjRcgB1wmcIw7Bcb39AMGol8gdLnSmFGb7nX3xf/vvH61F+//XVx5+enXeKmbxbZ7xnE16OmlgwlNCaXzbcMWwxluhmC85YujtySA53JK7MBlf5BCFtmng0C5FWpd+zdjjLmNgPNZwKTmH8GxfwkToSchAEmHIFMiTASN1Se3tsuMT3JJD+HAWPu3B1r6UUkglOZQS5pKvvzrM2MMZYBeHzQatxA4jp5yHnYtPPvO33n0V35xheV+9W8L+gFKZuxtffOGhW2624j1FJcryZhjz4gqoAHwMW97uMNz96T845/u3PPL8xlm5u1h9cHkiHhY6AWJEyLZ+RGPS1yK2tJ00maTH2jLuH4rQ9WgDbrQdMtHMYYkpR76waiuQHACLj4gqdQFNxOMcNonQ4zyv+MQMz7HEVZ2/9ZoPde/etu3Zh8JmY1ZaKqcqYmWO6amBCQMW9iRjjwSGRBrDwiiZPnCWTCxPtCXWKef2KJXLI6mTuxwQC5P2JTntItRCPgQcUiN3ZVAhD2kk4Vab/pCElJUinDlgAn27LujJlDO3Dik+/lLIyKGsnKVeYUWO4q4PkbmdM74IMgNYFFGEfPnECxPbr8W8EtiVOsGpp5/BIgAf8+LDMvv37Vz38jOtob0dOcHmLPcT3shxc7VtXW38SltZWisFmV/UWRKL7Z7C68gT9fn4iR7SxW2cEtnaZ0nQUuSF5hDmqhEHFKJadCBoQOIQykMuIYAzmXBGXRz4n8wJyQe0UbHer8fnDpULZlspsMonkfkwou3sYWUjqpf8sJ/dHDijh3A2l9NGAxMGrNfbHzkcaARr45A0lySwPDF6LmUkK1M7YJSHVaIYq/Bps2ozJx+C8fnwl4qEBv7CVqo7bBUigNC3WZGQsjJWJQ2TNvHrWUlZCISGS462/GRyOb6UkIlgbT3oQmqgMndTxdWOIb6ZwkcK+LBfwNdH+VAhKwASVOI93tBtdZXC/TtHuzs7663RUiW0+aGNA59CDvFB+FqU2mDhxrzMlyfsgNcLheMFOVpaxBbJBYxEQmmXlGzrXIjJbCekoOSIb4XfKjYgDVcNPcIhOoEMJqJ/yvL9eDUNLHiDADcrI3CuFmJZ/9Mf4+f1dSJlbE/grYqCrcv8Jgeu6gTXGY4gjsmejBqYcAwLg+PAqnD4xYi5xMKwTrFsWqlJ1JQQSxUzlaaTL4Y4PvMQrYxnIsTCjXwSEAsBt8Sha08523wgAHSEuJ3ZTrTxCALSHO0apWC7UVLXkfiQP/5o8yegJmK32UImrNo05LT1wDebCAQy0yFIoz8NDMBkPutZWavTt7ykUeXbBNGo+ka8k/qsxPGiY5RXOzoZmex35+sxvIrth0FY4qtPKa89qxVSJ4/iyAG1+Jwp4Z+JrNxL1yAeQpJu64ccDnLkkHxpmpzbbZTWQdZuLwUlU5CunT8+IfNxlEZBYUhaJZSDiC/PcwglKSTHH+XtJjal8tKEWl3hZc80dnyXHwPgHXP+H8/WpKeZBiYMWNJ+LAm84CCBYZEp45NLrJNLzI4c0nJul4KAW5i7kEn++DM8xxOPv0Wa4u27MAGtiItLPoOBBNW1ZRDKQ87QU1DE4xalpEYp1b6EQO7C8BAOckn+IYdwoKAckEkOZynSbjI5HJAhCYsI6re/GKj8qAbQol7/S4kos9ed34khGM+/fFyLz5OzaZudRbzzjNS8PscWAoq46hVjR/32D79mxHft2BrO54/Vt+qKkl/N+TkrPq45EcBCGwjWbqMoBMmly0RyMskhTQLJpaVShLPcIsEtaLgkITqHMzltyvEJWAm3dhGIyeHNKJ5N/HIAu9vZksUCq2eX+FI+6uPHJZKELe1oRX28ny9ToFDEGs/WpKeZBiY8JZxm7Z9szWFiSPQd3EIwNUnEuQDaOBPbIjTDrEjPd9RbJnwaWX8jhXvqgIpAT94JPllOAyZuBpSrb3Ax0jXFFDwpWEqs3Ldy9fqOY6uNFFbBB915GPDhL3Z/lZVa1NevaLfam6L0Y6aESk3T83gz+7CmpyZ+Q63S2w6Y7YyF3hQwqZGpIEb/GtUYVOkflFa+KwNS4ZRymqBhaBLT0QcZbORmQsTkku9CKPziF0PJmLJoJS2kcaCu+u0IfajPwqj3W7mpHcexn9HWm0J1tjlNaw0YwPoNd28bqtpykMNKmFziPqh5ImH4MSeLC/UtJxmuPt4XIMXP8KmJn28VvgIvolxuxM+nMsT5KJd4ZG3mUy2Bu0QrmQRHquEKqfnB5ybtdXI2W6n1BKCKfO2W4o1qDJ9qjTTyvnENGMB647p6iykZigdrZEBqh4MRyn4u1hJBLgYzBHhS/CT72EDlF2UKRq/CLxwxFaWmwEEuUzLFlg8wWntVY24WLweijVB5kmoGrZBMaUM5pmAWV+aYthowgPUb7loVglETPTXMZHpIQnsKyqcaO5jcKcAiP0s9gurEwInj2AkelNoDztIYd+U3YPSPGvMT9/yrh26bxwFeU+lfNPBa+FEYzWcoaAPLqBqvyVFQpc8C8Fy+ttBUarGR9VdowADWr1DQMb0tMz6qUBiEZ8RAI8w8NvxUJrfAMtAKD0t96dlm3U8dCuDYmgRw4VYwY6SIzbI+jNiPxASSBVPyWJOb8kNXeYvysVHdcI1NCrAUECs3E/wimKUmgzpgR+6Ub/JYQ80/h9OAAazDaWUS5GX6E5lqVZBdkWp0qnFo89pMwb4svhuvgCtnH7iOSPODYtxj3LKor/BO/SqM2g7A8BbfbRI06M2JgOvEB2rZqpCq78BoZ4qmjvFS80DdbHbRMBscQ2fxtt5cdabUZNeAeoabY1JoQLsSB4Lrr+kXEErygSybl2HYzKTci7EFMi08cIaXoYYs4MboVd6WnlpKYlI08E0JoVoq8Sk1T24fWj8H4lXSRs5TvbHt5pnEkTRgPKwjaeatyMf9ac/7qK+9YtjOZwcp+VyqpUPBID0ZOrCMiPvFD04QhMetUAKrf9h4pZKqlIYxfTFVT2p5QR/4UjIP1GG78b8yqMN/qulyKHQzx7TVgAGs33DXAiuHleD1+QfgTNELJDEfkrI6PC8D9TXcDobtD1vH1Mg80KKDSHQg5xD5DxIccsNcTh8NmMfR9OlL0xKjgWmvAQNY076LTQONBqaPBgxgTZ++NC0xGpj2GjCANe272DTQaGD6aMAA1vTpS9MSo4FprwEDWNO+i00DjQamjwYMYE2fvjQtMRqY9howgDXtu9g00Ghg+mjAANb06UvTEqOBaa8BA1jTvotNA40Gpo8GDGBNn740LTEamPYaMIA17bvYNNBoYPpowADW9OlL0xKjgWmvAQNY076LTQONBqaPBgxgTZ++NC0xGpj2GjCANe272DTQaGD6aMAA1vTpS9MSo4FprwEDWNO+i00DjQamjwYMYE2fvjQtMRqY9howgDXtu9g00Ghg+mjAANb06UvTEqOBaa8BA1jTvotNA40Gpo8GphJg5XleFPxaqDroAdKcSUuCu9ItScJvHk+ldk0fazItMRo4xhqYSgMbGNJgdShatZELXUHguq4g2jFWnWFvNGA08FZrYMr8kGobg4AnOSSHM5ecJYH+wLW2t/VWq9PUZzRgNHAsNTBlAAslAExtVYyf9ElaAEtoACwu28QmYTRgNDA9NDBlAEu8KsEjmRvSAQJM46GKzLarNT16yLTCaMBooK2BKRPDAqpAIjmQngRnMsEs8EsSkkn+eP+r3VSTMBowGpjqGpgygIWigSHP84ipkwan2hDm+z45cjk+QdocRgNGA9NJA0wJwayxDQFvsGG57aS2z19me4UqbrlF6lipW2QkbKtwihz/RwJOEEMwLsdR99SRO+NCUgdlsLUwxXgkdWwrdq2RspsEQRwndjPpTbIy/pTjxIFX7yhZTjqapFzOjDM/Lw6JXrVZ5RbMX8NZJDFnowGjgamhAY9BbGlMQd4DCKIgAxcmDMNmHMksDL8mSTK2N7mFlRVeI+jrmr/s0vf9jlPqdO0iHt4V7X71Fz/5l6w1EhZpFtdKnpsWVmrZqeXB1nezPI4Ky0utvFQpNxoN13PyIvO8QG2bKnLf95I8KYrMsRLfC5MMjwkAQhJ1s+Q0K/nmkxfmf/RH12/Z3vrMf7krtxepAJa1b8VpwX/6wu889ei9/+N/3hezYujOyQo7zXLLZaJo2QqebFA1t3NHQaFqrsGsqWGbRkqjgddpQHsfh7okY1SyA7M9BUvzzPdD5mVxbg0sOvm63/13brmrFSX7hkYK2507d24URa7tJGkU+D6gpbyqHADKfc/JolYYeLZTlMvl4eFhoNABJvX+g8D1gsDNsoSNn6VShUJZlvuOX6Q5qAniZcWIZe1YfmLyp//lA72V+LGH77OyNM9TkDQM/c2b1ke1bRedN+c/f+EsO9tRpHs8VaNHm6i7UCClHDnHOFav63uTYTQw5TTg9s+aq5wOfdhqbjg2TwOnVJwoywPPTzJ2CTgADG5PDrR45Xddc31Y6dy35rHbbv7amofvWPfYL1545BflomlHtQCISuIQzErjku96xMfTVgCOpTEOV+E41Uo1bkW+7biKZZ6mLdtOPM9JUydNCuVexbljeSGxqjx37aYTDIf+9q/8+UUdpdZNN6373o+2Rf5gZAWe40X1CHfv/vseuOzCxYsWDGzfU9u2Y8hqBXkepLiEbuHYaorq4qypZhH8UvEvcxgNGA1MUQ204zuHkR8PKMsyuQF4EdtOcoJJlbw6UJ25IPfCBx+4r2iOuFnTy5tB1vSTZuhaIF1sebFfbXjdw0W1VoSpX0mKwPZC1vlgWBsdKQVBVhRR7ozEXhJ0R05lNHW8SpfrV/IirJR7mNtFcQPXzLGaFXfbp/7NOZVqsnPP8D//8IXYOq4eBY7r25ZbLveP1jv2j5b/6q9/GifFJ//tu/s6Roh2uQSrYIFfxcnKbB1Tw81ieqjPh2msyTIaMBqY/Bog6I5X1Y5eHRSY+R3TN+aAUZS4vlqbazUir6uvGfTnXfNaQW9k2VnnnJITuI7vpSPJ1hfLvlWPUsvxo1JnzemeccqpPf2zoqHd29Y/FwbDdmuYaFag3LSUo1G4VrWvc+aC/pnz7DTZsWXD8L4dzAP9rMjiVqmcucS78Ouy/R1Wdvl5S30n+eP/9t3YrjYLj0lkHGtnD4bl3qTInnx+49PP7D/nnOjD1836+jdHGhmBfxVuU4dE8VVKvW14NIRWNOYwGjAamLwaOOLGUcJMcRwHQUltcbKt0dHRjmrn9b/7CXvguJ1ptR52pln2nquv7S/bjSjtsuMf/e2fjezc5FS6W05p8fJzzv6tq7zuWc1WWnJzL7vqpScfvf/2H3XZzThpBKVSy/JmLD7x0ms/Uu6a0WjGVVwpO9uwccNdP/uxNTrM5DDJan5oR624K8zffb7d4zWeXJu8utVywhn10dSvVgPeGSzUDDVO4yj23NKcb9909/lnvfPi8xd9/f88YlkyE1Quls20EvhiZoi3pVYJJ29nGMmMBowGjq6B1wLWQWfEStOcTU/MBFutlheE3V09uEVPPfGo37t1n9s3951ziyzb+NIz2+Oh1C05US1PWmHJH07yBcuXX3LNh5qptem5xzZseKWzf+C0lecsecflbnngwR9+w7daiWWHM2Zf8uFPZk555/Zt6557orPsLDvz7J7jzrzsYwu+9z//eID9Erh1meuGVQJil513gpvXfnbrers8p94EQkNCYezCIsJG24iFBV0zkrS1cee2OvPDcrl3oHNkb4zoBb4Yux9w5YjMqWlhWqi3DFk9NG7W0a3C3DUamKQaeC1gjROSNTh8K3ydSqUSgQctQuP2U6sfzd3Kbqv7A+dcHQb+A3f8uNTcXZR67TypRqO249nlrovfc10jKR64795XHrnTylpNp7R+7borPnTDghOXvzhzdmt/3EyLK6787SLs2bRx8103f6PDqreaIw8//vi1f/gnld6Bcy5etebBn5eDkpUkrSgt+8nceR1W3nj66U3N5lLLKydJDg7xWiH7Hqy8ID7famZp5lWq5Vc3bj/jjGWLFs7csHPYdfANVevUTjEFxDloNa59Jmk0YDQw9TSgNiupFTSG9AH3Ss2c+NOARegKx4o0AXh1ZutTPBLarL+lrP1Vslq/HwetPWHezJh7hZ3VWYsbRRCn+QtPPhJGe3qzoZ54f3P7ur3b11p27cRli9OMnVkdA7OXZoV1589/VMmHytn+Ti+zm6Or7/5ZmNXmL17UIvqUs9gYBEFouWx2yAo/qdcTxwqtwrfdIMmUSAjtuoFteSws2gXhfHvvSCstirkD5U4vsXMvL3w2VuROwk1mteTwZ9yrqWekRmKjgQMamODkyC6qgRfkkZs2wiLOWqN5VO8KHTeL1OJgag0Mzu/s7hnatydu1LqqoZO1ur08q+3fvX2LHwS9AzMTy/U7+tlNmrFfa3S/m9XtpAY+WXk2tHsnK3/dPTMcvxrHlmMH+HeWmxHWr0ctSEDULE9ct/AcwlIWWy5UK2y3FcflMv5UFiVsnkgrpaBIYuaS3Mxsiz34nDnc3OFPpcxhNGA0MDU1cGAAE9Z5bWRHOTCqSWoypT0u7XdZVrPZBCq6/Dy0Iq9UtfxyMwFEXKdg90DMHDBqjPp2wURyfyPNA6aTkc9eB6+jHnvNTG9xwB1yLb/IAgvcKjzbTR0nwXuzmekBaxW2xDtuKWZND/fKseI4Z6ODqgInLx+1spoDXGU5OWpBABLbi+JRx45m9neEnrdzx5Dtli07sZwotz31FhHbUNluodcNdaOmZl8ZqY0G3vYaOABYb1gRYanEdCyJohQgKezE9izHayVAFfEmb+umDeUwKHX1RU65aYX13IuDahJ2zp630LP9Xdu3uVbaGN1rFbEX+N39A5nXkfodETO1UsfA3AWA4p6tO4jze2EAd8fzs9Tau4eFQPe4xQOuN+L7QBQvLSr/ird50jxmK7zr5S5vN1rWjN4q09ude2qtWE1x1T4GtReW149U+ErNc7Xb9YbbagiNBowGJpcGACz502K9xs/SvtWYtAfT9Wbs+SV2W+WE2P2wGeEbeewpVe/ZpHFt3y7evHE6Bk6/8Eor7MxL3fucvp7Fp8+cM9/OGrteeb4jrfW68ZZXno8c+8L3faAWzhy2+mKr0/e7Lr78iiRLXnlhdQcwlccsEuJFFVnHxnWt0Ou/9NJlcfqK2qTglNUeKztPi8hxU99vWflQJXRLnjVvcCbQ+eyaXV7HrKIoW+z6Yo+7Bim9reFgKyZXJxhpjAaMBt6YBo64Snik4uzPGo6jiu9GcZwlcYX3BNOYkBL7BXiZx89bt//k+5d89D+sWLFi5fzObRvXuV0zjz/5tFpj/0tP3Lt/x6ayFblO9MDtP716wUkzero+/u//w46N6wPHnr1gcWt0f3No5/qnnwhyQle2q94ndLI4/O6/rL3gvLPPO2t2X4e1qzFSOP1Jys9MuGwTC0Mvy5tFVkvjzVdcvTyzyi+v3eaVOvbUct8lQq/ff9aLCWzD4r1C/WohLZuwX3kkbZh8owGjgbdSA+6MmfN0fUygWHjDEeEYt7dSzaPYw6TW5PRrLoSc+AaDdda7LvLyaM1jdwdE39WLMClxJUDLs4va6PD2zVsXzx/s6e6cNXP2rP6+tLb/oTtuWfPkg3yzgbVHtkURkn/1xWfnDfR19c/oHBjsGpjN/oTNz6++67vfDlsjAS88O4Bhq2J5FY89q3svvOCkOTP2x61Xn9loN/J+sNFzQl6XDthdmrnlcLS7vO9L//elYVD566/eu3FnT+HOLpDF4h1oqssRjRcaM7XGyaxQtfStVLGpy2jAaODXpQF72fJz2rwOhHiYOo0dAmASj2e0qw0QRcZO0WGnl5h3KdqDxwQpwW/Z98DCHRHuhtMZ2UGl2tXf398cHhrZvzOw2crVqJRBmSazR7UqWLhpUGmE3Z0z5/E1mNqenWE0VEkaZYsvMSRp2eOtQ15KDIt62d9xwqKhr/zpKvY5fPTzt23cNduNZ9lFGR5O0XKLkY7yhs99Ztn555701BONv/yr2/Y0F2T2IGiFYATaaRTLAfhWuZOCuW7uHrK8cKCt5l+jAaOBya4BPKw52qVSUHRAWPFBxp/VnTG3RH88y+erVXnTV2/A6Dvqawiggrrg8KyEnQVONBIN7cibQ2yA8Aq1VqgdMUi1o0MQLE+9tJkO77BGdofpaKloevorgAT1U7AIQtfhE1xFEQyP7rPD4WWnLrpo1amP3f9oPIKf1JO4rCvu6/Be/YPfO/nCy+c3Yu8/ffHWVmtZQvSKwJUXqe1XrEZafI+UvaP8lynAVfPBsaZoYc3JaMBoYMpoAMCaO1Fh9Qdb+Lgo25sOQNQ4FmQCSV6Ryp/+GKn6MhV/esopRVRaoQpvOxeJX8ScNZDBk+9DACweaASkKaBhs6hVvLxmV39/eNIJx604feVtP3s5d3rqCe/p1C45f+71H7l0f33kj//rT3bvHEzSOcCc48OFiBXYpH0sxQRObDdFUANY43rLJI0GppQG3gxgHcMGKi+N6RtAFeIH8TUrPkAKdLE9PfS9e3653ioGb731he272L0e2D5xs2zbpi2V8uxvfePuLZuBqLmFWwaqErVVFA6EsYiasUUeZkAkmfypK3MYDRgNTEUNEMM6axLJTaSJRb2CWHmZ2JNj8YFmPC8FYEXaLAV2VjR4EztOK3yumQ3vRd4sO2yUZxmgFGdBXpQdrxyxhhj4vKlD3MomxMbHkfmQn14x5JrjMG7hJFKBEcVowGjgiBqY8LaGI3L6ddxQOzy1G2TnfGEZn0j9UAWzOSDL9nvY8RVnHVk98flgAzPSJPXsMGK/luvx7iHv6OTsgshafNtPvf+owlb6TRzFQZYRPIVVepfDr0NYw8NowGjgrdbApJsfycZ0Pg7IFnaNVsopAmcK161n7JsosR81IlEUlbDi+2XH74zzcs7GevCr7McZbyHy6WWAiU3wiQ6dCSiP7RpVH28wh9GA0cDU1MCEPKy3YqizNMgrNSpArmZu+ETq23t8yiq3G1ZQREmzUulo8blSN2i1GvxQYe4FUd4s8b5gGNVbLT/km6ZO1OI3LxLK20WJCaZ+M0dPNlUn0Yq3oiGqKnMYDRgN/Fo1MMmGLhs89RxQfwRGIQsv4fAONIuGmZrW8YNfPjgVBF4UNdXLz/oj8Wy+56MOao+VbfMhBz7dVS2VFSoBVeqTWAcRSu90P7jL7NeqScPMaMBo4Jhr4GgeFvuhVBwJP4XvEbuggQ5ZH3ORqIVXfdSPOWvQcfC4ABrXLqnvtINZRKvYW1VWUXmX6Z9ss8Ll8kr8mCsemVdiG4QVuB3KO+MFHQ7iVnwgQg71UYpJBtNjkpl/jAaMBn6FBo4GWL+i6LG5rWeCQNRBwfR2KiBGfYwP7AGuWB1UGEQwHuwpeLkZ2MKZ0pmKQh8CeWozA1QqTzwrg1XHpt8MV6OBt0ID/z/ez/sIcXM37AAAAABJRU5ErkJggg==;" vertex="1" parent="1">
                    <mxGeometry x="-170" y="-150" width="263.41" height="270" as="geometry"/>
                </mxCell>
                <mxCell id="7" value="JS引擎内部有一个执行上下文栈(ECS)用来执行代码" style="text;html=1;align=center;verticalAlign=middle;resizable=0;points=[];autosize=1;strokeColor=none;fillColor=none;" vertex="1" parent="1">
                    <mxGeometry x="-200" y="535" width="300" height="30" as="geometry"/>
                </mxCell>
                <mxCell id="8" value="ECS为了执行全局代码创建一个GEC的全局上下文来执行代码" style="text;html=1;align=center;verticalAlign=middle;resizable=0;points=[];autosize=1;strokeColor=none;fillColor=none;" vertex="1" parent="1">
                    <mxGeometry x="-240.85" y="570" width="350" height="30" as="geometry"/>
                </mxCell>
                <mxCell id="9" value="执行代码分为两部分&lt;br&gt;1.将全局代码中的变量函数加入到GO中&lt;br&gt;2.在代码的执行中，变量赋值，执行其他函数" style="text;html=1;align=center;verticalAlign=middle;resizable=0;points=[];autosize=1;strokeColor=none;fillColor=none;" vertex="1" parent="1">
                    <mxGeometry x="-210" y="600" width="260" height="60" as="geometry"/>
                </mxCell>
                <mxCell id="10" value="" style="whiteSpace=wrap;html=1;" vertex="1" parent="1">
                    <mxGeometry x="250" y="510" width="300" height="260" as="geometry"/>
                </mxCell>
                <mxCell id="11" value="Date&lt;br&gt;Array&lt;br&gt;Srting&lt;br&gt;setTimeout&lt;br&gt;windiw&lt;br&gt;添加自己定义的变量&lt;br&gt;name:undefined&lt;br&gt;num1:undefind&lt;br&gt;num2:nudefind&lt;br&gt;result::nudefined&lt;br&gt;foo:0xoo" style="whiteSpace=wrap;html=1;" vertex="1" parent="1">
                    <mxGeometry x="270" y="530" width="120" height="200" as="geometry"/>
                </mxCell>
                <mxCell id="12" value="GO对象" style="text;html=1;align=center;verticalAlign=middle;resizable=0;points=[];autosize=1;strokeColor=none;fillColor=none;" vertex="1" parent="1">
                    <mxGeometry x="275" y="475" width="70" height="30" as="geometry"/>
                </mxCell>
                <mxCell id="13" value="function foo(){&lt;br&gt;var name=100&lt;br&gt;console.log(name)}" style="whiteSpace=wrap;html=1;" vertex="1" parent="1">
                    <mxGeometry x="414" y="550" width="120" height="60" as="geometry"/>
                </mxCell>
                <mxCell id="14" value="FunctionObject0xoo" style="text;html=1;align=center;verticalAlign=middle;resizable=0;points=[];autosize=1;strokeColor=none;fillColor=none;" vertex="1" parent="1">
                    <mxGeometry x="409" y="520" width="130" height="30" as="geometry"/>
                </mxCell>
                <mxCell id="15" value="" style="whiteSpace=wrap;html=1;" vertex="1" parent="1">
                    <mxGeometry x="111.7" y="510" width="120" height="260" as="geometry"/>
                </mxCell>
                <mxCell id="17" value="GEC全局执行上下文" style="text;html=1;align=center;verticalAlign=middle;resizable=0;points=[];autosize=1;strokeColor=none;fillColor=none;" vertex="1" parent="1">
                    <mxGeometry x="109.15" y="615" width="130" height="30" as="geometry"/>
                </mxCell>
                <mxCell id="18" value="" style="whiteSpace=wrap;html=1;" vertex="1" parent="1">
                    <mxGeometry x="111.7" y="650" width="118.3" height="110" as="geometry"/>
                </mxCell>
                <mxCell id="19" value="执行前VO也就是GO插入变量提升" style="whiteSpace=wrap;html=1;" vertex="1" parent="1">
                    <mxGeometry x="120" y="660" width="108.3" height="60" as="geometry"/>
                </mxCell>
                <mxCell id="20" value="依次执行代码" style="whiteSpace=wrap;html=1;" vertex="1" parent="1">
                    <mxGeometry x="116.7" y="730" width="110" height="30" as="geometry"/>
                </mxCell>
                <mxCell id="22" value="" style="whiteSpace=wrap;html=1;" vertex="1" parent="1">
                    <mxGeometry x="240.85" y="845" width="300" height="260" as="geometry"/>
                </mxCell>
                <mxCell id="23" value="Date&lt;br&gt;Array&lt;br&gt;Srting&lt;br&gt;setTimeout&lt;br&gt;windiw&lt;br&gt;添加自己定义的变量&lt;br&gt;name:why&lt;br&gt;num1:30&lt;br&gt;num2:20&lt;br&gt;result:50&lt;br&gt;foo:0xoo" style="whiteSpace=wrap;html=1;" vertex="1" parent="1">
                    <mxGeometry x="260.85" y="865" width="120" height="200" as="geometry"/>
                </mxCell>
                <mxCell id="24" value="GO对象" style="text;html=1;align=center;verticalAlign=middle;resizable=0;points=[];autosize=1;strokeColor=none;fillColor=none;" vertex="1" parent="1">
                    <mxGeometry x="265.85" y="810" width="70" height="30" as="geometry"/>
                </mxCell>
                <mxCell id="25" value="function foo(){&lt;br&gt;var name=100&lt;br&gt;console.log(name)}" style="whiteSpace=wrap;html=1;" vertex="1" parent="1">
                    <mxGeometry x="404.85" y="885" width="120" height="60" as="geometry"/>
                </mxCell>
                <mxCell id="26" value="FunctionObject0xoo" style="text;html=1;align=center;verticalAlign=middle;resizable=0;points=[];autosize=1;strokeColor=none;fillColor=none;" vertex="1" parent="1">
                    <mxGeometry x="399.85" y="855" width="130" height="30" as="geometry"/>
                </mxCell>
                <mxCell id="27" value="" style="whiteSpace=wrap;html=1;" vertex="1" parent="1">
                    <mxGeometry x="102.55" y="845" width="120" height="260" as="geometry"/>
                </mxCell>
                <mxCell id="28" value="GEC全局执行上下文" style="text;html=1;align=center;verticalAlign=middle;resizable=0;points=[];autosize=1;strokeColor=none;fillColor=none;" vertex="1" parent="1">
                    <mxGeometry x="100" y="950" width="130" height="30" as="geometry"/>
                </mxCell>
                <mxCell id="29" value="" style="whiteSpace=wrap;html=1;" vertex="1" parent="1">
                    <mxGeometry x="102.55" y="985" width="118.3" height="110" as="geometry"/>
                </mxCell>
                <mxCell id="30" value="执行前VO也就是GO插入变量提升" style="whiteSpace=wrap;html=1;" vertex="1" parent="1">
                    <mxGeometry x="110.85" y="995" width="108.3" height="60" as="geometry"/>
                </mxCell>
                <mxCell id="31" value="依次执行代码" style="whiteSpace=wrap;html=1;" vertex="1" parent="1">
                    <mxGeometry x="107.55" y="1065" width="110" height="30" as="geometry"/>
                </mxCell>
                <mxCell id="32" value="依次执行代码" style="text;html=1;align=center;verticalAlign=middle;resizable=0;points=[];autosize=1;strokeColor=none;fillColor=none;" vertex="1" parent="1">
                    <mxGeometry x="-110" y="915" width="100" height="30" as="geometry"/>
                </mxCell>
                <mxCell id="33" value="遇到函数怎么执行？&lt;br&gt;遇到函数创建一个函数执行上下文(FEC)&lt;br&gt;FEC中包含三部分&lt;br&gt;1.解析函数成AST的时候，创建一个AO对象&lt;br&gt;AO对象中有形参、arguments、函数定义定义的变量&lt;br&gt;2.作用域链由AO对象和父级AO组成的&lt;br&gt;3.this绑定的值" style="text;html=1;align=center;verticalAlign=middle;resizable=0;points=[];autosize=1;strokeColor=none;fillColor=none;" vertex="1" parent="1">
                    <mxGeometry x="-300" y="1150" width="300" height="110" as="geometry"/>
                </mxCell>
                <mxCell id="34" value="" style="whiteSpace=wrap;html=1;" vertex="1" parent="1">
                    <mxGeometry x="200.43" y="1175" width="300" height="260" as="geometry"/>
                </mxCell>
                <mxCell id="35" value="Date&lt;br&gt;Array&lt;br&gt;Srting&lt;br&gt;setTimeout&lt;br&gt;windiw&lt;br&gt;添加自己定义的变量&lt;br&gt;name:why&lt;br&gt;num1:30&lt;br&gt;num2:20&lt;br&gt;result:50&lt;br&gt;foo:0xoo" style="whiteSpace=wrap;html=1;" vertex="1" parent="1">
                    <mxGeometry x="220.43" y="1195" width="120" height="200" as="geometry"/>
                </mxCell>
                <mxCell id="36" value="GO对象" style="text;html=1;align=center;verticalAlign=middle;resizable=0;points=[];autosize=1;strokeColor=none;fillColor=none;" vertex="1" parent="1">
                    <mxGeometry x="225.43" y="1140" width="70" height="30" as="geometry"/>
                </mxCell>
                <mxCell id="37" value="function foo(){&lt;br&gt;var name=100&lt;br&gt;console.log(name)}" style="whiteSpace=wrap;html=1;" vertex="1" parent="1">
                    <mxGeometry x="364.43" y="1215" width="120" height="60" as="geometry"/>
                </mxCell>
                <mxCell id="38" value="FunctionObject0xoo" style="text;html=1;align=center;verticalAlign=middle;resizable=0;points=[];autosize=1;strokeColor=none;fillColor=none;" vertex="1" parent="1">
                    <mxGeometry x="359.43" y="1185" width="130" height="30" as="geometry"/>
                </mxCell>
                <mxCell id="39" value="" style="whiteSpace=wrap;html=1;" vertex="1" parent="1">
                    <mxGeometry x="62.13" y="1140" width="120" height="295" as="geometry"/>
                </mxCell>
                <mxCell id="40" value="GEC全局执行上下文" style="text;html=1;align=center;verticalAlign=middle;resizable=0;points=[];autosize=1;strokeColor=none;fillColor=none;" vertex="1" parent="1">
                    <mxGeometry x="59.58" y="1280" width="130" height="30" as="geometry"/>
                </mxCell>
                <mxCell id="41" value="" style="whiteSpace=wrap;html=1;" vertex="1" parent="1">
                    <mxGeometry x="62.129999999999995" y="1315" width="118.3" height="110" as="geometry"/>
                </mxCell>
                <mxCell id="42" value="执行前VO也就是GO插入变量提升" style="whiteSpace=wrap;html=1;" vertex="1" parent="1">
                    <mxGeometry x="70.42999999999999" y="1325" width="108.3" height="60" as="geometry"/>
                </mxCell>
                <mxCell id="43" value="依次执行代码" style="whiteSpace=wrap;html=1;" vertex="1" parent="1">
                    <mxGeometry x="67.13" y="1395" width="110" height="30" as="geometry"/>
                </mxCell>
                <mxCell id="44" value="FEC函数执行上下文" style="text;html=1;align=center;verticalAlign=middle;resizable=0;points=[];autosize=1;strokeColor=none;fillColor=none;" vertex="1" parent="1">
                    <mxGeometry x="59.58000000000001" y="1120" width="130" height="30" as="geometry"/>
                </mxCell>
                <mxCell id="45" value="" style="whiteSpace=wrap;html=1;" vertex="1" parent="1">
                    <mxGeometry x="73.31" y="1150" width="100" height="115" as="geometry"/>
                </mxCell>
                <mxCell id="46" value="执行前：AO对象&lt;br&gt;作用域链&lt;br&gt;this绑定" style="whiteSpace=wrap;html=1;" vertex="1" parent="1">
                    <mxGeometry x="75.01000000000002" y="1155" width="99.57" height="50" as="geometry"/>
                </mxCell>
                <mxCell id="48" value="开始执行&lt;br&gt;从上往下依次执行" style="whiteSpace=wrap;html=1;" vertex="1" parent="1">
                    <mxGeometry x="73.31" y="1215" width="100" height="60" as="geometry"/>
                </mxCell>
            </root>
        </mxGraphModel>
    </diagram>
</mxfile>